SplineFontDB: 2.0
FontName: ArundinaSansMono-Bold
FullName: Arundina Sans Mono Bold
FamilyName: Arundina Sans Mono
Weight: Bold
Copyright: Copyright (c) 2003 by Bitstream, Inc. All Rights Reserved.\nCopyright (c) 2007 by Software Industry Promotion Agency (Public Organization). All Rights Reserved.
Version: 1.20
ItalicAngle: 0
UnderlinePosition: -436
UnderlineWidth: 288
Ascent: 1638
Descent: 410
Order2: 1
NeedsXUIDChange: 1
XUID: [1021 375 425136265 6984372]
FSType: 4
OS2Version: 2
OS2_WeightWidthSlopeOnly: 0
OS2_UseTypoMetrics: 1
CreationTime: 1050374940
ModificationTime: 1195291401
PfmFamily: 49
TTFWeight: 700
TTFWidth: 5
LineGap: 25
VLineGap: 0
Panose: 2 11 3 0 2 2 2 2 2 4
OS2TypoAscent: 0
OS2TypoAOffset: 1
OS2TypoDescent: -410
OS2TypoDOffset: 1
OS2TypoLinegap: 0
OS2WinAscent: -412
OS2WinAOffset: 1
OS2WinDescent: 96
OS2WinDOffset: 1
HheadAscent: -412
HheadAOffset: 1
HheadDescent: -96
HheadDOffset: 1
OS2SubXSize: 1434
OS2SubYSize: 1331
OS2SubXOff: 0
OS2SubYOff: 287
OS2SupXSize: 1434
OS2SupYSize: 1331
OS2SupXOff: 0
OS2SupYOff: 977
OS2StrikeYSize: 102
OS2StrikeYPos: 512
OS2FamilyClass: 1285
OS2Vendor: 'Bits'
Lookup: 4 0 0 "'frac' Diagonal Fractions in Latin lookup 0"  {"'frac' Diagonal Fractions in Latin lookup 0 subtable"  } ['frac' ('latn' <'dflt' > ) ]
Lookup: 6 0 0 "'liga' Standard Ligatures in Latin lookup 1"  {"'liga' Standard Ligatures in Latin lookup 1 subtable"  } ['liga' ('latn' <'dflt' > ) ]
Lookup: 6 0 0 "'liga' Standard Ligatures in Latin lookup 2"  {"'liga' Standard Ligatures in Latin lookup 2 subtable"  } ['liga' ('latn' <'dflt' > ) ]
Lookup: 6 0 0 "'liga' Standard Ligatures in Latin lookup 3"  {"'liga' Standard Ligatures in Latin lookup 3 subtable"  } ['liga' ('latn' <'dflt' > ) ]
Lookup: 6 0 0 "'liga' Standard Ligatures in Latin lookup 4"  {"'liga' Standard Ligatures in Latin lookup 4 subtable"  } ['liga' ('latn' <'dflt' > ) ]

StartChar: .notdef
Encoding: 65536 -1 0
Width: 1234
VWidth: 3393
Flags: W
HStem: -363 114<220 1014> 1331 114<220 1014>
VStem: 104 116<-249 1331> 1014 116<-249 1331>
Fore
104 1445 m 1,0,-1
 1130 1445 l 1,1,-1
 1130 -363 l 1,2,-1
 104 -363 l 1,3,-1
 104 1445 l 1,0,-1
1014 -249 m 1,4,-1
 1014 1331 l 1,5,-1
 220 1331 l 1,6,-1
 220 -249 l 1,7,-1
 1014 -249 l 1,4,-1
EndSplineSet
EndChar
StartChar: exclam
Encoding: 33 33 4
Width: 1234
VWidth: 3393
Flags: W
HStem: 0 282<482 751> 1473 20G<482 751>
VStem: 482 269<0 282 778.885 1493>
Fore
751 282 m 1,0,-1
 751 0 l 1,1,-1
 482 0 l 1,2,-1
 482 282 l 1,3,-1
 751 282 l 1,0,-1
751 1493 m 1,4,-1
 751 838 l 1,5,-1
 719 482 l 1,6,-1
 519 482 l 1,7,-1
 482 838 l 1,8,-1
 482 1493 l 1,9,-1
 751 1493 l 1,4,-1
EndSplineSet
EndChar
StartChar: quotedbl
Encoding: 34 34 5
Width: 1234
VWidth: 3393
Flags: W
HStem: 1473 20G<230 489 744 1001>
VStem: 230 259<940 1493> 744 257<940 1493>
Fore
1001 940 m 1,0,-1
 744 940 l 1,1,-1
 744 1493 l 1,2,-1
 1001 1493 l 1,3,-1
 1001 940 l 1,0,-1
489 940 m 1,4,-1
 230 940 l 1,5,-1
 230 1493 l 1,6,-1
 489 1493 l 1,7,-1
 489 940 l 1,4,-1
EndSplineSet
EndChar
StartChar: numbersign
Encoding: 35 35 6
Width: 1234
VWidth: 3393
Flags: W
HStem: 0 21G<116 341.094 543 769.04> 373 214<3 210 482 635 910 1117> 882 215<119 336 615 764 1039 1231>
Fore
615 1097 m 1,0,-1
 815 1097 l 1,1,-1
 910 1473 l 1,2,-1
 1133 1473 l 1,3,-1
 1039 1097 l 1,4,-1
 1231 1097 l 1,5,-1
 1231 882 l 1,6,-1
 984 882 l 1,7,-1
 910 587 l 1,8,-1
 1117 587 l 1,9,-1
 1117 373 l 1,10,-1
 858 373 l 1,11,-1
 764 0 l 1,12,-1
 543 0 l 1,13,-1
 635 373 l 1,14,-1
 431 373 l 1,15,-1
 336 0 l 1,16,-1
 116 0 l 1,17,-1
 210 373 l 1,18,-1
 3 373 l 1,19,-1
 3 587 l 1,20,-1
 262 587 l 1,21,-1
 336 882 l 1,22,-1
 119 882 l 1,23,-1
 119 1097 l 1,24,-1
 391 1097 l 1,25,-1
 486 1473 l 1,26,-1
 709 1473 l 1,27,-1
 615 1097 l 1,0,-1
557 882 m 1,28,-1
 482 587 l 1,29,-1
 689 587 l 1,30,-1
 764 882 l 1,31,-1
 557 882 l 1,28,-1
EndSplineSet
EndChar
StartChar: dollar
Encoding: 36 36 7
Width: 1234
VWidth: 3393
Flags: W
HStem: 0 227<375.028 553> 1538 20G<553 696>
VStem: 162 266<864.838 1070.09> 553 143<-302 0 227 529 819 1104 1321 1558> 828 264<271.003 486.827>
Fore
696 227 m 1,0,1
 761 234 761 234 794.5 274.5 c 128,-1,2
 828 315 828 315 828 376 c 0,3,4
 828 502 828 502 696 529 c 1,5,-1
 696 227 l 1,0,1
553 1104 m 1,6,7
 428 1082 428 1082 428 968 c 0,8,9
 428 855 428 855 553 819 c 1,10,-1
 553 1104 l 1,6,7
553 -302 m 1,11,-1
 553 0 l 1,12,13
 376 7 376 7 172 91 c 1,14,-1
 172 353 l 1,15,16
 275 295 275 295 372 261 c 128,-1,17
 469 227 469 227 553 227 c 1,18,-1
 553 557 l 1,19,20
 162 631 162 631 162 943 c 0,21,22
 162 1114 162 1114 265 1208 c 0,23,24
 373 1311 373 1311 553 1321 c 1,25,-1
 553 1558 l 1,26,-1
 696 1558 l 1,27,-1
 696 1321 l 1,28,29
 832 1317 832 1317 1001 1263 c 1,30,-1
 1001 1007 l 1,31,32
 868 1089 868 1089 696 1104 c 1,33,-1
 696 794 l 1,34,35
 1092 732 1092 732 1092 383 c 0,36,37
 1092 214 1092 214 984 116 c 0,38,39
 878 10 878 10 696 0 c 1,40,-1
 696 -302 l 1,41,-1
 553 -302 l 1,11,-1
EndSplineSet
EndChar
StartChar: percent
Encoding: 37 37 8
Width: 1234
VWidth: 3393
Flags: W
HStem: 0 184<801.409 996.592> 457 184<801.316 996.746> 794 184<253.044 450.294> 1249 183<253.044 448.412>
VStem: 33 181<1013.04 1211.33> 489 184<1014.49 1210.61> 580 184<219.003 421.179> 1039 182<219.641 418.693>
Fore
33 1114 m 256,0,1
 33 1249 33 1249 126 1341 c 256,2,3
 217 1432 217 1432 353 1432 c 0,4,5
 486 1432 486 1432 580 1341 c 0,6,7
 673 1246 673 1246 673 1114 c 0,8,9
 673 984 673 984 580 886 c 0,10,11
 486 794 486 794 353 794 c 0,12,13
 217 794 217 794 126 886 c 256,14,15
 33 978 33 978 33 1114 c 256,0,1
353 1249 m 0,16,17
 292 1249 292 1249 255 1211 c 0,18,19
 214 1171 214 1171 214 1114 c 256,20,21
 214 1056 214 1056 255 1014 c 0,22,23
 292 978 292 978 353 978 c 256,24,25
 414 978 414 978 447 1014 c 0,26,27
 489 1056 489 1056 489 1114 c 256,28,29
 489 1171 489 1171 447 1211 c 0,30,31
 411 1249 411 1249 353 1249 c 0,16,17
1130 981 m 1,32,-1
 1171 882 l 1,33,-1
 123 466 l 1,34,-1
 85 560 l 1,35,-1
 1130 981 l 1,32,-1
580 320 m 256,36,37
 580 454 580 454 673 547 c 0,38,39
 774 641 774 641 900 641 c 256,40,41
 1024 641 1024 641 1127 547 c 0,42,43
 1221 444 1221 444 1221 320 c 256,44,45
 1221 194 1221 194 1127 91 c 0,46,47
 1032 0 1032 0 900 0 c 0,48,49
 771 0 771 0 673 91 c 0,50,51
 580 184 580 184 580 320 c 256,36,37
900 457 m 256,52,53
 842 457 842 457 800 418 c 0,54,55
 764 373 764 373 764 320 c 256,56,57
 764 265 764 265 800 220 c 1,58,59
 845 184 845 184 900 184 c 256,60,61
 953 184 953 184 998 220 c 1,62,63
 1039 268 1039 268 1039 320 c 256,64,65
 1039 370 1039 370 998 418 c 0,66,67
 958 457 958 457 900 457 c 256,52,53
EndSplineSet
EndChar
StartChar: ampersand
Encoding: 38 38 9
Width: 1234
VWidth: 3393
Flags: W
HStem: -30 237<432.474 682.761> 1296 225<524.749 865.152>
VStem: 38 270<334.315 647.953> 220 282<1074.33 1270.07> 988 227<443.324 696>
Fore
872 71 m 1,0,1
 719 -30 719 -30 540 -30 c 0,2,3
 315 -30 315 -30 176 101 c 0,4,5
 38 230 38 230 38 441 c 0,6,7
 38 739 38 739 320 913 c 1,8,9
 220 1065 220 1065 220 1185 c 0,10,11
 220 1347 220 1347 328.5 1434 c 128,-1,12
 437 1521 437 1521 645 1521 c 0,13,14
 790 1521 790 1521 926 1480 c 1,15,-1
 926 1221 l 1,16,17
 794 1296 794 1296 664 1296 c 0,18,19
 502 1296 502 1296 502 1185 c 0,20,21
 502 1147 502 1147 532.5 1085.5 c 128,-1,22
 563 1024 563 1024 631 920 c 2,23,-1
 943 441 l 1,24,25
 988 515 988 515 988 635 c 0,26,27
 988 664 988 664 986 691.5 c 128,-1,28
 984 719 984 719 981 747 c 1,29,-1
 1215 747 l 1,30,-1
 1215 696 l 2,31,32
 1215 411 1215 411 1075 249 c 1,33,-1
 1234 0 l 1,34,-1
 920 0 l 1,35,-1
 872 71 l 1,0,1
441 732 m 1,36,37
 308 648 308 648 308 495 c 0,38,39
 308 370 308 370 386 292 c 0,40,41
 462 207 462 207 580 207 c 0,42,43
 635 207 635 207 693 230 c 1,44,45
 696 234 696 234 697.5 234 c 128,-1,46
 699 234 699 234 703 237 c 1,47,48
 716 244 716 244 727.5 249.5 c 128,-1,49
 739 255 739 255 751 262 c 1,50,-1
 441 732 l 1,36,37
EndSplineSet
EndChar
StartChar: quotesingle
Encoding: 39 39 10
Width: 1234
VWidth: 3393
Flags: W
HStem: 1473 20G<489 744>
VStem: 489 255<940 1493>
Fore
744 940 m 1,0,-1
 489 940 l 1,1,-1
 489 1493 l 1,2,-1
 744 1493 l 1,3,-1
 744 940 l 1,0,-1
EndSplineSet
EndChar
StartChar: parenleft
Encoding: 40 40 11
Width: 1234
VWidth: 3393
Flags: W
VStem: 383 281<297.172 987.93>
Fore
926 1554 m 1,0,1
 794 1314 794 1314 729 1091 c 128,-1,2
 664 868 664 868 664 645 c 256,3,4
 664 421 664 421 729 197 c 128,-1,5
 794 -27 794 -27 926 -272 c 1,6,-1
 696 -272 l 1,7,8
 537 -38 537 -38 460 186.5 c 128,-1,9
 383 411 383 411 383 645 c 0,10,11
 383 1107 383 1107 696 1554 c 1,12,-1
 926 1554 l 1,0,1
EndSplineSet
EndChar
StartChar: parenright
Encoding: 41 41 12
Width: 1234
VWidth: 3393
Flags: W
VStem: 570 282<293.628 995.118>
Fore
537 1554 m 1,0,1
 699 1327 699 1327 775.5 1102.5 c 128,-1,2
 852 878 852 878 852 645 c 256,3,4
 852 411 852 411 775.5 186.5 c 128,-1,5
 699 -38 699 -38 537 -272 c 1,6,-1
 308 -272 l 1,7,8
 441 -27 441 -27 505.5 197 c 128,-1,9
 570 421 570 421 570 645 c 256,10,11
 570 868 570 868 505.5 1091 c 128,-1,12
 441 1314 441 1314 308 1554 c 1,13,-1
 537 1554 l 1,0,1
EndSplineSet
EndChar
StartChar: asterisk
Encoding: 42 42 13
Width: 1234
VWidth: 3393
Flags: W
HStem: 1501 20G<529 703>
VStem: 529 174<570 913 1178 1521>
Fore
780 1046 m 1,0,-1
 1110 872 l 1,1,-1
 1032 729 l 1,2,-1
 703 913 l 1,3,-1
 703 570 l 1,4,-1
 529 570 l 1,5,-1
 529 913 l 1,6,-1
 197 729 l 1,7,-1
 123 872 l 1,8,-1
 454 1046 l 1,9,-1
 123 1218 l 1,10,-1
 197 1360 l 1,11,-1
 529 1178 l 1,12,-1
 529 1521 l 1,13,-1
 703 1521 l 1,14,-1
 703 1178 l 1,15,-1
 1032 1360 l 1,16,-1
 1110 1218 l 1,17,-1
 780 1046 l 1,0,-1
EndSplineSet
EndChar
StartChar: plus
Encoding: 43 43 14
Width: 1234
VWidth: 3393
Flags: W
HStem: 525 239<65 499 736 1168>
VStem: 499 237<91 525 764 1195>
Fore
736 764 m 1,0,-1
 1168 764 l 1,1,-1
 1168 525 l 1,2,-1
 736 525 l 1,3,-1
 736 91 l 1,4,-1
 499 91 l 1,5,-1
 499 525 l 1,6,-1
 65 525 l 1,7,-1
 65 764 l 1,8,-1
 499 764 l 1,9,-1
 499 1195 l 1,10,-1
 736 1195 l 1,11,-1
 736 764 l 1,0,-1
EndSplineSet
EndChar
StartChar: comma
Encoding: 44 44 15
Width: 1234
VWidth: 3393
Flags: W
VStem: 462 312<94 366>
Fore
774 366 m 1,0,-1
 774 94 l 1,1,-1
 580 -288 l 1,2,-1
 363 -288 l 1,3,-1
 462 94 l 1,4,-1
 462 366 l 1,5,-1
 774 366 l 1,0,-1
EndSplineSet
EndChar
StartChar: hyphen
Encoding: 45 45 16
Width: 1234
VWidth: 3393
Flags: W
HStem: 444 292<302 933>
Fore
933 736 m 1,0,-1
 933 444 l 1,1,-1
 302 444 l 1,2,-1
 302 736 l 1,3,-1
 933 736 l 1,0,-1
EndSplineSet
EndChar
StartChar: period
Encoding: 46 46 17
Width: 1234
VWidth: 3393
Flags: W
HStem: 0 366<447 784>
VStem: 447 337<0 366>
Fore
784 366 m 1,0,-1
 784 0 l 1,1,-1
 447 0 l 1,2,-1
 447 366 l 1,3,-1
 784 366 l 1,0,-1
EndSplineSet
EndChar
StartChar: slash
Encoding: 47 47 18
Width: 1234
VWidth: 3393
Flags: W
HStem: 1473 20G<890.653 1120>
VStem: 113 1007<-191 1493>
Fore
1120 1493 m 1,0,-1
 336 -191 l 1,1,-1
 113 -191 l 1,2,-1
 900 1493 l 1,3,-1
 1120 1493 l 1,0,-1
EndSplineSet
EndChar
StartChar: zero
Encoding: 48 48 19
Width: 1234
VWidth: 3393
Flags: W
HStem: -30 250<515.535 719.496> 621 251<530.191 704.81> 1273 248<515.535 719.496>
VStem: 123 298<354.079 1138.66> 492 252<659.191 833.81> 815 295<354.079 1138.45>
Fore
492 747 m 256,0,1
 492 797 492 797 529 835 c 256,2,3
 567 872 567 872 618 872 c 256,4,5
 668 872 668 872 706 835 c 256,6,7
 744 797 744 797 744 747 c 256,8,9
 744 696 744 696 706 658 c 256,10,11
 668 621 668 621 618 621 c 256,12,13
 567 621 567 621 529 658 c 256,14,15
 492 696 492 696 492 747 c 256,0,1
618 1273 m 256,16,17
 515 1273 515 1273 468 1147 c 128,-1,18
 421 1021 421 1021 421 747 c 256,19,20
 421 472 421 472 468 346 c 128,-1,21
 515 220 515 220 618 220 c 256,22,23
 719 220 719 220 767 346 c 128,-1,24
 815 472 815 472 815 747 c 0,25,26
 815 1014 815 1014 767 1147 c 0,27,28
 719 1273 719 1273 618 1273 c 256,16,17
123 747 m 0,29,30
 123 1521 123 1521 618 1521 c 0,31,32
 1110 1521 1110 1521 1110 747 c 0,33,34
 1110 -30 1110 -30 618 -30 c 0,35,36
 123 -30 123 -30 123 747 c 0,29,30
EndSplineSet
EndChar
StartChar: one
Encoding: 49 49 20
Width: 1234
VWidth: 3393
Flags: W
HStem: 0 262<187 519 804 1137> 1473 20G<431.958 804>
VStem: 519 285<262 1231>
Fore
519 262 m 1,0,-1
 519 1231 l 1,1,-1
 210 1153 l 1,2,-1
 210 1422 l 1,3,-1
 519 1493 l 1,4,-1
 804 1493 l 1,5,-1
 804 262 l 1,6,-1
 1137 262 l 1,7,-1
 1137 0 l 1,8,-1
 187 0 l 1,9,-1
 187 262 l 1,10,-1
 519 262 l 1,0,-1
EndSplineSet
EndChar
StartChar: two
Encoding: 50 50 21
Width: 1234
VWidth: 3393
Flags: W
HStem: 0 262<434 1065> 1289 232<338.646 690.249>
VStem: 764 298<947.751 1216.24>
Fore
1065 262 m 1,0,-1
 1065 0 l 1,1,-1
 116 0 l 1,2,-1
 116 252 l 1,3,-1
 275 421 l 2,4,5
 560 726 560 726 621 797 c 0,6,7
 699 882 699 882 731.5 948 c 128,-1,8
 764 1014 764 1014 764 1079 c 0,9,10
 764 1181 764 1181 702.5 1235 c 128,-1,11
 641 1289 641 1289 529 1289 c 0,12,13
 451 1289 451 1289 353 1257 c 128,-1,14
 255 1225 255 1225 146 1168 c 1,15,-1
 146 1442 l 1,16,17
 370 1521 370 1521 553 1521 c 0,18,19
 787 1521 787 1521 926 1412 c 0,20,21
 1062 1299 1062 1299 1062 1110 c 0,22,23
 1062 1021 1062 1021 1032 943 c 0,24,25
 1004 865 1004 865 930 774 c 0,26,27
 903 736 903 736 832 659.5 c 128,-1,28
 761 583 761 583 641 466 c 0,29,30
 573 401 573 401 522.5 349.5 c 128,-1,31
 472 298 472 298 434 262 c 1,32,-1
 1065 262 l 1,0,-1
EndSplineSet
EndChar
StartChar: three
Encoding: 51 51 22
Width: 1234
VWidth: 3393
Flags: W
HStem: -30 254<258.15 733.436> 668 262<391 717.082> 1273 248<286.127 715.256>
VStem: 780 285<986.505 1210.5> 819 285<302.251 577.07>
Fore
391 668 m 1,0,-1
 391 930 l 1,1,-1
 550 930 l 2,2,3
 658 930 658 930 719 973.5 c 128,-1,4
 780 1017 780 1017 780 1097 c 0,5,6
 780 1178 780 1178 719 1225.5 c 128,-1,7
 658 1273 658 1273 550 1273 c 0,8,9
 386 1273 386 1273 169 1188 c 1,10,-1
 169 1460 l 1,11,12
 379 1521 379 1521 567 1521 c 0,13,14
 800 1521 800 1521 933 1418 c 256,15,16
 1065 1317 1065 1317 1065 1133 c 0,17,18
 1065 1001 1065 1001 990.5 916.5 c 128,-1,19
 916 832 916 832 774 804 c 1,20,21
 936 777 936 777 1020 678.5 c 128,-1,22
 1104 580 1104 580 1104 418 c 0,23,24
 1104 197 1104 197 963 83.5 c 128,-1,25
 822 -30 822 -30 557 -30 c 0,26,27
 333 -30 333 -30 126 45 c 1,28,-1
 126 320 l 1,29,30
 323 224 323 224 557 224 c 0,31,32
 679 224 679 224 749 278.5 c 128,-1,33
 819 333 819 333 819 428 c 0,34,35
 819 543 819 543 749 605.5 c 128,-1,36
 679 668 679 668 550 668 c 2,37,-1
 391 668 l 1,0,-1
EndSplineSet
EndChar
StartChar: four
Encoding: 52 52 23
Width: 1234
VWidth: 3393
Flags: W
HStem: 0 21G<696 978> 323 254<320 696 978 1143> 1473 20G<655.186 978>
VStem: 696 282<0 323 577 1168>
Fore
320 577 m 1,0,-1
 696 577 l 1,1,-1
 696 1168 l 1,2,-1
 320 577 l 1,0,-1
978 1493 m 1,3,-1
 978 577 l 1,4,-1
 1143 577 l 1,5,-1
 1143 323 l 1,6,-1
 978 323 l 1,7,-1
 978 0 l 1,8,-1
 696 0 l 1,9,-1
 696 323 l 1,10,-1
 101 323 l 1,11,-1
 101 608 l 1,12,-1
 668 1493 l 1,13,-1
 978 1493 l 1,3,-1
EndSplineSet
EndChar
StartChar: five
Encoding: 53 53 24
Width: 1234
VWidth: 3393
Flags: W
HStem: -30 250<326.209 694.46> 736 248<432.254 690.139> 1234 259<431 1004>
VStem: 194 237<958 1234> 807 290<321.169 626.773>
Fore
1004 1493 m 1,0,-1
 1004 1234 l 1,1,-1
 431 1234 l 1,2,-1
 431 958 l 1,3,4
 499 984 499 984 597 984 c 0,5,6
 819 984 819 984 958 845 c 0,7,8
 1097 699 1097 699 1097 479 c 0,9,10
 1097 240 1097 240 943 109 c 0,11,12
 794 -30 794 -30 537 -30 c 0,13,14
 441 -30 441 -30 342.5 -13.5 c 128,-1,15
 244 3 244 3 143 33 c 1,16,-1
 143 302 l 1,17,18
 312 220 312 220 489 220 c 0,19,20
 807 220 807 220 807 479 c 0,21,22
 807 600 807 600 726 664 c 0,23,24
 651 736 651 736 512 736 c 0,25,26
 350 736 350 736 194 658 c 1,27,-1
 194 1493 l 1,28,-1
 1004 1493 l 1,0,-1
EndSplineSet
EndChar
StartChar: six
Encoding: 54 54 25
Width: 1234
VWidth: 3393
Flags: W
HStem: -30 237<519.964 771.387> 751 237<516.723 764.631> 1283 238<573.538 936.424>
VStem: 133 275<744 1098.68> 842 281<284.471 667.887>
Fore
645 751 m 0,0,1
 447 751 447 751 447 479 c 256,2,3
 447 207 447 207 645 207 c 256,4,5
 842 207 842 207 842 479 c 0,6,7
 842 608 842 608 790.5 679.5 c 128,-1,8
 739 751 739 751 645 751 c 0,0,1
1032 1191 m 1,9,10
 875 1283 875 1283 739 1283 c 0,11,12
 418 1283 418 1283 408 855 c 1,13,14
 505 988 505 988 703 988 c 0,15,16
 903 988 903 988 1014 858 c 0,17,18
 1123 729 1123 729 1123 495 c 0,19,20
 1123 244 1123 244 998 109 c 0,21,22
 878 -30 878 -30 651 -30 c 0,23,24
 376 -30 376 -30 255 152 c 256,25,26
 133 336 133 336 133 744 c 0,27,28
 133 1521 133 1521 736 1521 c 0,29,30
 878 1521 878 1521 1032 1460 c 1,31,-1
 1032 1191 l 1,9,10
EndSplineSet
EndChar
StartChar: seven
Encoding: 55 55 26
Width: 1234
VWidth: 3393
Flags: W
HStem: 0 21G<272 580.869> 1234 259<136 761>
Fore
1079 1493 m 1,0,-1
 1079 1286 l 1,1,-1
 573 0 l 1,2,-1
 272 0 l 1,3,-1
 761 1234 l 1,4,-1
 136 1234 l 1,5,-1
 136 1493 l 1,6,-1
 1079 1493 l 1,0,-1
EndSplineSet
EndChar
StartChar: eight
Encoding: 56 56 27
Width: 1234
VWidth: 3393
Flags: W
HStem: -30 240<477.113 753.461> 664 239<486.626 746.374> 1283 238<483.789 748.114>
VStem: 129 269<289.737 588.24> 166 262<963.109 1227.37> 804 265<964.57 1227.01> 838 269<294.737 585.59>
Fore
618 664 m 256,0,1
 519 664 519 664 457 605 c 0,2,3
 398 547 398 547 398 437 c 0,4,5
 398 333 398 333 457 272 c 256,6,7
 519 210 519 210 618 210 c 256,8,9
 716 210 716 210 777 275 c 0,10,11
 838 336 838 336 838 437 c 0,12,13
 838 543 838 543 777 605 c 256,14,15
 716 664 716 664 618 664 c 256,0,1
398 790 m 1,16,17
 166 875 166 875 166 1120 c 0,18,19
 166 1302 166 1302 288 1415 c 0,20,21
 408 1521 408 1521 618 1521 c 256,22,23
 828 1521 828 1521 946 1415 c 0,24,25
 1069 1302 1069 1302 1069 1120 c 0,26,27
 1069 875 1069 875 842 790 c 1,28,29
 961 757 961 757 1036 655 c 0,30,31
 1107 560 1107 560 1107 421 c 0,32,33
 1107 207 1107 207 978 88 c 256,34,35
 848 -30 848 -30 618 -30 c 256,36,37
 386 -30 386 -30 258 88 c 0,38,39
 129 204 129 204 129 421 c 0,40,41
 129 560 129 560 200.5 657 c 128,-1,42
 272 754 272 754 398 790 c 1,16,17
428 1097 m 256,43,44
 428 1007 428 1007 478.5 955 c 128,-1,45
 529 903 529 903 618 903 c 256,46,47
 706 903 706 903 755 955 c 128,-1,48
 804 1007 804 1007 804 1097 c 256,49,50
 804 1185 804 1185 755 1234 c 128,-1,51
 706 1283 706 1283 618 1283 c 256,52,53
 529 1283 529 1283 478.5 1234 c 128,-1,54
 428 1185 428 1185 428 1097 c 256,43,44
EndSplineSet
EndChar
StartChar: nine
Encoding: 57 57 28
Width: 1234
VWidth: 3393
Flags: W
HStem: -41 241<293.281 660.959> 495 249<461.437 717.142> 1283 227<463.618 717.199>
VStem: 113 278<821.968 1206.29> 825 279<396.062 736>
Fore
204 288 m 1,0,1
 356 200 356 200 495 200 c 0,2,3
 815 200 815 200 825 625 c 1,4,5
 736 495 736 495 534 495 c 0,6,7
 333 495 333 495 220 621 c 0,8,9
 113 751 113 751 113 984 c 0,10,11
 113 1234 113 1234 234 1370 c 0,12,13
 356 1510 356 1510 583 1510 c 0,14,15
 855 1510 855 1510 981 1327 c 0,16,17
 1104 1143 1104 1143 1104 736 c 0,18,19
 1104 -41 1104 -41 499 -41 c 0,20,21
 356 -41 356 -41 204 20 c 1,22,-1
 204 288 l 1,0,1
590 744 m 0,23,24
 787 744 787 744 787 1014 c 0,25,26
 787 1283 787 1283 590 1283 c 0,27,28
 391 1283 391 1283 391 1014 c 0,29,30
 391 744 391 744 590 744 c 0,23,24
EndSplineSet
EndChar
StartChar: colon
Encoding: 58 58 29
Width: 1234
VWidth: 3393
Flags: W
HStem: 0 366<447 784> 699 366<447 784>
VStem: 447 337<0 366 699 1065>
Fore
784 1065 m 1,0,-1
 784 699 l 1,1,-1
 447 699 l 1,2,-1
 447 1065 l 1,3,-1
 784 1065 l 1,0,-1
784 366 m 1,4,-1
 784 0 l 1,5,-1
 447 0 l 1,6,-1
 447 366 l 1,7,-1
 784 366 l 1,4,-1
EndSplineSet
EndChar
StartChar: semicolon
Encoding: 59 59 30
Width: 1234
VWidth: 3393
Flags: W
HStem: 699 366<447 784>
VStem: 447 337<94 366 699 1065>
Fore
784 366 m 1,0,-1
 784 94 l 1,1,-1
 587 -288 l 1,2,-1
 370 -288 l 1,3,-1
 447 94 l 1,4,-1
 447 366 l 1,5,-1
 784 366 l 1,0,-1
784 1065 m 1,6,-1
 784 699 l 1,7,-1
 447 699 l 1,8,-1
 447 1065 l 1,9,-1
 784 1065 l 1,6,-1
EndSplineSet
EndChar
StartChar: less
Encoding: 60 60 31
Width: 1234
VWidth: 3393
Flags: W
Fore
350 641 m 1,0,-1
 1147 360 l 1,1,-1
 1147 109 l 1,2,-1
 88 525 l 1,3,-1
 88 761 l 1,4,-1
 1147 1178 l 1,5,-1
 1147 926 l 1,6,-1
 350 641 l 1,0,-1
EndSplineSet
EndChar
StartChar: equal
Encoding: 61 61 32
Width: 1234
VWidth: 3393
Flags: W
HStem: 295 239<88 1147> 754 234<88 1147>
Fore
1147 534 m 1,0,-1
 1147 295 l 1,1,-1
 88 295 l 1,2,-1
 88 534 l 1,3,-1
 1147 534 l 1,0,-1
1147 988 m 1,4,-1
 1147 754 l 1,5,-1
 88 754 l 1,6,-1
 88 988 l 1,7,-1
 1147 988 l 1,4,-1
EndSplineSet
EndChar
StartChar: greater
Encoding: 62 62 33
Width: 1234
VWidth: 3393
Flags: W
Fore
88 1178 m 1,0,-1
 1147 761 l 1,1,-1
 1147 525 l 1,2,-1
 88 109 l 1,3,-1
 88 360 l 1,4,-1
 882 641 l 1,5,-1
 88 926 l 1,6,-1
 88 1178 l 1,0,-1
EndSplineSet
EndChar
StartChar: question
Encoding: 63 63 34
Width: 1234
VWidth: 3393
Flags: W
HStem: 0 282<441 709> 1140 21G<234 282> 1283 238<415.04 743.441>
VStem: 441 268<0 282 401 674.713> 780 285<1046.66 1246.67>
Fore
709 282 m 1,0,-1
 709 0 l 1,1,-1
 441 0 l 1,2,-1
 441 282 l 1,3,-1
 709 282 l 1,0,-1
441 401 m 1,4,-1
 441 557 l 2,5,6
 441 655 441 655 472 726 c 0,7,8
 505 797 505 797 583 872 c 2,9,-1
 673 961 l 2,10,11
 739 1029 739 1029 757 1062 c 0,12,13
 780 1100 780 1100 780 1147 c 0,14,15
 780 1283 780 1283 597 1283 c 0,16,17
 512 1283 512 1283 421 1245.5 c 128,-1,18
 330 1208 330 1208 234 1140 c 1,19,-1
 234 1408 l 1,20,21
 428 1521 428 1521 635 1521 c 0,22,23
 838 1521 838 1521 949 1428 c 0,24,25
 1065 1334 1065 1334 1065 1168 c 0,26,27
 1065 1089 1065 1089 1032 1024 c 0,28,29
 1014 994 1014 994 981.5 955 c 128,-1,30
 949 916 949 916 903 868 c 2,31,-1
 815 784 l 2,32,33
 754 722 754 722 729 676 c 0,34,35
 709 635 709 635 709 570 c 2,36,-1
 709 525 l 1,37,-1
 709 401 l 1,38,-1
 441 401 l 1,4,-1
EndSplineSet
EndChar
StartChar: at
Encoding: 64 64 35
Width: 1234
VWidth: 3393
Flags: W
HStem: -320 194<539.71 975.105> 116 186<665.02 904.087> 787 187<665.02 904.778> 1205 194<492.64 852.933>
VStem: 7 197<256.551 845.123> 386 207<377.505 712.465> 964 196<136 217 878 1094.4>
Fore
974 547 m 0,0,1
 974 658 974 658 923 722.5 c 128,-1,2
 872 787 872 787 784 787 c 256,3,4
 696 787 696 787 644.5 722.5 c 128,-1,5
 593 658 593 658 593 547 c 0,6,7
 593 431 593 431 644.5 366.5 c 128,-1,8
 696 302 696 302 784 302 c 256,9,10
 872 302 872 302 923 366.5 c 128,-1,11
 974 431 974 431 974 547 c 0,0,1
964 136 m 1,12,-1
 964 217 l 1,13,14
 893 116 893 116 751 116 c 0,15,16
 583 116 583 116 486 234 c 0,17,18
 386 346 386 346 386 547 c 0,19,20
 386 744 386 744 486 855 c 0,21,22
 583 974 583 974 751 974 c 0,23,24
 896 974 896 974 964 878 c 1,25,-1
 964 920 l 2,26,27
 964 1056 964 1056 891.5 1130.5 c 128,-1,28
 819 1205 819 1205 676 1205 c 0,29,30
 469 1205 469 1205 336 1021 c 256,31,32
 204 838 204 838 204 543 c 0,33,34
 204 244 204 244 356 55 c 0,35,36
 505 -126 505 -126 764 -126 c 0,37,38
 926 -126 926 -126 1062 -33 c 1,39,-1
 1153 -210 l 1,40,41
 988 -320 988 -320 774 -320 c 0,42,43
 424 -320 424 -320 214 -85 c 0,44,45
 7 143 7 143 7 543 c 0,46,47
 7 933 7 933 194 1163 c 0,48,49
 383 1399 383 1399 689 1399 c 0,50,51
 910 1399 910 1399 1032 1266 c 0,52,53
 1160 1137 1160 1137 1160 906 c 2,54,-1
 1160 136 l 1,55,-1
 964 136 l 1,12,-1
EndSplineSet
EndChar
StartChar: A
Encoding: 65 65 36
Width: 1234
VWidth: 3393
Flags: W
HStem: 0 21G<33 334.757 901.081 1201> 370 245<479 757> 1473 20G<431.588 802.412>
Fore
479 615 m 1,0,-1
 757 615 l 1,1,-1
 618 1225 l 1,2,-1
 479 615 l 1,0,-1
797 1493 m 1,3,-1
 1201 0 l 1,4,-1
 906 0 l 1,5,-1
 815 370 l 1,6,-1
 418 370 l 1,7,-1
 330 0 l 1,8,-1
 33 0 l 1,9,-1
 437 1493 l 1,10,-1
 797 1493 l 1,3,-1
EndSplineSet
EndChar
StartChar: B
Encoding: 66 66 37
Width: 1234
VWidth: 3393
Flags: W
HStem: 0 237<411 798.592> 679 234<411 765.485> 1263 233<411 763.939>
VStem: 126 285<237 679 913 1263> 815 292<956.44 1212.26> 862 298<298.908 609.789>
Fore
411 237 m 1,0,-1
 608 237 l 2,1,2
 754 237 754 237 804 285 c 0,3,4
 862 333 862 333 862 451 c 0,5,6
 862 573 862 573 803 626 c 128,-1,7
 744 679 744 679 608 679 c 2,8,-1
 411 679 l 1,9,-1
 411 237 l 1,0,-1
411 913 m 1,10,-1
 608 913 l 2,11,12
 719 913 719 913 767 953.5 c 128,-1,13
 815 994 815 994 815 1085 c 256,14,15
 815 1178 815 1178 765.5 1220.5 c 128,-1,16
 716 1263 716 1263 608 1263 c 2,17,-1
 411 1263 l 1,18,-1
 411 913 l 1,10,-1
608 1496 m 2,19,20
 1107 1496 1107 1496 1107 1120 c 0,21,22
 1107 828 1107 828 815 800 c 1,23,24
 1160 767 1160 767 1160 411 c 0,25,26
 1160 197 1160 197 1032 98 c 256,27,28
 903 0 903 0 608 0 c 2,29,-1
 126 0 l 1,30,-1
 126 1496 l 1,31,-1
 608 1496 l 2,19,20
EndSplineSet
EndChar
StartChar: C
Encoding: 67 67 38
Width: 1234
VWidth: 3393
Flags: W
HStem: -30 267<621.864 958.783> 1120 21G<1043 1082> 1256 265<621.226 944.218>
VStem: 152 305<446.836 1045.79>
Fore
1082 45 m 1,0,1
 933 -30 933 -30 774 -30 c 0,2,3
 472 -30 472 -30 312 169 c 0,4,5
 152 363 152 363 152 747 c 0,6,7
 152 1127 152 1127 310.5 1324 c 128,-1,8
 469 1521 469 1521 774 1521 c 0,9,10
 946 1521 946 1521 1082 1448 c 1,11,-1
 1082 1120 l 1,12,13
 1004 1191 1004 1191 934.5 1223.5 c 128,-1,14
 865 1256 865 1256 787 1256 c 0,15,16
 457 1256 457 1256 457 747 c 256,17,18
 457 237 457 237 787 237 c 0,19,20
 936 237 936 237 1082 370 c 1,21,-1
 1082 45 l 1,0,1
EndSplineSet
EndChar
StartChar: D
Encoding: 68 68 39
Width: 1234
VWidth: 3393
Flags: W
HStem: 0 265<431 692.234> 1228 265<431 692.889>
VStem: 136 295<265 1228> 835 308<434.422 1062.45>
Fore
431 265 m 1,0,-1
 512 265 l 2,1,2
 689 265 689 265 761 376 c 0,3,4
 835 482 835 482 835 751 c 0,5,6
 835 1011 835 1011 761 1120 c 0,7,8
 689 1228 689 1228 512 1228 c 2,9,-1
 431 1228 l 1,10,-1
 431 265 l 1,0,-1
454 1493 m 2,11,12
 825 1493 825 1493 981 1321 c 0,13,14
 1143 1147 1143 1147 1143 751 c 0,15,16
 1143 350 1143 350 981 176 c 0,17,18
 825 0 825 0 454 0 c 2,19,-1
 136 0 l 1,20,-1
 136 1493 l 1,21,-1
 454 1493 l 2,11,12
EndSplineSet
EndChar
StartChar: E
Encoding: 69 69 40
Width: 1234
VWidth: 3393
Flags: W
HStem: 0 262<466 1100> 651 262<466 1039> 1234 259<466 1100>
VStem: 169 297<262 651 913 1234>
Fore
169 0 m 1,0,-1
 169 1493 l 1,1,-1
 1100 1493 l 1,2,-1
 1100 1234 l 1,3,-1
 466 1234 l 1,4,-1
 466 913 l 1,5,-1
 1039 913 l 1,6,-1
 1039 651 l 1,7,-1
 466 651 l 1,8,-1
 466 262 l 1,9,-1
 1100 262 l 1,10,-1
 1100 0 l 1,11,-1
 169 0 l 1,0,-1
EndSplineSet
EndChar
StartChar: F
Encoding: 70 70 41
Width: 1234
VWidth: 3393
Flags: W
HStem: 0 21G<184 479> 651 262<479 1056> 1234 259<479 1114>
VStem: 184 295<0 651 913 1234>
Fore
479 1234 m 1,0,-1
 479 913 l 1,1,-1
 1056 913 l 1,2,-1
 1056 651 l 1,3,-1
 479 651 l 1,4,-1
 479 0 l 1,5,-1
 184 0 l 1,6,-1
 184 1493 l 1,7,-1
 1114 1493 l 1,8,-1
 1114 1234 l 1,9,-1
 479 1234 l 1,0,-1
EndSplineSet
EndChar
StartChar: G
Encoding: 71 71 42
Width: 1234
VWidth: 3393
Flags: W
HStem: -30 267<584.861 871.068> 557 247<673 872> 1256 265<592.835 943.119>
VStem: 119 305<443.583 1042.5> 872 258<272 557>
Fore
872 557 m 1,0,-1
 673 557 l 1,1,-1
 673 804 l 1,2,-1
 1130 804 l 1,3,-1
 1130 119 l 1,4,5
 961 -30 961 -30 722 -30 c 0,6,7
 434 -30 434 -30 275 172 c 0,8,9
 119 373 119 373 119 747 c 0,10,11
 119 1123 119 1123 275 1324 c 0,12,13
 437 1521 437 1521 736 1521 c 0,14,15
 923 1521 923 1521 1079 1422 c 1,16,-1
 1079 1097 l 1,17,18
 949 1256 949 1256 761 1256 c 0,19,20
 424 1256 424 1256 424 747 c 0,21,22
 424 495 424 495 503.5 366 c 128,-1,23
 583 237 583 237 736 237 c 0,24,25
 835 237 835 237 872 272 c 1,26,-1
 872 557 l 1,0,-1
EndSplineSet
EndChar
StartChar: H
Encoding: 72 72 43
Width: 1234
VWidth: 3393
Flags: W
HStem: 0 21G<136 431 800 1097> 664 262<431 800> 1473 20G<136 431 800 1097>
VStem: 136 295<0 664 926 1493> 800 297<0 664 926 1493>
Fore
431 1493 m 1,0,-1
 431 926 l 1,1,-1
 800 926 l 1,2,-1
 800 1493 l 1,3,-1
 1097 1493 l 1,4,-1
 1097 0 l 1,5,-1
 800 0 l 1,6,-1
 800 664 l 1,7,-1
 431 664 l 1,8,-1
 431 0 l 1,9,-1
 136 0 l 1,10,-1
 136 1493 l 1,11,-1
 431 1493 l 1,0,-1
EndSplineSet
EndChar
StartChar: I
Encoding: 73 73 44
Width: 1234
VWidth: 3393
Flags: W
HStem: 0 262<172 469 764 1062> 1234 259<172 469 764 1062>
VStem: 469 295<262 1234>
Fore
172 1493 m 1,0,-1
 1062 1493 l 1,1,-1
 1062 1234 l 1,2,-1
 764 1234 l 1,3,-1
 764 262 l 1,4,-1
 1062 262 l 1,5,-1
 1062 0 l 1,6,-1
 172 0 l 1,7,-1
 172 262 l 1,8,-1
 469 262 l 1,9,-1
 469 1234 l 1,10,-1
 172 1234 l 1,11,-1
 172 1493 l 1,0,-1
EndSplineSet
EndChar
StartChar: J
Encoding: 74 74 45
Width: 1234
VWidth: 3393
Flags: W
HStem: -30 267<294.981 646.638> 1234 259<353 713>
VStem: 713 294<308.726 1234>
Fore
109 418 m 1,0,1
 282 237 282 237 489 237 c 0,2,3
 608 237 608 237 660.5 293.5 c 128,-1,4
 713 350 713 350 713 479 c 2,5,-1
 713 1234 l 1,6,-1
 353 1234 l 1,7,-1
 353 1493 l 1,8,-1
 1007 1493 l 1,9,-1
 1007 479 l 2,10,11
 1007 204 1007 204 893 88 c 0,12,13
 780 -30 780 -30 515 -30 c 0,14,15
 326 -30 326 -30 109 75 c 1,16,-1
 109 418 l 1,0,1
EndSplineSet
EndChar
StartChar: K
Encoding: 75 75 46
Width: 1234
VWidth: 3393
Flags: W
HStem: 0 21G<119 414 889.391 1225> 1473 20G<119 414 859.373 1208>
VStem: 119 295<0 505 903 1493>
Fore
414 1493 m 1,0,-1
 414 903 l 1,1,-1
 875 1493 l 1,2,-1
 1208 1493 l 1,3,-1
 736 906 l 1,4,-1
 1225 0 l 1,5,-1
 900 0 l 1,6,-1
 543 673 l 1,7,-1
 414 505 l 1,8,-1
 414 0 l 1,9,-1
 119 0 l 1,10,-1
 119 1493 l 1,11,-1
 414 1493 l 1,0,-1
EndSplineSet
EndChar
StartChar: L
Encoding: 76 76 47
Width: 1234
VWidth: 3393
Flags: W
HStem: 0 262<519 1153> 1473 20G<224 519>
VStem: 224 295<262 1493>
Fore
224 1493 m 1,0,-1
 519 1493 l 1,1,-1
 519 262 l 1,2,-1
 1153 262 l 1,3,-1
 1153 0 l 1,4,-1
 224 0 l 1,5,-1
 224 1493 l 1,0,-1
EndSplineSet
EndChar
StartChar: M
Encoding: 77 77 48
Width: 1234
VWidth: 3393
Flags: W
HStem: 0 21G<85 340 893 1147> 1473 20G<85 442.527 788.626 1147>
VStem: 85 255<0 1198> 893 254<0 1198>
Fore
437 1493 m 1,0,-1
 618 838 l 1,1,-1
 794 1493 l 1,2,-1
 1147 1493 l 1,3,-1
 1147 0 l 1,4,-1
 893 0 l 1,5,-1
 893 1198 l 1,6,-1
 736 543 l 1,7,-1
 502 543 l 1,8,-1
 340 1198 l 1,9,-1
 340 0 l 1,10,-1
 85 0 l 1,11,-1
 85 1493 l 1,12,-1
 437 1493 l 1,0,-1
EndSplineSet
EndChar
StartChar: N
Encoding: 78 78 49
Width: 1234
VWidth: 3393
Flags: W
HStem: 0 21G<119 379 789.295 1114> 1473 20G<119 444.65 852 1114>
VStem: 119 260<0 1085> 852 262<408 1493>
Fore
437 1493 m 1,0,-1
 852 408 l 1,1,-1
 852 1493 l 1,2,-1
 1114 1493 l 1,3,-1
 1114 0 l 1,4,-1
 797 0 l 1,5,-1
 379 1085 l 1,6,-1
 379 0 l 1,7,-1
 119 0 l 1,8,-1
 119 1493 l 1,9,-1
 437 1493 l 1,0,-1
EndSplineSet
EndChar
StartChar: O
Encoding: 79 79 50
Width: 1234
VWidth: 3393
Flags: W
HStem: -30 267<501.532 732.679> 1256 265<504.893 728.811>
VStem: 91 310<373.134 1121.11> 835 308<373.134 1121.11>
Fore
618 1256 m 0,0,1
 502 1256 502 1256 451 1137 c 0,2,3
 401 1014 401 1014 401 747 c 256,4,5
 401 479 401 479 451 356 c 0,6,7
 502 237 502 237 618 237 c 0,8,9
 729 237 729 237 784 356 c 0,10,11
 835 479 835 479 835 747 c 256,12,13
 835 1014 835 1014 784 1137 c 0,14,15
 726 1256 726 1256 618 1256 c 0,0,1
91 747 m 0,16,17
 91 1521 91 1521 618 1521 c 256,18,19
 1143 1521 1143 1521 1143 747 c 0,20,21
 1143 363 1143 363 1010.5 166.5 c 128,-1,22
 878 -30 878 -30 618 -30 c 256,23,24
 356 -30 356 -30 223.5 166.5 c 128,-1,25
 91 363 91 363 91 747 c 0,16,17
EndSplineSet
EndChar
StartChar: P
Encoding: 80 80 51
Width: 1234
VWidth: 3393
Flags: W
HStem: 0 21G<162 457> 560 247<457 766.161> 1246 247<457 769.384>
VStem: 162 295<0 560 807 1246> 842 305<874.416 1180.79>
Fore
457 807 m 1,0,-1
 580 807 l 2,1,2
 726 807 726 807 780 858 c 0,3,4
 842 906 842 906 842 1029 c 0,5,6
 842 1147 842 1147 780 1198 c 0,7,8
 729 1246 729 1246 580 1246 c 2,9,-1
 457 1246 l 1,10,-1
 457 807 l 1,0,-1
567 1493 m 2,11,12
 882 1493 882 1493 1011 1385 c 0,13,14
 1147 1273 1147 1273 1147 1029 c 0,15,16
 1147 780 1147 780 1011 668 c 0,17,18
 875 560 875 560 567 560 c 2,19,-1
 457 560 l 1,20,-1
 457 0 l 1,21,-1
 162 0 l 1,22,-1
 162 1493 l 1,23,-1
 567 1493 l 2,11,12
EndSplineSet
EndChar
StartChar: Q
Encoding: 81 81 52
Width: 1234
VWidth: 3393
Flags: W
HStem: -30 21G<485.5 620> 1256 265<509.023 726.563>
VStem: 91 310<373.134 1121.11> 835 308<373.37 1121.11>
Fore
658 -23 m 1,0,1
 641 -27 641 -27 633 -28.5 c 128,-1,2
 625 -30 625 -30 615 -30 c 0,3,4
 356 -30 356 -30 223.5 166.5 c 128,-1,5
 91 363 91 363 91 747 c 0,6,7
 91 1521 91 1521 618 1521 c 256,8,9
 1143 1521 1143 1521 1143 747 c 0,10,11
 1143 482 1143 482 1078.5 305.5 c 128,-1,12
 1014 129 1014 129 896 51 c 1,13,-1
 1082 -133 l 1,14,-1
 878 -282 l 1,15,-1
 658 -23 l 1,0,1
618 1256 m 0,16,17
 502 1256 502 1256 451 1137 c 0,18,19
 401 1014 401 1014 401 747 c 256,20,21
 401 479 401 479 451 356 c 0,22,23
 502 237 502 237 618 237 c 0,24,25
 729 237 729 237 784 356 c 0,26,27
 835 479 835 479 835 747 c 256,28,29
 835 1014 835 1014 784 1137 c 0,30,31
 726 1256 726 1256 618 1256 c 0,16,17
EndSplineSet
EndChar
StartChar: R
Encoding: 82 82 53
Width: 1234
VWidth: 3393
Flags: W
HStem: 0 21G<133 428 900.372 1234> 590 248<428 623.656> 1246 247<428 731.558>
VStem: 133 295<0 590 838 1246> 794 306<894.24 1190.24>
Fore
807 706 m 1,0,1
 852 696 852 696 882 664 c 0,2,3
 920 628 920 628 964 537 c 2,4,-1
 1234 0 l 1,5,-1
 910 0 l 1,6,-1
 729 376 l 1,7,8
 722 401 722 401 709 421 c 0,9,10
 628 590 628 590 522 590 c 2,11,-1
 428 590 l 1,12,-1
 428 0 l 1,13,-1
 133 0 l 1,14,-1
 133 1493 l 1,15,-1
 560 1493 l 2,16,17
 848 1493 848 1493 974 1392 c 256,18,19
 1100 1289 1100 1289 1100 1059 c 0,20,21
 1100 906 1100 906 1024.5 814 c 128,-1,22
 949 722 949 722 807 706 c 1,0,1
428 838 m 1,23,-1
 567 838 l 2,24,25
 689 838 689 838 741.5 885.5 c 128,-1,26
 794 933 794 933 794 1042 c 256,27,28
 794 1150 794 1150 741.5 1198 c 128,-1,29
 689 1246 689 1246 567 1246 c 2,30,-1
 428 1246 l 1,31,-1
 428 838 l 1,23,-1
EndSplineSet
EndChar
StartChar: S
Encoding: 83 83 54
Width: 1234
VWidth: 3393
Flags: W
HStem: -30 244<354.756 742.858> 1140 21G<930.5 1029> 1276 245<470.555 860.264>
VStem: 129 289<1005.44 1223.85> 810 300<278.509 527.691>
Fore
509 655 m 1,0,1
 285 739 285 739 207 835 c 256,2,3
 129 930 129 930 129 1085 c 0,4,5
 129 1286 129 1286 258 1405 c 0,6,7
 386 1521 386 1521 618 1521 c 0,8,9
 825 1521 825 1521 1029 1428 c 1,10,-1
 1029 1140 l 1,11,12
 832 1276 832 1276 641 1276 c 0,13,14
 418 1276 418 1276 418 1110 c 0,15,16
 418 1049 418 1049 457 1007 c 0,17,18
 499 971 499 971 635 920 c 2,19,-1
 761 872 l 2,20,21
 943 804 943 804 1026.5 695.5 c 128,-1,22
 1110 587 1110 587 1110 421 c 0,23,24
 1110 -30 1110 -30 573 -30 c 0,25,26
 353 -30 353 -30 136 75 c 1,27,-1
 136 379 l 1,28,29
 366 214 366 214 583 214 c 0,30,31
 693 214 693 214 751.5 264.5 c 128,-1,32
 810 315 810 315 810 404 c 0,33,34
 810 540 810 540 655 600 c 2,35,-1
 509 655 l 1,0,1
EndSplineSet
EndChar
StartChar: T
Encoding: 84 84 55
Width: 1234
VWidth: 3393
Flags: W
HStem: 0 21G<469 764> 1234 259<91 469 764 1143>
VStem: 469 295<0 1234>
Fore
469 0 m 1,0,-1
 469 1234 l 1,1,-1
 91 1234 l 1,2,-1
 91 1493 l 1,3,-1
 1143 1493 l 1,4,-1
 1143 1234 l 1,5,-1
 764 1234 l 1,6,-1
 764 0 l 1,7,-1
 469 0 l 1,0,-1
EndSplineSet
EndChar
StartChar: U
Encoding: 85 85 56
Width: 1234
VWidth: 3393
Flags: W
HStem: -30 267<478.836 752.278> 1473 20G<104 401 832 1127>
VStem: 104 297<318.391 1493> 832 295<318.391 1493>
Fore
104 1493 m 1,0,-1
 401 1493 l 1,1,-1
 401 479 l 2,2,3
 401 366 401 366 458 301.5 c 128,-1,4
 515 237 515 237 618 237 c 256,5,6
 719 237 719 237 775.5 301.5 c 128,-1,7
 832 366 832 366 832 479 c 2,8,-1
 832 1493 l 1,9,-1
 1127 1493 l 1,10,-1
 1127 553 l 2,11,12
 1127 249 1127 249 1004 109 c 0,13,14
 886 -30 886 -30 618 -30 c 256,15,16
 350 -30 350 -30 227 109 c 256,17,18
 104 249 104 249 104 553 c 2,19,-1
 104 1493 l 1,0,-1
EndSplineSet
EndChar
StartChar: V
Encoding: 86 86 57
Width: 1234
VWidth: 3393
Flags: W
HStem: 0 21G<409.231 826.769> 1473 20G<58 357.26 873.82 1178>
Fore
878 1493 m 1,0,-1
 1178 1493 l 1,1,-1
 822 0 l 1,2,-1
 414 0 l 1,3,-1
 58 1493 l 1,4,-1
 353 1493 l 1,5,-1
 618 249 l 1,6,-1
 878 1493 l 1,0,-1
EndSplineSet
EndChar
StartChar: W
Encoding: 87 87 58
Width: 1234
VWidth: 3393
Flags: W
HStem: 0 21G<181.535 461.107 782.689 1064.3> 1473 20G<0 259.973 972.466 1234>
VStem: 0 258<1240.33 1467.68>
Fore
258 1493 m 1,0,-1
 366 398 l 1,1,-1
 495 1107 l 1,2,-1
 739 1107 l 1,3,-1
 890 398 l 1,4,-1
 974 1493 l 1,5,-1
 1234 1493 l 1,6,-1
 1062 0 l 1,7,-1
 787 0 l 1,8,-1
 618 784 l 1,9,-1
 457 0 l 1,10,-1
 184 0 l 1,11,-1
 0 1493 l 1,12,-1
 258 1493 l 1,0,-1
EndSplineSet
EndChar
StartChar: X
Encoding: 88 88 59
Width: 1234
VWidth: 3393
Flags: W
HStem: 0 21G<27 344.515 891.485 1208> 1473 20G<41 354.555 878.571 1195>
Fore
903 0 m 1,0,-1
 618 495 l 1,1,-1
 333 0 l 1,2,-1
 27 0 l 1,3,-1
 466 761 l 1,4,-1
 41 1493 l 1,5,-1
 343 1493 l 1,6,-1
 618 1017 l 1,7,-1
 890 1493 l 1,8,-1
 1195 1493 l 1,9,-1
 771 761 l 1,10,-1
 1208 0 l 1,11,-1
 903 0 l 1,0,-1
EndSplineSet
EndChar
StartChar: Y
Encoding: 89 89 60
Width: 1234
VWidth: 3393
Flags: W
HStem: 0 21G<469 764> 1473 20G<7 335.733 900.267 1225>
VStem: 469 295<0 587>
Fore
326 1493 m 1,0,-1
 618 893 l 1,1,-1
 910 1493 l 1,2,-1
 1225 1493 l 1,3,-1
 764 587 l 1,4,-1
 764 0 l 1,5,-1
 469 0 l 1,6,-1
 469 587 l 1,7,-1
 7 1493 l 1,8,-1
 326 1493 l 1,0,-1
EndSplineSet
EndChar
StartChar: Z
Encoding: 90 90 61
Width: 1234
VWidth: 3393
Flags: W
HStem: 0 262<454 1160> 1234 259<136 787>
Fore
1147 1493 m 1,0,-1
 1147 1249 l 1,1,-1
 454 262 l 1,2,-1
 1160 262 l 1,3,-1
 1160 0 l 1,4,-1
 116 0 l 1,5,-1
 116 244 l 1,6,-1
 787 1234 l 1,7,-1
 136 1234 l 1,8,-1
 136 1493 l 1,9,-1
 1147 1493 l 1,0,-1
EndSplineSet
EndChar
StartChar: bracketleft
Encoding: 91 91 62
Width: 1234
VWidth: 3393
Flags: W
HStem: -272 191<689 930> 1367 191<689 930>
VStem: 421 268<-81 1367> 421 509<-272 -81 1367 1558>
Fore
930 1558 m 1,0,-1
 930 1367 l 1,1,-1
 689 1367 l 1,2,-1
 689 -81 l 1,3,-1
 930 -81 l 1,4,-1
 930 -272 l 1,5,-1
 421 -272 l 1,6,-1
 421 1558 l 1,7,-1
 930 1558 l 1,0,-1
EndSplineSet
EndChar
StartChar: backslash
Encoding: 92 92 63
Width: 1234
VWidth: 3393
Flags: W
HStem: 1473 20G<113 345.311>
VStem: 113 1007<-191 1493>
Fore
1120 -191 m 1,0,-1
 900 -191 l 1,1,-1
 113 1493 l 1,2,-1
 336 1493 l 1,3,-1
 1120 -191 l 1,0,-1
EndSplineSet
EndChar
StartChar: bracketright
Encoding: 93 93 64
Width: 1234
VWidth: 3393
Flags: W
HStem: -272 191<302 547> 1367 191<302 547>
VStem: 547 263<-81 1367>
Fore
810 -272 m 1,0,-1
 302 -272 l 1,1,-1
 302 -81 l 1,2,-1
 547 -81 l 1,3,-1
 547 1367 l 1,4,-1
 302 1367 l 1,5,-1
 302 1558 l 1,6,-1
 810 1558 l 1,7,-1
 810 -272 l 1,0,-1
EndSplineSet
EndChar
StartChar: asciicircum
Encoding: 94 94 65
Width: 1234
VWidth: 3393
Flags: W
HStem: 936 557<495 1178>
Fore
1178 936 m 1,0,-1
 936 936 l 1,1,-1
 618 1239 l 1,2,-1
 298 936 l 1,3,-1
 58 936 l 1,4,-1
 495 1493 l 1,5,-1
 739 1493 l 1,6,-1
 1178 936 l 1,0,-1
EndSplineSet
EndChar
StartChar: underscore
Encoding: 95 95 66
Width: 1234
VWidth: 3393
Flags: W
HStem: -482 190<0 1234>
Fore
1234 -482 m 1,0,-1
 0 -482 l 1,1,-1
 0 -292 l 1,2,-1
 1234 -292 l 1,3,-1
 1234 -482 l 1,0,-1
EndSplineSet
EndChar
StartChar: grave
Encoding: 96 96 67
Width: 1234
VWidth: 3393
Flags: W
HStem: 1263 376<200 764>
VStem: 200 564<1263 1639>
Fore
764 1263 m 1,0,-1
 567 1263 l 1,1,-1
 200 1639 l 1,2,-1
 482 1639 l 1,3,-1
 764 1263 l 1,0,-1
EndSplineSet
EndChar
StartChar: a
Encoding: 97 97 68
Width: 1234
VWidth: 3393
Flags: W
HStem: -30 202<456.232 682.545> 525 211<474.148 819> 930 217<382.22 777.301>
VStem: 94 314<219.55 467.85> 819 291<0 126 290.424 525 736 889.177>
Fore
703 525 m 1,0,1
 540 525 540 525 472 486 c 0,2,3
 408 444 408 444 408 340 c 0,4,5
 408 265 408 265 451.5 218.5 c 128,-1,6
 495 172 495 172 573 172 c 0,7,8
 693 172 693 172 756 261 c 128,-1,9
 819 350 819 350 819 505 c 2,10,-1
 819 525 l 1,11,-1
 703 525 l 1,0,1
1110 0 m 1,12,-1
 819 0 l 1,13,-1
 819 126 l 1,14,15
 764 51 764 51 680.5 10.5 c 128,-1,16
 597 -30 597 -30 499 -30 c 0,17,18
 308 -30 308 -30 200 71 c 0,19,20
 94 172 94 172 94 353 c 0,21,22
 94 550 94 550 220 643 c 128,-1,23
 346 736 346 736 615 736 c 2,24,-1
 819 736 l 1,25,-1
 819 787 l 2,26,27
 819 930 819 930 615 930 c 0,28,29
 509 930 509 930 410.5 904 c 128,-1,30
 312 878 312 878 204 822 c 1,31,-1
 204 1069 l 1,32,33
 394 1147 394 1147 615 1147 c 0,34,35
 890 1147 890 1147 998 1039 c 0,36,37
 1110 926 1110 926 1110 641 c 2,38,-1
 1110 0 l 1,12,-1
EndSplineSet
Substitution2: "Single Substitution lookup 22 subtable" uni0E38
Substitution2: "Single Substitution lookup 22 subtable" uni0E38
EndChar
StartChar: b
Encoding: 98 98 69
Width: 1234
VWidth: 3393
Flags: W
HStem: -30 240<570.68 758.571> 903 244<572.911 759.699> 1538 20G<149 441>
VStem: 149 292<0 166 326.984 785.484 961 1558> 852 291<321.285 792.9>
Fore
852 557 m 256,0,1
 852 719 852 719 798 811 c 128,-1,2
 744 903 744 903 648 903 c 0,3,4
 557 903 557 903 499 810 c 0,5,6
 441 716 441 716 441 557 c 256,7,8
 441 398 441 398 499 302 c 0,9,10
 557 210 557 210 648 210 c 0,11,12
 744 210 744 210 798 302 c 128,-1,13
 852 394 852 394 852 557 c 256,0,1
441 961 m 1,14,15
 553 1147 553 1147 729 1147 c 0,16,17
 926 1147 926 1147 1036 998 c 256,18,19
 1143 848 1143 848 1143 560 c 0,20,21
 1143 275 1143 275 1039 126 c 0,22,23
 933 -30 933 -30 739 -30 c 0,24,25
 534 -30 534 -30 441 166 c 1,26,-1
 441 0 l 1,27,-1
 149 0 l 1,28,-1
 149 1558 l 1,29,-1
 441 1558 l 1,30,-1
 441 961 l 1,14,15
EndSplineSet
Substitution2: "Single Substitution lookup 22 subtable" uni0E39
Substitution2: "Single Substitution lookup 22 subtable" uni0E39
EndChar
StartChar: c
Encoding: 99 99 70
Width: 1234
VWidth: 3393
Flags: W
HStem: -30 240<595.335 954.68> 910 240<596.178 957.844>
VStem: 169 297<347.192 772.808>
Fore
1062 58 m 1,0,1
 913 -30 913 -30 719 -30 c 0,2,3
 462 -30 462 -30 315 126 c 256,4,5
 169 282 169 282 169 560 c 256,6,7
 169 838 169 838 315 994 c 256,8,9
 462 1150 462 1150 722 1150 c 0,10,11
 896 1150 896 1150 1062 1065 c 1,12,-1
 1062 797 l 1,13,14
 930 910 930 910 764 910 c 0,15,16
 618 910 618 910 542 819.5 c 128,-1,17
 466 729 466 729 466 560 c 256,18,19
 466 391 466 391 542 300.5 c 128,-1,20
 618 210 618 210 764 210 c 0,21,22
 933 210 933 210 1062 326 c 1,23,-1
 1062 58 l 1,0,1
EndSplineSet
Substitution2: "Single Substitution lookup 22 subtable" uni0E3A
Substitution2: "Single Substitution lookup 22 subtable" uni0E3A
EndChar
StartChar: d
Encoding: 100 100 71
Width: 1234
VWidth: 3393
Flags: W
HStem: -30 240<475.31 662.095> 903 244<474.312 662.278> 1538 20G<790 1082>
VStem: 91 292<319.752 794.432> 790 292<0 166 319.364 792.823 961 1558>
Fore
790 1558 m 1,0,-1
 1082 1558 l 1,1,-1
 1082 0 l 1,2,-1
 790 0 l 1,3,-1
 790 166 l 1,4,5
 699 -30 699 -30 495 -30 c 0,6,7
 302 -30 302 -30 197 126 c 0,8,9
 91 275 91 275 91 560 c 0,10,11
 91 848 91 848 197 998 c 0,12,13
 305 1147 305 1147 505 1147 c 0,14,15
 686 1147 686 1147 790 961 c 1,16,-1
 790 1558 l 1,0,-1
383 557 m 256,17,18
 383 394 383 394 436 302 c 128,-1,19
 489 210 489 210 587 210 c 0,20,21
 683 210 683 210 736 302 c 0,22,23
 790 391 790 391 790 557 c 256,24,25
 790 722 790 722 736 810 c 0,26,27
 683 903 683 903 587 903 c 0,28,29
 489 903 489 903 436 811 c 128,-1,30
 383 719 383 719 383 557 c 256,17,18
EndSplineSet
EndChar
StartChar: e
Encoding: 101 101 72
Width: 1234
VWidth: 3393
Flags: W
HStem: -30 234<499.629 844.017> 466 220<394 855> 920 227<484.852 778.769>
VStem: 91 300<306.344 557>
Fore
1104 55 m 1,0,1
 1001 13 1001 13 895.5 -8.5 c 128,-1,2
 790 -30 790 -30 673 -30 c 0,3,4
 386 -30 386 -30 238.5 121 c 128,-1,5
 91 272 91 272 91 557 c 0,6,7
 91 832 91 832 234 988 c 0,8,9
 373 1147 373 1147 625 1147 c 256,10,11
 875 1147 875 1147 1011 1001 c 0,12,13
 1150 852 1150 852 1150 583 c 2,14,-1
 1150 466 l 1,15,-1
 391 466 l 1,16,17
 391 204 391 204 699 204 c 0,18,19
 800 204 800 204 897 233 c 128,-1,20
 994 262 994 262 1104 326 c 1,21,-1
 1104 55 l 1,0,1
855 686 m 1,22,23
 852 920 852 920 625 920 c 0,24,25
 525 920 525 920 464.5 858.5 c 128,-1,26
 404 797 404 797 394 686 c 1,27,-1
 855 686 l 1,22,23
EndSplineSet
EndChar
StartChar: f
Encoding: 102 102 73
Width: 1234
VWidth: 3393
Flags: W
HStem: 0 21G<447 739> 896 224<172 447 739 1082> 1334 224<764.945 1082>
VStem: 447 292<0 896 1120 1309.99>
Fore
739 1120 m 1,0,-1
 1082 1120 l 1,1,-1
 1082 896 l 1,2,-1
 739 896 l 1,3,-1
 739 0 l 1,4,-1
 447 0 l 1,5,-1
 447 896 l 1,6,-1
 172 896 l 1,7,-1
 172 1120 l 1,8,-1
 447 1120 l 1,9,-1
 447 1198 l 2,10,11
 447 1405 447 1405 529 1480 c 0,12,13
 618 1558 618 1558 842 1558 c 2,14,-1
 1082 1558 l 1,15,-1
 1082 1334 l 1,16,-1
 855 1334 l 2,17,18
 794 1334 794 1334 764 1311 c 1,19,20
 739 1279 739 1279 739 1218 c 2,21,-1
 739 1120 l 1,0,-1
EndSplineSet
EndChar
StartChar: g
Encoding: 103 103 74
Width: 1234
VWidth: 3393
Flags: W
HStem: -424 233<316.195 720.983> 13 236<483.292 698.284> 910 240<484.958 684.242>
VStem: 98 293<358.638 798.521> 804 293<-109.137 172 360.594 795.578 978 1120>
Fore
804 580 m 256,0,1
 804 729 804 729 747 819 c 0,2,3
 693 910 693 910 597 910 c 0,4,5
 505 910 505 910 447 822 c 0,6,7
 391 726 391 726 391 580 c 0,8,9
 391 431 391 431 447 336 c 0,10,11
 502 249 502 249 597 249 c 256,12,13
 693 249 693 249 747 336 c 0,14,15
 804 431 804 431 804 580 c 256,0,1
1097 85 m 1,16,17
 1097 -184 1097 -184 974 -305 c 0,18,19
 848 -424 848 -424 580 -424 c 0,20,21
 398 -424 398 -424 214 -370 c 1,22,-1
 214 -101 l 1,23,24
 383 -191 383 -191 560 -191 c 0,25,26
 804 -191 804 -191 804 51 c 2,27,-1
 804 172 l 1,28,29
 719 13 719 13 515 13 c 0,30,31
 323 13 323 13 210 162 c 0,32,33
 98 315 98 315 98 570 c 0,34,35
 98 838 98 838 210 994 c 256,36,37
 323 1150 323 1150 515 1150 c 0,38,39
 611 1150 611 1150 686 1104.5 c 128,-1,40
 761 1059 761 1059 804 978 c 1,41,-1
 804 1120 l 1,42,-1
 1097 1120 l 1,43,-1
 1097 85 l 1,16,17
EndSplineSet
EndChar
StartChar: h
Encoding: 104 104 75
Width: 1234
VWidth: 3393
Flags: W
HStem: 0 21G<172 466 780 1072> 910 237<579.205 911.5> 1538 20G<172 466>
VStem: 172 294<0 836.252 953 1558> 780 292<0 855.327>
Fore
1072 0 m 1,0,-1
 780 0 l 1,1,-1
 780 683 l 2,2,3
 780 804 780 804 746.5 857 c 128,-1,4
 713 910 713 910 635 910 c 0,5,6
 553 910 553 910 509.5 838.5 c 128,-1,7
 466 767 466 767 466 641 c 2,8,-1
 466 0 l 1,9,-1
 172 0 l 1,10,-1
 172 1558 l 1,11,-1
 466 1558 l 1,12,-1
 466 953 l 1,13,14
 495 1046 495 1046 570 1096.5 c 128,-1,15
 645 1147 645 1147 751 1147 c 0,16,17
 1072 1147 1072 1147 1072 726 c 2,18,-1
 1072 0 l 1,0,-1
EndSplineSet
EndChar
StartChar: i
Encoding: 105 105 76
Width: 1234
VWidth: 3393
Flags: W
HStem: 0 224<143 509 800 1168> 896 224<220 509> 1324 343<509 800>
VStem: 509 291<224 896 1324 1667>
Fore
800 1120 m 1,0,-1
 800 224 l 1,1,-1
 1168 224 l 1,2,-1
 1168 0 l 1,3,-1
 143 0 l 1,4,-1
 143 224 l 1,5,-1
 509 224 l 1,6,-1
 509 896 l 1,7,-1
 220 896 l 1,8,-1
 220 1120 l 1,9,-1
 800 1120 l 1,0,-1
800 1667 m 1,10,-1
 800 1324 l 1,11,-1
 509 1324 l 1,12,-1
 509 1667 l 1,13,-1
 800 1667 l 1,10,-1
EndSplineSet
EndChar
StartChar: j
Encoding: 106 106 77
Width: 1234
VWidth: 3393
Flags: W
HStem: -424 224<143 501.745> 896 224<262 557> 1324 343<557 852>
VStem: 557 295<-141.354 896 1324 1667>
Fore
852 45 m 1,0,1
 852 -210 852 -210 761 -315 c 0,2,3
 668 -424 668 -424 457 -424 c 2,4,-1
 143 -424 l 1,5,-1
 143 -200 l 1,6,-1
 376 -200 l 2,7,8
 476 -200 476 -200 515 -143 c 0,9,10
 557 -91 557 -91 557 45 c 2,11,-1
 557 896 l 1,12,-1
 262 896 l 1,13,-1
 262 1120 l 1,14,-1
 852 1120 l 1,15,-1
 852 45 l 1,0,1
557 1324 m 1,16,-1
 557 1667 l 1,17,-1
 852 1667 l 1,18,-1
 852 1324 l 1,19,-1
 557 1324 l 1,16,-1
EndSplineSet
EndChar
StartChar: k
Encoding: 107 107 78
Width: 1234
VWidth: 3393
Flags: W
HStem: 0 21G<172 469 863.267 1198> 1100 20G<803.47 1175> 1538 20G<172 469>
VStem: 172 297<0 428 739 1558>
Fore
469 1558 m 1,0,-1
 469 739 l 1,1,-1
 822 1120 l 1,2,-1
 1175 1120 l 1,3,-1
 751 703 l 1,4,-1
 1198 0 l 1,5,-1
 875 0 l 1,6,-1
 567 525 l 1,7,-1
 469 428 l 1,8,-1
 469 0 l 1,9,-1
 172 0 l 1,10,-1
 172 1558 l 1,11,-1
 469 1558 l 1,0,-1
EndSplineSet
EndChar
StartChar: l
Encoding: 108 108 79
Width: 1234
VWidth: 3393
Flags: W
HStem: 0 224<735.486 780 780 1097> 1334 224<91 386>
VStem: 386 297<283.83 1334>
Fore
386 1334 m 1,0,-1
 91 1334 l 1,1,-1
 91 1558 l 1,2,-1
 683 1558 l 1,3,-1
 683 469 l 2,4,5
 683 340 683 340 722 282 c 256,6,7
 764 224 764 224 862 224 c 2,8,-1
 1097 224 l 1,9,-1
 1097 0 l 1,10,-1
 780 0 l 2,11,12
 570 0 570 0 479 109 c 256,13,14
 386 217 386 217 386 469 c 2,15,-1
 386 1334 l 1,0,-1
EndSplineSet
EndChar
StartChar: m
Encoding: 109 109 80
Width: 1234
VWidth: 3393
Flags: W
HStem: 0 21G<81 323 502 736 916 1157> 930 217<373.132 525.684 763.68 970.669>
VStem: 81 214<1004 1120> 81 242<0 884.698> 502 234<0 819.826> 916 241<0 884.698>
Fore
693 1007 m 1,0,1
 757 1147 757 1147 900 1147 c 0,2,3
 1046 1147 1046 1147 1100 1049 c 0,4,5
 1157 943 1157 943 1157 631 c 2,6,-1
 1157 0 l 1,7,-1
 916 0 l 1,8,-1
 916 719 l 2,9,10
 916 845 916 845 896 886 c 0,11,12
 875 930 875 930 828 930 c 0,13,14
 777 930 777 930 757 886 c 0,15,16
 736 845 736 845 736 719 c 2,17,-1
 736 0 l 1,18,-1
 502 0 l 1,19,-1
 502 719 l 2,20,21
 502 780 502 780 495.5 822.5 c 128,-1,22
 489 865 489 865 482 886 c 0,23,24
 462 930 462 930 411 930 c 0,25,26
 356 930 356 930 343 886 c 1,27,28
 323 845 323 845 323 719 c 2,29,-1
 323 0 l 1,30,-1
 81 0 l 1,31,-1
 81 1120 l 1,32,-1
 295 1120 l 1,33,-1
 295 1004 l 1,34,35
 323 1072 323 1072 377 1109.5 c 128,-1,36
 431 1147 431 1147 499 1147 c 0,37,38
 570 1147 570 1147 621 1107 c 0,39,40
 679 1065 679 1065 693 1007 c 1,0,1
EndSplineSet
EndChar
StartChar: n
Encoding: 110 110 81
Width: 1234
VWidth: 3393
Flags: W
HStem: 0 21G<172 466 780 1072> 910 237<579.259 911.5>
VStem: 172 294<0 838.313 953 1120> 780 292<0 855.327>
Fore
1072 0 m 1,0,-1
 780 0 l 1,1,-1
 780 683 l 2,2,3
 780 804 780 804 746.5 857 c 128,-1,4
 713 910 713 910 635 910 c 256,5,6
 557 910 557 910 511.5 840.5 c 128,-1,7
 466 771 466 771 466 641 c 2,8,-1
 466 0 l 1,9,-1
 172 0 l 1,10,-1
 172 1120 l 1,11,-1
 466 1120 l 1,12,-1
 466 953 l 1,13,14
 495 1046 495 1046 570 1096.5 c 128,-1,15
 645 1147 645 1147 751 1147 c 0,16,17
 1072 1147 1072 1147 1072 726 c 2,18,-1
 1072 0 l 1,0,-1
EndSplineSet
EndChar
StartChar: o
Encoding: 111 111 82
Width: 1234
VWidth: 3393
Flags: W
HStem: -30 240<491.497 738.597> 910 237<490.89 739.183>
VStem: 98 293<329.584 789.091> 842 295<329.584 790.087>
Fore
618 910 m 0,0,1
 509 910 509 910 450 818 c 128,-1,2
 391 726 391 726 391 560 c 256,3,4
 391 394 391 394 450 302 c 128,-1,5
 509 210 509 210 618 210 c 0,6,7
 722 210 722 210 782 302 c 128,-1,8
 842 394 842 394 842 560 c 256,9,10
 842 726 842 726 782 818 c 128,-1,11
 722 910 722 910 618 910 c 0,0,1
98 560 m 0,12,13
 98 828 98 828 237 988 c 256,14,15
 376 1147 376 1147 618 1147 c 256,16,17
 858 1147 858 1147 994 988 c 0,18,19
 1137 832 1137 832 1137 560 c 256,20,21
 1137 288 1137 288 994 129 c 0,22,23
 855 -30 855 -30 618 -30 c 256,24,25
 379 -30 379 -30 237 129 c 0,26,27
 98 288 98 288 98 560 c 0,12,13
EndSplineSet
EndChar
StartChar: p
Encoding: 112 112 83
Width: 1234
VWidth: 3393
Flags: W
HStem: -428 21G<149 441> -30 244<574.104 759.987> 910 237<569.504 758.571>
VStem: 149 292<-428 159 332.938 790.016 953 1120> 852 291<327.54 797.305>
Fore
441 -428 m 1,0,-1
 149 -428 l 1,1,-1
 149 1120 l 1,2,-1
 441 1120 l 1,3,-1
 441 953 l 1,4,5
 534 1147 534 1147 739 1147 c 0,6,7
 933 1147 933 1147 1039 994 c 0,8,9
 1143 845 1143 845 1143 560 c 0,10,11
 1143 272 1143 272 1036 123 c 0,12,13
 930 -30 930 -30 729 -30 c 0,14,15
 553 -30 553 -30 441 159 c 1,16,-1
 441 -428 l 1,0,-1
852 560 m 256,17,18
 852 722 852 722 798 816 c 128,-1,19
 744 910 744 910 648 910 c 0,20,21
 557 910 557 910 499 815 c 256,22,23
 441 719 441 719 441 560 c 0,24,25
 441 404 441 404 499 308 c 256,26,27
 557 214 557 214 648 214 c 0,28,29
 744 214 744 214 798 306 c 128,-1,30
 852 398 852 398 852 560 c 256,17,18
EndSplineSet
EndChar
StartChar: q
Encoding: 113 113 84
Width: 1234
VWidth: 3393
Flags: W
HStem: -428 21G<790 1082> -30 244<473.916 660.79> 910 237<475.444 662.305>
VStem: 91 292<324.171 799.101> 790 292<-428 159 325.508 797.636 953 1120>
Fore
383 560 m 256,0,1
 383 398 383 398 436 306 c 128,-1,2
 489 214 489 214 587 214 c 0,3,4
 679 214 679 214 736 308 c 0,5,6
 790 398 790 398 790 560 c 0,7,8
 790 726 790 726 736 815 c 0,9,10
 679 910 679 910 587 910 c 0,11,12
 489 910 489 910 436 816 c 128,-1,13
 383 722 383 722 383 560 c 256,0,1
790 159 m 1,14,15
 683 -30 683 -30 505 -30 c 0,16,17
 305 -30 305 -30 197 123 c 0,18,19
 91 272 91 272 91 560 c 0,20,21
 91 845 91 845 197 994 c 0,22,23
 305 1147 305 1147 495 1147 c 0,24,25
 699 1147 699 1147 790 953 c 1,26,-1
 790 1120 l 1,27,-1
 1082 1120 l 1,28,-1
 1082 -428 l 1,29,-1
 790 -428 l 1,30,-1
 790 159 l 1,14,15
EndSplineSet
EndChar
StartChar: r
Encoding: 114 114 85
Width: 1234
VWidth: 3393
Flags: W
HStem: 0 21G<292 583> 900 247<729.791 1037.56>
VStem: 292 291<0 656.162 946 1120>
Fore
1153 810 m 1,0,1
 1107 858 1107 858 1042.5 879 c 128,-1,2
 978 900 978 900 900 900 c 0,3,4
 706 900 706 900 628 774 c 0,5,6
 605 736 605 736 593 683 c 256,7,8
 583 628 583 628 583 515 c 2,9,-1
 583 0 l 1,10,-1
 292 0 l 1,11,-1
 292 1120 l 1,12,-1
 583 1120 l 1,13,-1
 583 946 l 1,14,15
 628 1046 628 1046 717.5 1096.5 c 128,-1,16
 807 1147 807 1147 926 1147 c 0,17,18
 1039 1147 1039 1147 1153 1092 c 1,19,-1
 1153 810 l 1,0,1
EndSplineSet
EndChar
StartChar: s
Encoding: 115 115 86
Width: 1234
VWidth: 3393
Flags: W
HStem: -30 214<340.117 758.033> 936 211<475.364 873.73>
Fore
991 832 m 1,0,1
 822 936 822 936 648 936 c 0,2,3
 447 936 447 936 447 822 c 0,4,5
 447 744 447 744 664 693 c 2,6,-1
 676 689 l 1,7,-1
 761 668 l 2,8,9
 920 631 920 631 994.5 546.5 c 128,-1,10
 1069 462 1069 462 1069 320 c 0,11,12
 1069 -30 1069 -30 615 -30 c 0,13,14
 411 -30 411 -30 191 41 c 1,15,-1
 191 298 l 1,16,17
 391 184 391 184 583 184 c 0,18,19
 790 184 790 184 790 302 c 0,20,21
 790 360 790 360 754 386 c 0,22,23
 722 414 722 414 577 451 c 2,24,-1
 495 469 l 2,25,26
 326 505 326 505 249 586.5 c 128,-1,27
 172 668 172 668 172 804 c 0,28,29
 172 968 172 968 288 1059 c 0,30,31
 401 1147 401 1147 618 1147 c 0,32,33
 815 1147 815 1147 991 1085 c 1,34,-1
 991 832 l 1,0,1
EndSplineSet
EndChar
StartChar: t
Encoding: 116 116 87
Width: 1234
VWidth: 3393
Flags: W
HStem: 0 224<729.621 828 828 1075> 896 224<113 398 693 1075>
VStem: 398 295<257.011 896 1120 1438>
Fore
693 1120 m 1,0,-1
 1075 1120 l 1,1,-1
 1075 896 l 1,2,-1
 693 896 l 1,3,-1
 693 366 l 2,4,5
 693 288 693 288 728.5 256 c 128,-1,6
 764 224 764 224 848 224 c 2,7,-1
 1075 224 l 1,8,-1
 1075 0 l 1,9,-1
 828 0 l 2,10,11
 577 0 577 0 486 81 c 0,12,13
 398 162 398 162 398 379 c 2,14,-1
 398 896 l 1,15,-1
 113 896 l 1,16,-1
 113 1120 l 1,17,-1
 398 1120 l 1,18,-1
 398 1438 l 1,19,-1
 693 1438 l 1,20,-1
 693 1120 l 1,0,-1
EndSplineSet
EndChar
StartChar: u
Encoding: 117 117 88
Width: 1234
VWidth: 3393
Flags: W
HStem: -30 240<320.5 657.155> 1100 20G<159 454 771 1062>
VStem: 159 295<264.158 1120> 771 291<0 166 282.202 1120>
Fore
159 1120 m 1,0,-1
 454 1120 l 1,1,-1
 454 437 l 2,2,3
 454 315 454 315 488 262.5 c 128,-1,4
 522 210 522 210 600 210 c 256,5,6
 679 210 679 210 725 280 c 128,-1,7
 771 350 771 350 771 479 c 2,8,-1
 771 1120 l 1,9,-1
 1062 1120 l 1,10,-1
 1062 0 l 1,11,-1
 771 0 l 1,12,-1
 771 166 l 1,13,14
 703 -30 703 -30 482 -30 c 0,15,16
 159 -30 159 -30 159 391 c 2,17,-1
 159 1120 l 1,0,-1
EndSplineSet
EndChar
StartChar: v
Encoding: 118 118 89
Width: 1234
VWidth: 3393
Flags: W
HStem: 0 21G<430.643 803.357> 1100 20G<81 381.557 852.489 1153>
Fore
797 0 m 1,0,-1
 437 0 l 1,1,-1
 81 1120 l 1,2,-1
 376 1120 l 1,3,-1
 618 249 l 1,4,-1
 858 1120 l 1,5,-1
 1153 1120 l 1,6,-1
 797 0 l 1,0,-1
EndSplineSet
EndChar
StartChar: w
Encoding: 119 119 90
Width: 1234
VWidth: 3393
Flags: W
HStem: 0 21G<200.357 486.666 749.334 1035.61> 1100 20G<0 247.077 987.83 1234>
Fore
244 1120 m 1,0,-1
 376 262 l 1,1,-1
 499 828 l 1,2,-1
 736 828 l 1,3,-1
 855 262 l 1,4,-1
 991 1120 l 1,5,-1
 1234 1120 l 1,6,-1
 1032 0 l 1,7,-1
 754 0 l 1,8,-1
 618 583 l 1,9,-1
 482 0 l 1,10,-1
 204 0 l 1,11,-1
 0 1120 l 1,12,-1
 244 1120 l 1,0,-1
EndSplineSet
EndChar
StartChar: x
Encoding: 120 120 91
Width: 1234
VWidth: 3393
Flags: W
HStem: 0 21G<55 409.702 826.298 1181> 1100 20G<88 442.231 792.829 1147>
Fore
771 583 m 1,0,-1
 1181 0 l 1,1,-1
 838 0 l 1,2,-1
 618 376 l 1,3,-1
 398 0 l 1,4,-1
 55 0 l 1,5,-1
 469 583 l 1,6,-1
 88 1120 l 1,7,-1
 431 1120 l 1,8,-1
 618 787 l 1,9,-1
 804 1120 l 1,10,-1
 1147 1120 l 1,11,-1
 771 583 l 1,0,-1
EndSplineSet
EndChar
StartChar: y
Encoding: 121 121 92
Width: 1234
VWidth: 3393
Flags: W
HStem: -424 224<126 377.646> 1100 20G<58 373.135 861.306 1178>
Fore
713 -123 m 1,0,1
 651 -282 651 -282 570 -353 c 128,-1,2
 489 -424 489 -424 370 -424 c 2,3,-1
 126 -424 l 1,4,-1
 126 -200 l 1,5,-1
 249 -200 l 2,6,7
 336 -200 336 -200 379 -169 c 0,8,9
 418 -143 418 -143 466 -30 c 2,10,-1
 486 30 l 1,11,-1
 58 1120 l 1,12,-1
 366 1120 l 1,13,-1
 625 394 l 1,14,-1
 868 1120 l 1,15,-1
 1178 1120 l 1,16,-1
 713 -123 l 1,0,1
EndSplineSet
EndChar
StartChar: z
Encoding: 122 122 93
Width: 1234
VWidth: 3393
Flags: W
HStem: 0 220<492 1082> 903 217<187 754>
Fore
1082 1120 m 1,0,-1
 1082 893 l 1,1,-1
 492 220 l 1,2,-1
 1082 220 l 1,3,-1
 1082 0 l 1,4,-1
 162 0 l 1,5,-1
 162 230 l 1,6,-1
 754 903 l 1,7,-1
 187 903 l 1,8,-1
 187 1120 l 1,9,-1
 1082 1120 l 1,0,-1
EndSplineSet
EndChar
StartChar: braceleft
Encoding: 123 123 94
Width: 1234
VWidth: 3393
Flags: W
HStem: -336 193<791.438 1056> 515 194<176 416.594> 1367 191<791.203 1056>
VStem: 486 271<-99.4165 444.222 777.812 1325.39>
Fore
1056 -336 m 1,0,-1
 903 -336 l 2,1,2
 661 -336 661 -336 570 -262 c 0,3,4
 486 -187 486 -187 486 33 c 2,5,-1
 486 252 l 2,6,7
 486 404 486 404 431 457 c 0,8,9
 383 515 383 515 237 515 c 2,10,-1
 176 515 l 1,11,-1
 176 709 l 1,12,-1
 237 709 l 2,13,14
 379 709 379 709 431 764 c 0,15,16
 486 822 486 822 486 974 c 2,17,-1
 486 1188 l 2,18,19
 486 1412 486 1412 570 1483 c 0,20,21
 655 1558 655 1558 903 1558 c 2,22,-1
 1056 1558 l 1,23,-1
 1056 1367 l 1,24,-1
 930 1367 l 2,25,26
 828 1367 828 1367 790 1327 c 1,27,28
 757 1276 757 1276 757 1140 c 2,29,-1
 757 930 l 2,30,31
 757 767 757 767 709 699 c 0,32,33
 655 628 655 628 534 615 c 1,34,35
 661 587 661 587 709 522 c 0,36,37
 757 454 757 454 757 292 c 2,38,-1
 757 85 l 2,39,40
 757 -51 757 -51 790 -101 c 1,41,42
 828 -143 828 -143 930 -143 c 2,43,-1
 1056 -143 l 1,44,-1
 1056 -336 l 1,0,-1
EndSplineSet
EndChar
StartChar: bar
Encoding: 124 124 95
Width: 1234
VWidth: 3393
Flags: W
VStem: 502 227<-482 1568>
Fore
729 -482 m 1,0,-1
 502 -482 l 1,1,-1
 502 1568 l 1,2,-1
 729 1568 l 1,3,-1
 729 -482 l 1,0,-1
EndSplineSet
EndChar
StartChar: braceright
Encoding: 125 125 96
Width: 1234
VWidth: 3393
Flags: W
HStem: -336 193<181 439.951> 515 194<815.125 1059> 1367 191<181 438.981>
VStem: 479 268<-99.5396 445.04 773.73 1322.57>
Fore
302 -143 m 2,0,1
 408 -143 408 -143 441 -101 c 0,2,3
 479 -55 479 -55 479 85 c 2,4,-1
 479 292 l 2,5,6
 479 462 479 462 525 522 c 0,7,8
 573 587 573 587 703 615 c 1,9,10
 580 628 580 628 525 699 c 0,11,12
 479 761 479 761 479 930 c 2,13,-1
 479 1140 l 2,14,15
 479 1279 479 1279 441 1324 c 0,16,17
 408 1367 408 1367 302 1367 c 2,18,-1
 181 1367 l 1,19,-1
 181 1558 l 1,20,-1
 330 1558 l 2,21,22
 583 1558 583 1558 661 1483 c 0,23,24
 747 1412 747 1412 747 1188 c 2,25,-1
 747 974 l 2,26,27
 747 822 747 822 800 764 c 0,28,29
 855 709 855 709 998 709 c 2,30,-1
 1059 709 l 1,31,-1
 1059 515 l 1,32,-1
 998 515 l 2,33,34
 855 515 855 515 800 457 c 0,35,36
 747 404 747 404 747 252 c 2,37,-1
 747 33 l 2,38,39
 747 -187 747 -187 661 -262 c 256,40,41
 577 -336 577 -336 330 -336 c 2,42,-1
 181 -336 l 1,43,-1
 181 -143 l 1,44,-1
 302 -143 l 2,0,1
EndSplineSet
EndChar
StartChar: asciitilde
Encoding: 126 126 97
Width: 1234
VWidth: 3393
Flags: W
HStem: 466 220<685.615 1012.64> 587 223<220.645 448.388>
Fore
1147 580 m 1,0,1
 1069 519 1069 519 997.5 492.5 c 128,-1,2
 926 466 926 466 848 466 c 0,3,4
 757 466 757 466 645 515 c 0,5,6
 635 522 635 522 628 523.5 c 128,-1,7
 621 525 621 525 615 529 c 0,8,9
 537 563 537 563 482 573 c 0,10,11
 437 587 437 587 379 587 c 0,12,13
 230 587 230 587 88 466 c 1,14,-1
 88 696 l 1,15,16
 166 757 166 757 239 783.5 c 128,-1,17
 312 810 312 810 398 810 c 0,18,19
 424 810 424 810 448 807 c 128,-1,20
 472 804 472 804 499 797 c 0,21,22
 550 787 550 787 621 757 c 0,23,24
 641 751 641 751 655 744 c 0,25,26
 777 686 777 686 865 686 c 0,27,28
 1001 686 1001 686 1147 810 c 1,29,-1
 1147 580 l 1,0,1
EndSplineSet
EndChar
StartChar: Aring
Encoding: 197 197 99
Width: 1234
VWidth: 3393
Flags: W
HStem: 0 21G<33 334.757 901.081 1201> 370 245<479 757> 1748 156<526.099 707.87>
VStem: 333 153<1523 1711.56> 751 152<1524.6 1709.96>
Fore
1201 0 m 1,0,-1
 906 0 l 1,1,-1
 815 370 l 1,2,-1
 418 370 l 1,3,-1
 330 0 l 1,4,-1
 33 0 l 1,5,-1
 418 1422 l 1,6,7
 333 1496 333 1496 333 1619 c 0,8,9
 333 1735 333 1735 414 1819 c 0,10,11
 499 1904 499 1904 618 1904 c 256,12,13
 736 1904 736 1904 819 1819 c 0,14,15
 903 1735 903 1735 903 1619 c 0,16,17
 903 1496 903 1496 815 1422 c 1,18,-1
 1201 0 l 1,0,-1
486 1619 m 0,19,20
 486 1564 486 1564 525 1524 c 0,21,22
 563 1486 563 1486 618 1486 c 256,23,24
 673 1486 673 1486 709 1524 c 0,25,26
 751 1564 751 1564 751 1619 c 0,27,28
 751 1670 751 1670 709 1710 c 0,29,30
 673 1748 673 1748 618 1748 c 0,31,32
 560 1748 560 1748 525 1710 c 0,33,34
 486 1670 486 1670 486 1619 c 0,19,20
479 615 m 1,35,-1
 757 615 l 1,36,-1
 618 1225 l 1,37,-1
 479 615 l 1,35,-1
EndSplineSet
EndChar
StartChar: oacute
Encoding: 243 243 121
Width: 1234
VWidth: 3393
Flags: W
HStem: -30 240<491.758 736.992> 910 237<490.89 739.183>
VStem: 98 293<329.584 789.091> 842 295<329.584 790.087>
Fore
1036 1561 m 1,0,-1
 664 1263 l 1,1,-1
 469 1263 l 1,2,-1
 754 1561 l 1,3,-1
 1036 1561 l 1,0,-1
618 910 m 0,4,5
 509 910 509 910 450 818 c 128,-1,6
 391 726 391 726 391 560 c 256,7,8
 391 394 391 394 450 302 c 128,-1,9
 509 210 509 210 618 210 c 0,10,11
 722 210 722 210 782 302 c 128,-1,12
 842 394 842 394 842 560 c 256,13,14
 842 726 842 726 782 818 c 128,-1,15
 722 910 722 910 618 910 c 0,4,5
98 560 m 0,16,17
 98 828 98 828 237 988 c 256,18,19
 376 1147 376 1147 618 1147 c 256,20,21
 858 1147 858 1147 994 988 c 0,22,23
 1137 832 1137 832 1137 560 c 256,24,25
 1137 288 1137 288 994 129 c 0,26,27
 855 -30 855 -30 618 -30 c 256,28,29
 379 -30 379 -30 237 129 c 0,30,31
 98 288 98 288 98 560 c 0,16,17
EndSplineSet
EndChar
StartChar: ograve
Encoding: 242 242 122
Width: 1234
VWidth: 3393
Flags: W
HStem: -30 240<491.758 736.992> 910 237<490.89 739.183>
VStem: 98 293<329.584 789.091> 842 295<329.584 790.087>
Fore
764 1263 m 1,0,-1
 567 1263 l 1,1,-1
 200 1561 l 1,2,-1
 482 1561 l 1,3,-1
 764 1263 l 1,0,-1
618 910 m 0,4,5
 509 910 509 910 450 818 c 128,-1,6
 391 726 391 726 391 560 c 256,7,8
 391 394 391 394 450 302 c 128,-1,9
 509 210 509 210 618 210 c 0,10,11
 722 210 722 210 782 302 c 128,-1,12
 842 394 842 394 842 560 c 256,13,14
 842 726 842 726 782 818 c 128,-1,15
 722 910 722 910 618 910 c 0,4,5
98 560 m 0,16,17
 98 828 98 828 237 988 c 256,18,19
 376 1147 376 1147 618 1147 c 256,20,21
 858 1147 858 1147 994 988 c 0,22,23
 1137 832 1137 832 1137 560 c 256,24,25
 1137 288 1137 288 994 129 c 0,26,27
 855 -30 855 -30 618 -30 c 256,28,29
 379 -30 379 -30 237 129 c 0,30,31
 98 288 98 288 98 560 c 0,16,17
EndSplineSet
EndChar
StartChar: ocircumflex
Encoding: 244 244 123
Width: 1234
VWidth: 3393
Flags: W
HStem: -30 240<491.758 736.992> 910 237<490.89 739.183>
VStem: 98 293<329.584 789.091> 842 295<329.584 790.087>
Fore
736 1561 m 1,0,-1
 994 1263 l 1,1,-1
 815 1263 l 1,2,-1
 618 1412 l 1,3,-1
 418 1263 l 1,4,-1
 240 1263 l 1,5,-1
 495 1561 l 1,6,-1
 736 1561 l 1,0,-1
618 910 m 0,7,8
 509 910 509 910 450 818 c 128,-1,9
 391 726 391 726 391 560 c 256,10,11
 391 394 391 394 450 302 c 128,-1,12
 509 210 509 210 618 210 c 0,13,14
 722 210 722 210 782 302 c 128,-1,15
 842 394 842 394 842 560 c 256,16,17
 842 726 842 726 782 818 c 128,-1,18
 722 910 722 910 618 910 c 0,7,8
98 560 m 0,19,20
 98 828 98 828 237 988 c 256,21,22
 376 1147 376 1147 618 1147 c 256,23,24
 858 1147 858 1147 994 988 c 0,25,26
 1137 832 1137 832 1137 560 c 256,27,28
 1137 288 1137 288 994 129 c 0,29,30
 855 -30 855 -30 618 -30 c 256,31,32
 379 -30 379 -30 237 129 c 0,33,34
 98 288 98 288 98 560 c 0,19,20
EndSplineSet
EndChar
StartChar: odieresis
Encoding: 246 246 124
Width: 1234
VWidth: 3393
Flags: W
HStem: -30 240<491.497 738.597> 910 237<490.89 739.183> 1317 244<302 537 696 933>
VStem: 98 293<329.584 789.091> 302 235<1317 1561> 696 237<1317 1561> 842 295<329.584 790.087>
Fore
537 1561 m 1,0,-1
 537 1317 l 1,1,-1
 302 1317 l 1,2,-1
 302 1561 l 1,3,-1
 537 1561 l 1,0,-1
933 1561 m 1,4,-1
 933 1317 l 1,5,-1
 696 1317 l 1,6,-1
 696 1561 l 1,7,-1
 933 1561 l 1,4,-1
618 910 m 0,8,9
 509 910 509 910 450 818 c 128,-1,10
 391 726 391 726 391 560 c 256,11,12
 391 394 391 394 450 302 c 128,-1,13
 509 210 509 210 618 210 c 0,14,15
 722 210 722 210 782 302 c 128,-1,16
 842 394 842 394 842 560 c 256,17,18
 842 726 842 726 782 818 c 128,-1,19
 722 910 722 910 618 910 c 0,8,9
98 560 m 0,20,21
 98 828 98 828 237 988 c 256,22,23
 376 1147 376 1147 618 1147 c 256,24,25
 858 1147 858 1147 994 988 c 0,26,27
 1137 832 1137 832 1137 560 c 256,28,29
 1137 288 1137 288 994 129 c 0,30,31
 855 -30 855 -30 618 -30 c 256,32,33
 379 -30 379 -30 237 129 c 0,34,35
 98 288 98 288 98 560 c 0,20,21
EndSplineSet
EndChar
StartChar: otilde
Encoding: 245 245 125
Width: 1234
VWidth: 3393
Flags: W
HStem: -30 240<491.758 736.992> 910 237<490.89 739.183> 1276 156<695.884 813.01> 1405 156<420.045 564.079>
VStem: 98 293<329.584 789.091> 268 140<1276 1398.46> 825 143<1439.74 1543.69 1544.31 1561> 842 295<329.584 790.087>
Fore
563 1370 m 1,0,1
 560 1370 560 1370 553 1377 c 0,2,3
 512 1405 512 1405 482 1405 c 0,4,5
 408 1405 408 1405 408 1286 c 2,6,-1
 408 1276 l 1,7,-1
 268 1276 l 1,8,-1
 268 1311 l 2,9,10
 268 1425 268 1425 323 1493 c 256,11,12
 376 1561 376 1561 466 1561 c 0,13,14
 537 1561 537 1561 615 1503 c 2,15,-1
 676 1463 l 2,16,17
 722 1432 722 1432 751 1432 c 0,18,19
 825 1432 825 1432 825 1551 c 2,20,-1
 825 1561 l 1,21,-1
 968 1561 l 1,22,23
 968 1554 968 1554 966 1544 c 128,-1,24
 964 1534 964 1534 964 1528 c 0,25,26
 964 1408 964 1408 910 1344 c 0,27,28
 858 1276 858 1276 771 1276 c 0,29,30
 732 1276 732 1276 700 1286 c 128,-1,31
 668 1296 668 1296 618 1334 c 2,32,-1
 563 1370 l 1,0,1
618 910 m 0,33,34
 509 910 509 910 450 818 c 128,-1,35
 391 726 391 726 391 560 c 256,36,37
 391 394 391 394 450 302 c 128,-1,38
 509 210 509 210 618 210 c 0,39,40
 722 210 722 210 782 302 c 128,-1,41
 842 394 842 394 842 560 c 256,42,43
 842 726 842 726 782 818 c 128,-1,44
 722 910 722 910 618 910 c 0,33,34
98 560 m 0,45,46
 98 828 98 828 237 988 c 256,47,48
 376 1147 376 1147 618 1147 c 256,49,50
 858 1147 858 1147 994 988 c 0,51,52
 1137 832 1137 832 1137 560 c 256,53,54
 1137 288 1137 288 994 129 c 0,55,56
 855 -30 855 -30 618 -30 c 256,57,58
 379 -30 379 -30 237 129 c 0,59,60
 98 288 98 288 98 560 c 0,45,46
EndSplineSet
EndChar
StartChar: dagger
Encoding: 8224 8224 130
Width: 1234
VWidth: 3393
Flags: W
HStem: 882 225<156 489 744 1075> 1473 20G<489 744>
VStem: 489 255<-197 882 1107 1493>
Fore
744 1493 m 1,0,-1
 744 1107 l 1,1,-1
 1075 1107 l 1,2,-1
 1075 882 l 1,3,-1
 744 882 l 1,4,-1
 744 -197 l 1,5,-1
 489 -197 l 1,6,-1
 489 882 l 1,7,-1
 156 882 l 1,8,-1
 156 1107 l 1,9,-1
 489 1107 l 1,10,-1
 489 1493 l 1,11,-1
 744 1493 l 1,0,-1
EndSplineSet
EndChar
StartChar: degree
Encoding: 176 176 131
Width: 1234
VWidth: 3393
Flags: W
HStem: 855 162<495.349 732.793> 1360 161<502.363 730.109>
VStem: 282 162<1069.24 1303.1> 787 162<1071.96 1303.8>
Fore
618 1521 m 0,0,1
 686 1521 686 1521 745 1495.5 c 128,-1,2
 804 1470 804 1470 852 1422 c 0,3,4
 949 1331 949 1331 949 1188 c 0,5,6
 949 1052 949 1052 852 953 c 256,7,8
 754 855 754 855 615 855 c 0,9,10
 472 855 472 855 379 949 c 0,11,12
 282 1049 282 1049 282 1188 c 256,13,14
 282 1327 282 1327 379 1425 c 0,15,16
 476 1521 476 1521 618 1521 c 0,0,1
618 1360 m 0,17,18
 543 1360 543 1360 495 1311 c 0,19,20
 444 1259 444 1259 444 1188 c 0,21,22
 444 1120 444 1120 492 1065 c 0,23,24
 540 1017 540 1017 615 1017 c 256,25,26
 689 1017 689 1017 736 1065 c 0,27,28
 787 1117 787 1117 787 1188 c 256,29,30
 787 1259 787 1259 736 1311 c 256,31,32
 686 1360 686 1360 618 1360 c 0,17,18
EndSplineSet
EndChar
StartChar: cent
Encoding: 162 162 132
Width: 1234
VWidth: 3393
Flags: W
VStem: 146 272<348.362 777.411> 655 142<-312 -23 214 910 1147 1432>
Fore
1039 810 m 1,0,1
 916 896 916 896 797 910 c 1,2,-1
 797 214 l 1,3,4
 920 224 920 224 1039 312 c 1,5,-1
 1039 45 l 1,6,7
 984 13 984 13 924.5 -2 c 128,-1,8
 865 -17 865 -17 797 -23 c 1,9,-1
 797 -312 l 1,10,-1
 655 -312 l 1,11,-1
 655 -23 l 1,12,13
 418 -3 418 -3 282 152 c 0,14,15
 146 315 146 315 146 560 c 0,16,17
 146 810 146 810 282 974 c 0,18,19
 418 1130 418 1130 655 1147 c 1,20,-1
 655 1432 l 1,21,-1
 797 1432 l 1,22,-1
 797 1147 l 1,23,24
 923 1137 923 1137 1039 1079 c 1,25,-1
 1039 810 l 1,0,1
655 910 m 1,26,27
 418 878 418 878 418 560 c 0,28,29
 418 414 418 414 482 312 c 0,30,31
 540 224 540 224 655 214 c 1,32,-1
 655 910 l 1,26,27
EndSplineSet
EndChar
StartChar: sterling
Encoding: 163 163 133
Width: 1234
VWidth: 3393
Flags: W
HStem: 0 262<119 353 641 1123> 593 229<156 353 641 978> 1273 248<712.991 1038.83>
VStem: 353 288<262 593 822 1188.28>
Fore
1104 1188 m 1,0,1
 994 1273 994 1273 848 1273 c 0,2,3
 739 1273 739 1273 690 1206.5 c 128,-1,4
 641 1140 641 1140 641 998 c 2,5,-1
 641 822 l 1,6,-1
 978 822 l 1,7,-1
 978 593 l 1,8,-1
 641 593 l 1,9,-1
 641 262 l 1,10,-1
 1123 262 l 1,11,-1
 1123 0 l 1,12,-1
 119 0 l 1,13,-1
 119 262 l 1,14,-1
 353 262 l 1,15,-1
 353 593 l 1,16,-1
 156 593 l 1,17,-1
 156 822 l 1,18,-1
 353 822 l 1,19,-1
 353 1017 l 2,20,21
 353 1521 353 1521 810 1521 c 0,22,23
 978 1521 978 1521 1104 1463 c 1,24,-1
 1104 1188 l 1,0,1
EndSplineSet
EndChar
StartChar: section
Encoding: 167 167 134
Width: 1234
VWidth: 3393
Flags: W
HStem: -197 227<308.318 712.197> 1296 225<533.991 798.552>
VStem: 169 245<618.018 805.433> 815 247<524.661 698.061>
Fore
519 858 m 1,0,1
 414 787 414 787 414 713 c 0,2,3
 414 655 414 655 462 615 c 0,4,5
 515 567 515 567 713 476 c 1,6,7
 815 543 815 543 815 621 c 0,8,9
 815 706 815 706 550 842 c 2,10,-1
 519 858 l 1,0,1
930 1234 m 1,11,12
 764 1296 764 1296 658 1296 c 0,13,14
 583 1296 583 1296 541 1267.5 c 128,-1,15
 499 1239 499 1239 499 1185 c 0,16,17
 499 1114 499 1114 703 1004 c 2,18,-1
 729 991 l 2,19,20
 943 878 943 878 1004 807 c 0,21,22
 1062 732 1062 732 1062 638 c 0,23,24
 1062 469 1062 469 865 373 c 1,25,26
 933 323 933 323 967 261.5 c 128,-1,27
 1001 200 1001 200 1001 119 c 0,28,29
 1001 -27 1001 -27 896 -113 c 0,30,31
 784 -197 784 -197 605 -197 c 0,32,33
 428 -197 428 -197 258 -136 c 1,34,-1
 258 91 l 1,35,36
 428 30 428 30 580 30 c 0,37,38
 736 30 736 30 736 143 c 0,39,40
 736 210 736 210 522 326 c 2,41,-1
 512 333 l 1,42,-1
 486 346 l 2,43,44
 169 515 169 515 169 689 c 0,45,46
 169 886 169 886 370 953 c 1,47,48
 298 1004 298 1004 267.5 1065.5 c 128,-1,49
 237 1127 237 1127 237 1208 c 0,50,51
 237 1350 237 1350 340 1435 c 0,52,53
 444 1521 444 1521 618 1521 c 0,54,55
 693 1521 693 1521 770.5 1507 c 128,-1,56
 848 1493 848 1493 930 1463 c 1,57,-1
 930 1234 l 1,11,12
EndSplineSet
EndChar
StartChar: bullet
Encoding: 8226 8226 135
Width: 1234
VWidth: 3393
Flags: W
HStem: 1100 20G<545 691>
Fore
258 764 m 0,0,1
 258 913 258 913 363 1017 c 0,2,3
 472 1120 472 1120 618 1120 c 256,4,5
 764 1120 764 1120 872 1017 c 0,6,7
 978 913 978 913 978 764 c 0,8,9
 978 618 978 618 872 505 c 0,10,11
 767 401 767 401 615 401 c 0,12,13
 472 401 472 401 360 505 c 0,14,15
 258 608 258 608 258 764 c 0,0,1
EndSplineSet
EndChar
StartChar: paragraph
Encoding: 182 182 136
Width: 1234
VWidth: 3393
Flags: W
HStem: 1347 146<686 875>
VStem: 495 191<-197 648> 875 190<-197 1347>
Fore
1065 1493 m 1,0,-1
 1065 -197 l 1,1,-1
 875 -197 l 1,2,-1
 875 1347 l 1,3,-1
 686 1347 l 1,4,-1
 686 -197 l 1,5,-1
 495 -197 l 1,6,-1
 495 648 l 1,7,8
 292 676 292 676 181.5 784.5 c 128,-1,9
 71 893 71 893 71 1072 c 0,10,11
 71 1269 71 1269 200 1377 c 0,12,13
 330 1493 330 1493 547 1493 c 2,14,-1
 1065 1493 l 1,0,-1
EndSplineSet
EndChar
StartChar: germandbls
Encoding: 223 223 137
Width: 1234
VWidth: 3393
Flags: W
HStem: -30 237<546.043 851.594> 1324 234<475.233 757.002>
VStem: 126 295<0 1267.19> 525 255<795.199 992.091>
Fore
1036 1059 m 1,0,1
 780 1049 780 1049 780 882 c 0,2,3
 780 819 780 819 896 729 c 0,4,5
 906 722 906 722 916 713 c 2,6,-1
 1014 641 l 2,7,8
 1175 515 1175 515 1175 330 c 0,9,10
 1175 166 1175 166 1062 68 c 0,11,12
 946 -30 946 -30 757 -30 c 0,13,14
 638 -30 638 -30 505 20 c 1,15,-1
 505 272 l 1,16,17
 625 207 625 207 732 207 c 0,18,19
 804 207 804 207 847 241 c 128,-1,20
 890 275 890 275 890 333 c 0,21,22
 890 408 890 408 774 492 c 1,23,24
 761 505 761 505 748.5 512 c 128,-1,25
 736 519 736 519 729 525 c 2,26,-1
 645 593 l 2,27,28
 525 689 525 689 525 848 c 0,29,30
 525 974 525 974 599 1058.5 c 128,-1,31
 673 1143 673 1143 810 1175 c 1,32,33
 790 1324 790 1324 611 1324 c 0,34,35
 421 1324 421 1324 421 1123 c 2,36,-1
 421 0 l 1,37,-1
 126 0 l 1,38,-1
 126 1127 l 2,39,40
 126 1341 126 1341 246 1449.5 c 128,-1,41
 366 1558 366 1558 597 1558 c 0,42,43
 822 1558 822 1558 929 1439.5 c 128,-1,44
 1036 1321 1036 1321 1036 1075 c 2,45,-1
 1036 1059 l 1,0,1
EndSplineSet
EndChar
StartChar: registered
Encoding: 174 174 138
Width: 1234
VWidth: 3393
Flags: W
HStem: 126 132<416.334 822.158> 673 107<525 625.091> 943 113<525 689.694> 1231 129<416.37 818.216>
VStem: 0 133<541.001 947.758> 360 165<431 673 780 943> 703 165<792.459 929.96> 1104 130<543.642 946.912>
Fore
618 1360 m 256,0,1
 872 1360 872 1360 1052 1181 c 0,2,3
 1234 991 1234 991 1234 744 c 0,4,5
 1234 489 1234 489 1052 308 c 0,6,7
 868 126 868 126 618 126 c 0,8,9
 363 126 363 126 184 308 c 0,10,11
 0 489 0 489 0 744 c 256,12,13
 0 998 0 998 184 1181 c 0,14,15
 363 1360 363 1360 618 1360 c 256,0,1
525 943 m 1,16,-1
 525 780 l 1,17,-1
 587 780 l 2,18,19
 703 780 703 780 703 862 c 256,20,21
 703 943 703 943 587 943 c 2,22,-1
 525 943 l 1,16,-1
608 1056 m 1,23,24
 868 1056 868 1056 868 878 c 0,25,26
 868 744 868 744 719 716 c 1,27,28
 790 689 790 689 838 597 c 2,29,-1
 916 431 l 1,30,-1
 744 431 l 1,31,-1
 683 563 l 2,32,33
 655 621 655 621 626 644.5 c 128,-1,34
 597 668 597 668 557 673 c 2,35,-1
 525 673 l 1,36,-1
 525 431 l 1,37,-1
 360 431 l 1,38,-1
 360 1056 l 1,39,-1
 608 1056 l 1,23,24
618 1231 m 0,40,41
 418 1231 418 1231 275 1085 c 0,42,43
 133 943 133 943 133 744 c 0,44,45
 133 550 133 550 275 401 c 0,46,47
 418 258 418 258 618 258 c 256,48,49
 819 258 819 258 961 401 c 0,50,51
 1104 550 1104 550 1104 744 c 0,52,53
 1104 943 1104 943 961 1085 c 0,54,55
 815 1231 815 1231 618 1231 c 0,40,41
EndSplineSet
EndChar
StartChar: copyright
Encoding: 169 169 139
Width: 1234
VWidth: 3393
Flags: W
HStem: 126 132<416.334 822.158> 401 142<511.577 822.314> 940 142<514.92 823.984> 1231 129<416.37 818.216>
VStem: 0 133<541.001 947.758> 265 189<600.651 879.323> 1104 130<543.642 946.912>
Fore
848 882 m 1,0,1
 754 940 754 940 658 940 c 0,2,3
 560 940 560 940 507 889 c 128,-1,4
 454 838 454 838 454 744 c 0,5,6
 454 543 454 543 658 543 c 0,7,8
 767 543 767 543 848 605 c 1,9,-1
 848 434 l 1,10,11
 747 401 747 401 638 401 c 0,12,13
 469 401 469 401 366 492 c 0,14,15
 265 593 265 593 265 744 c 0,16,17
 265 896 265 896 366 991 c 0,18,19
 469 1082 469 1082 638 1082 c 0,20,21
 751 1082 751 1082 848 1049 c 1,22,-1
 848 882 l 1,0,1
618 1360 m 256,23,24
 872 1360 872 1360 1052 1181 c 0,25,26
 1234 991 1234 991 1234 744 c 0,27,28
 1234 489 1234 489 1052 308 c 0,29,30
 868 126 868 126 618 126 c 0,31,32
 363 126 363 126 184 308 c 0,33,34
 0 489 0 489 0 744 c 256,35,36
 0 998 0 998 184 1181 c 0,37,38
 363 1360 363 1360 618 1360 c 256,23,24
618 1231 m 0,39,40
 418 1231 418 1231 275 1085 c 0,41,42
 133 943 133 943 133 744 c 0,43,44
 133 550 133 550 275 401 c 0,45,46
 418 258 418 258 618 258 c 256,47,48
 819 258 819 258 961 401 c 0,49,50
 1104 550 1104 550 1104 744 c 0,51,52
 1104 943 1104 943 961 1085 c 0,53,54
 815 1231 815 1231 618 1231 c 0,39,40
EndSplineSet
EndChar
StartChar: trademark
Encoding: 8482 8482 140
Width: 1234
VWidth: 3393
Flags: W
HStem: 1360 133<0 143 298 437>
VStem: 143 155<916 1360> 522 154<916 1354> 974 153<916 1354>
Fore
832 1266 m 1,0,-1
 920 1493 l 1,1,-1
 1127 1493 l 1,2,-1
 1127 916 l 1,3,-1
 974 916 l 1,4,-1
 974 1354 l 1,5,-1
 865 1097 l 1,6,-1
 790 1097 l 1,7,-1
 676 1354 l 1,8,-1
 676 916 l 1,9,-1
 522 916 l 1,10,-1
 522 1493 l 1,11,-1
 729 1493 l 1,12,-1
 832 1266 l 1,0,-1
437 1360 m 1,13,-1
 298 1360 l 1,14,-1
 298 916 l 1,15,-1
 143 916 l 1,16,-1
 143 1360 l 1,17,-1
 0 1360 l 1,18,-1
 0 1493 l 1,19,-1
 437 1493 l 1,20,-1
 437 1360 l 1,13,-1
EndSplineSet
EndChar
StartChar: acute
Encoding: 180 180 141
Width: 1234
VWidth: 3393
Flags: W
HStem: 1263 376<664 1036>
VStem: 469 567<1263 1639>
Fore
1036 1639 m 1,0,-1
 664 1263 l 1,1,-1
 469 1263 l 1,2,-1
 754 1639 l 1,3,-1
 1036 1639 l 1,0,-1
EndSplineSet
EndChar
StartChar: dieresis
Encoding: 168 168 142
Width: 1234
VWidth: 3393
Flags: W
HStem: 1341 246<302 537 696 933>
VStem: 302 235<1341 1587> 696 237<1341 1587>
Fore
933 1587 m 1,0,-1
 933 1341 l 1,1,-1
 696 1341 l 1,2,-1
 696 1587 l 1,3,-1
 933 1587 l 1,0,-1
537 1587 m 1,4,-1
 537 1341 l 1,5,-1
 302 1341 l 1,6,-1
 302 1587 l 1,7,-1
 537 1587 l 1,4,-1
EndSplineSet
EndChar
StartChar: notequal
Encoding: 8800 8800 143
Width: 1234
VWidth: 3393
Flags: W
HStem: -10 21G<220.744 260.459> 295 239<78 240 664 1157> 754 234<78 577 994 1157>
Fore
736 988 m 1,0,-1
 991 1292 l 1,1,-1
 1140 1168 l 1,2,-1
 994 988 l 1,3,-1
 1157 988 l 1,4,-1
 1157 754 l 1,5,-1
 842 754 l 1,6,-1
 664 534 l 1,7,-1
 1157 534 l 1,8,-1
 1157 295 l 1,9,-1
 495 295 l 1,10,-1
 244 -10 l 1,11,-1
 94 119 l 1,12,-1
 240 295 l 1,13,-1
 78 295 l 1,14,-1
 78 534 l 1,15,-1
 401 534 l 1,16,-1
 577 754 l 1,17,-1
 78 754 l 1,18,-1
 78 988 l 1,19,-1
 736 988 l 1,0,-1
EndSplineSet
EndChar
StartChar: AE
Encoding: 198 198 144
Width: 1234
VWidth: 3393
Flags: W
HStem: 0 262<872 1181> 363 234<391 618> 661 262<872 1130> 1234 259<537 618 872 1160>
VStem: 618 254<262 363 597 661 923 1234>
Fore
1160 1234 m 1,0,-1
 872 1234 l 1,1,-1
 872 923 l 1,2,-1
 1130 923 l 1,3,-1
 1130 661 l 1,4,-1
 872 661 l 1,5,-1
 872 262 l 1,6,-1
 1181 262 l 1,7,-1
 1181 0 l 1,8,-1
 618 0 l 1,9,-1
 618 363 l 1,10,-1
 336 363 l 1,11,-1
 249 0 l 1,12,-1
 0 0 l 1,13,-1
 360 1493 l 1,14,-1
 1160 1493 l 1,15,-1
 1160 1234 l 1,0,-1
391 597 m 1,16,-1
 618 597 l 1,17,-1
 618 1234 l 1,18,-1
 537 1234 l 1,19,-1
 391 597 l 1,16,-1
EndSplineSet
EndChar
StartChar: Oslash
Encoding: 216 216 145
Width: 1234
VWidth: 3393
Flags: W
HStem: -30 267<498.881 732.679> 1256 265<505.978 729.193>
VStem: 91 310<638.065 1103.58> 835 308<374.326 882.375>
Fore
451 353 m 1,0,1
 499 237 499 237 618 237 c 0,2,3
 729 237 729 237 784 356 c 0,4,5
 835 479 835 479 835 747 c 0,6,7
 835 774 835 774 835 804.5 c 128,-1,8
 835 835 835 835 832 890 c 1,9,-1
 451 353 l 1,0,1
774 1153 m 1,10,11
 719 1256 719 1256 618 1256 c 0,12,13
 505 1256 505 1256 453 1136.5 c 128,-1,14
 401 1017 401 1017 401 757 c 2,15,-1
 401 631 l 1,16,-1
 774 1153 l 1,10,11
162 288 m 1,17,18
 91 469 91 469 91 747 c 0,19,20
 91 1521 91 1521 618 1521 c 0,21,22
 825 1521 825 1521 946 1399 c 1,23,-1
 1059 1561 l 1,24,-1
 1221 1445 l 1,25,-1
 1065 1221 l 1,26,27
 1143 1029 1143 1029 1143 747 c 0,28,29
 1143 363 1143 363 1010.5 166.5 c 128,-1,30
 878 -30 878 -30 618 -30 c 0,31,32
 404 -30 404 -30 275 104 c 1,33,-1
 156 -65 l 1,34,-1
 -7 51 l 1,35,-1
 162 288 l 1,17,18
EndSplineSet
EndChar
StartChar: infinity
Encoding: 8734 8734 146
Width: 1234
VWidth: 3393
Flags: W
HStem: 224 197<238.529 409.956 817.803 989.222> 842 200<241.36 412.559 815.597 996.222>
VStem: 13 184<471.272 789.368> 1039 182<479.067 792.488>
Fore
726 631 m 1,0,1
 771 519 771 519 815 469 c 0,2,3
 855 421 855 421 903 421 c 0,4,5
 961 421 961 421 1001 482 c 0,6,7
 1039 540 1039 540 1039 635 c 256,8,9
 1039 729 1039 729 1005 785.5 c 128,-1,10
 971 842 971 842 913 842 c 0,11,12
 794 842 794 842 726 631 c 1,0,1
505 635 m 1,13,14
 454 761 454 761 414 800 c 0,15,16
 379 842 379 842 330 842 c 0,17,18
 272 842 272 842 230 784 c 0,19,20
 197 726 197 726 197 631 c 256,21,22
 197 537 197 537 229.5 479 c 128,-1,23
 262 421 262 421 320 421 c 0,24,25
 424 421 424 421 505 635 c 1,13,14
618 832 m 1,26,27
 703 1042 703 1042 903 1042 c 0,28,29
 1046 1042 1046 1042 1137 930 c 0,30,31
 1221 822 1221 822 1221 631 c 0,32,33
 1221 454 1221 454 1133 340 c 0,34,35
 1042 224 1042 224 903 224 c 0,36,37
 815 224 815 224 749 272 c 128,-1,38
 683 320 683 320 618 428 c 1,39,40
 505 224 505 224 333 224 c 0,41,42
 194 224 194 224 101 340 c 0,43,44
 13 447 13 447 13 631 c 0,45,46
 13 822 13 822 98 930 c 0,47,48
 187 1042 187 1042 330 1042 c 0,49,50
 515 1042 515 1042 618 832 c 1,26,27
EndSplineSet
EndChar
StartChar: plusminus
Encoding: 177 177 147
Width: 1234
VWidth: 3393
Flags: W
HStem: 0 237<88 1147> 696 234<88 499 736 1147>
VStem: 499 237<340 696 930 1286>
Fore
736 930 m 1,0,-1
 1147 930 l 1,1,-1
 1147 696 l 1,2,-1
 736 696 l 1,3,-1
 736 340 l 1,4,-1
 499 340 l 1,5,-1
 499 696 l 1,6,-1
 88 696 l 1,7,-1
 88 930 l 1,8,-1
 499 930 l 1,9,-1
 499 1286 l 1,10,-1
 736 1286 l 1,11,-1
 736 930 l 1,0,-1
1147 237 m 1,12,-1
 1147 0 l 1,13,-1
 88 0 l 1,14,-1
 88 237 l 1,15,-1
 1147 237 l 1,12,-1
EndSplineSet
EndChar
StartChar: lessequal
Encoding: 8804 8804 148
Width: 1234
VWidth: 3393
Flags: W
HStem: 0 237<88 1147>
Fore
408 739 m 1,0,-1
 1147 529 l 1,1,-1
 1147 288 l 1,2,-1
 88 625 l 1,3,-1
 88 858 l 1,4,-1
 1147 1195 l 1,5,-1
 1147 949 l 1,6,-1
 408 739 l 1,0,-1
1147 0 m 1,7,-1
 88 0 l 1,8,-1
 88 237 l 1,9,-1
 1147 237 l 1,10,-1
 1147 0 l 1,7,-1
EndSplineSet
EndChar
StartChar: greaterequal
Encoding: 8805 8805 149
Width: 1234
VWidth: 3393
Flags: W
HStem: 0 237<88 1147>
Fore
88 1195 m 1,0,-1
 1147 858 l 1,1,-1
 1147 625 l 1,2,-1
 88 288 l 1,3,-1
 88 529 l 1,4,-1
 828 739 l 1,5,-1
 88 949 l 1,6,-1
 88 1195 l 1,0,-1
1147 237 m 1,7,-1
 1147 0 l 1,8,-1
 88 0 l 1,9,-1
 88 237 l 1,10,-1
 1147 237 l 1,7,-1
EndSplineSet
EndChar
StartChar: yen
Encoding: 165 165 150
Width: 1234
VWidth: 3393
Flags: W
HStem: 0 21G<469 764> 437 191<58 466 771 1178> 780 188<58 282 953 1178> 1473 20G<7 335.733 900.267 1225>
VStem: 469 295<0 437>
Fore
326 1493 m 1,0,-1
 618 893 l 1,1,-1
 910 1493 l 1,2,-1
 1225 1493 l 1,3,-1
 953 968 l 1,4,-1
 1178 968 l 1,5,-1
 1178 780 l 1,6,-1
 855 780 l 1,7,-1
 771 628 l 1,8,-1
 1178 628 l 1,9,-1
 1178 437 l 1,10,-1
 764 437 l 1,11,-1
 764 0 l 1,12,-1
 469 0 l 1,13,-1
 469 437 l 1,14,-1
 58 437 l 1,15,-1
 58 628 l 1,16,-1
 466 628 l 1,17,-1
 379 780 l 1,18,-1
 58 780 l 1,19,-1
 58 968 l 1,20,-1
 282 968 l 1,21,-1
 7 1493 l 1,22,-1
 326 1493 l 1,0,-1
EndSplineSet
EndChar
StartChar: mu
Encoding: 181 181 151
Width: 1234
VWidth: 3393
Flags: W
HStem: -428 21G<172 466> -30 240<513.297 735.047 992.978 1183.42> 1100 20G<172 462 787 1075>
VStem: 172 290<-428 65 264.197 1120> 787 288<264.197 343 343 1120>
Fore
172 1120 m 1,0,-1
 462 1120 l 1,1,-1
 462 441 l 2,2,3
 462 210 462 210 625 210 c 256,4,5
 787 210 787 210 787 441 c 2,6,-1
 787 1120 l 1,7,-1
 1075 1120 l 1,8,-1
 1075 343 l 2,9,10
 1075 272 1075 272 1089.5 241 c 128,-1,11
 1104 210 1104 210 1133 210 c 256,12,13
 1163 210 1163 210 1188 234 c 1,14,-1
 1188 17 l 1,15,16
 1104 -30 1104 -30 1039 -30 c 0,17,18
 896 -30 896 -30 848 129 c 1,19,20
 771 -30 771 -30 631 -30 c 0,21,22
 515 -30 515 -30 462 65 c 1,23,-1
 466 -428 l 1,24,-1
 172 -428 l 1,25,-1
 172 1120 l 1,0,-1
EndSplineSet
EndChar
StartChar: partialdiff
Encoding: 8706 8706 152
Width: 1234
VWidth: 3393
Flags: W
HStem: -23 68<437.082 640.107> 761 81<518.923 715.356> 1221 129<602 838.482>
VStem: 146 240<184.314 570.071> 872 220<710.011 1054.29>
Fore
832 661 m 1,0,1
 852 761 852 761 862 850.5 c 128,-1,2
 872 940 872 940 872 1007 c 0,3,4
 872 1107 872 1107 847 1164 c 128,-1,5
 822 1221 822 1221 774 1221 c 0,6,7
 729 1221 729 1221 628 1150 c 0,8,9
 529 1075 529 1075 469 1075 c 0,10,11
 428 1075 428 1075 399 1106 c 128,-1,12
 370 1137 370 1137 370 1181 c 0,13,14
 370 1246 370 1246 454 1296 c 0,15,16
 540 1350 540 1350 664 1350 c 0,17,18
 862 1350 862 1350 978 1188 c 0,19,20
 1092 1032 1092 1032 1092 757 c 0,21,22
 1092 414 1092 414 936 197 c 0,23,24
 780 -23 780 -23 540 -23 c 0,25,26
 366 -23 366 -23 258 88 c 0,27,28
 146 207 146 207 146 379 c 0,29,30
 146 583 146 583 262 709 c 0,31,32
 379 842 379 842 550 842 c 0,33,34
 651 842 651 842 717.5 799.5 c 128,-1,35
 784 757 784 757 832 661 c 1,0,1
771 519 m 0,36,37
 771 761 771 761 621 761 c 0,38,39
 522 761 522 761 454 625 c 256,40,41
 386 489 386 489 386 282 c 0,42,43
 386 45 386 45 537 45 c 0,44,45
 638 45 638 45 703 181 c 0,46,47
 771 305 771 305 771 519 c 0,36,37
EndSplineSet
EndChar
StartChar: summation
Encoding: 8721 8721 153
Width: 1234
VWidth: 3393
Flags: W
HStem: -437 213<437 1107> 1306 215<441 1089>
Fore
126 1382 m 1,0,-1
 126 1521 l 1,1,-1
 1089 1521 l 1,2,-1
 1089 1306 l 1,3,-1
 441 1306 l 1,4,-1
 890 570 l 1,5,-1
 437 -224 l 1,6,-1
 1107 -224 l 1,7,-1
 1107 -437 l 1,8,-1
 126 -437 l 1,9,-1
 126 -302 l 1,10,-1
 621 570 l 1,11,-1
 126 1382 l 1,0,-1
EndSplineSet
EndChar
StartChar: product
Encoding: 8719 8719 154
Width: 1234
VWidth: 3393
Flags: W
HStem: 1314 207<408 825>
VStem: 152 256<-437 1314> 825 257<-437 1314>
Fore
1082 -437 m 1,0,-1
 825 -437 l 1,1,-1
 825 1314 l 1,2,-1
 408 1314 l 1,3,-1
 408 -437 l 1,4,-1
 152 -437 l 1,5,-1
 152 1521 l 1,6,-1
 1082 1521 l 1,7,-1
 1082 -437 l 1,0,-1
EndSplineSet
EndChar
StartChar: pi
Encoding: 960 960 155
Width: 1234
VWidth: 3393
Flags: W
HStem: -41 210<1046.82 1212.12> 893 211<13 176 462 736 1021 1185>
VStem: 176 286<0 893> 736 285<200.87 234 268 893>
Fore
1185 893 m 1,0,-1
 1021 893 l 1,1,-1
 1021 363 l 2,2,3
 1021 227 1021 227 1046 200 c 0,4,5
 1072 169 1072 169 1140 169 c 0,6,7
 1168 169 1168 169 1183 169 c 128,-1,8
 1198 169 1198 169 1215 172 c 1,9,-1
 1215 -13 l 1,10,11
 1123 -41 1123 -41 1017 -41 c 0,12,13
 855 -41 855 -41 794 27 c 0,14,15
 761 61 761 61 751 101 c 0,16,17
 736 143 736 143 736 234 c 2,18,-1
 736 268 l 1,19,-1
 736 893 l 1,20,-1
 462 893 l 1,21,-1
 462 0 l 1,22,-1
 176 0 l 1,23,-1
 176 893 l 1,24,-1
 13 893 l 1,25,-1
 13 1104 l 1,26,-1
 1185 1104 l 1,27,-1
 1185 893 l 1,0,-1
EndSplineSet
EndChar
StartChar: integral
Encoding: 8747 8747 156
Width: 1234
VWidth: 3393
Flags: W
HStem: -373 121<242.5 413.289> 1438 116<820.135 996>
VStem: 486 259.5<368.963 386 508.5 600 804 1019.46>
Fore
366 -252 m 0,0,1
 472 -252 472 -252 486 386 c 0,2,3
 489 454 489 454 490.5 508.5 c 128,-1,4
 492 563 492 563 492 600 c 0,5,6
 509 1107 509 1107 615 1331 c 0,7,8
 722 1554 722 1554 943 1554 c 0,9,10
 1049 1554 1049 1554 1100 1506 c 0,11,12
 1160 1457 1160 1457 1160 1377 c 0,13,14
 1160 1317 1160 1317 1121 1281.5 c 128,-1,15
 1082 1246 1082 1246 1021 1246 c 0,16,17
 930 1246 930 1246 903 1337 c 1,18,19
 903 1347 903 1347 901.5 1360.5 c 128,-1,20
 900 1374 900 1374 896 1392 c 1,21,22
 896 1438 896 1438 865 1438 c 0,23,24
 767 1438 767 1438 747 804 c 0,25,26
 747 747 747 747 745.5 702.5 c 128,-1,27
 744 658 744 658 744 625 c 0,28,29
 736 476 736 476 729 365.5 c 128,-1,30
 722 255 722 255 709 181 c 0,31,32
 696 38 696 38 651 -71 c 0,33,34
 537 -373 537 -373 288 -373 c 0,35,36
 197 -373 197 -373 133 -326 c 0,37,38
 71 -275 71 -275 71 -197 c 0,39,40
 71 -136 71 -136 108.5 -98.5 c 128,-1,41
 146 -61 146 -61 214 -61 c 0,42,43
 268 -61 268 -61 302 -91 c 256,44,45
 336 -123 336 -123 336 -162 c 0,46,47
 336 -217 336 -217 343 -237 c 0,48,49
 346 -252 346 -252 366 -252 c 0,0,1
EndSplineSet
EndChar
StartChar: ordfeminine
Encoding: 170 170 157
Width: 1234
VWidth: 3393
Flags: W
HStem: 428 169<292 981> 699 166<491.08 706.498> 1079 142<504.238 787> 1344 177<363.326 766.526>
VStem: 258 218<881.087 1045.39> 787 194<719 810 931.479 1079 1221 1317.42>
Fore
787 1079 m 1,0,-1
 686 1079 l 2,1,2
 476 1079 476 1079 476 971 c 0,3,4
 476 865 476 865 590 865 c 0,5,6
 679 865 679 865 732 920 c 0,7,8
 787 971 787 971 787 1049 c 2,9,-1
 787 1079 l 1,0,-1
787 810 m 1,10,11
 689 699 689 699 537 699 c 0,12,13
 411 699 411 699 333 767 c 0,14,15
 258 838 258 838 258 953 c 0,16,17
 258 1221 258 1221 631 1221 c 2,18,-1
 787 1221 l 1,19,-1
 787 1246 l 2,20,21
 787 1344 787 1344 605 1344 c 0,22,23
 437 1344 437 1344 315 1276 c 1,24,-1
 315 1466 l 1,25,26
 457 1521 457 1521 615 1521 c 0,27,28
 804 1521 804 1521 892.5 1435.5 c 128,-1,29
 981 1350 981 1350 981 1168 c 2,30,-1
 981 719 l 1,31,-1
 787 719 l 1,32,-1
 787 810 l 1,10,11
981 597 m 1,33,-1
 981 428 l 1,34,-1
 292 428 l 1,35,-1
 292 597 l 1,36,-1
 981 597 l 1,33,-1
EndSplineSet
EndChar
StartChar: ordmasculine
Encoding: 186 186 158
Width: 1234
VWidth: 3393
Flags: W
HStem: 428 169<292 981> 699 176<536.276 739.724> 1344 177<536.276 739.724>
VStem: 275 204<938.006 1281.33> 797 204<938.006 1281.11>
Fore
981 597 m 1,0,-1
 981 428 l 1,1,-1
 292 428 l 1,2,-1
 292 597 l 1,3,-1
 981 597 l 1,0,-1
275 1110 m 0,4,5
 275 1299 275 1299 373 1408 c 0,6,7
 472 1521 472 1521 638 1521 c 256,8,9
 804 1521 804 1521 903 1412 c 0,10,11
 1001 1296 1001 1296 1001 1110 c 256,12,13
 1001 923 1001 923 903 807 c 0,14,15
 804 699 804 699 638 699 c 256,16,17
 472 699 472 699 373 807 c 0,18,19
 275 923 275 923 275 1110 c 0,4,5
638 1344 m 256,20,21
 563 1344 563 1344 521 1281 c 128,-1,22
 479 1218 479 1218 479 1110 c 256,23,24
 479 1001 479 1001 521 938 c 128,-1,25
 563 875 563 875 638 875 c 256,26,27
 713 875 713 875 755 938 c 128,-1,28
 797 1001 797 1001 797 1110 c 256,29,30
 797 1218 797 1218 755 1281 c 128,-1,31
 713 1344 713 1344 638 1344 c 256,20,21
EndSplineSet
EndChar
StartChar: Omega
Encoding: 937 937 159
Width: 1234
VWidth: 3393
Flags: W
HStem: 0 210<91 330 906 1143> 1195 268<509.627 722.722>
VStem: 101 300<472.209 1049.62> 832 301<478.668 1049.62>
Fore
330 210 m 1,0,1
 210 320 210 320 152 454 c 0,2,3
 101 593 101 593 101 784 c 0,4,5
 101 1100 101 1100 240 1279 c 0,6,7
 379 1463 379 1463 615 1463 c 0,8,9
 852 1463 852 1463 994 1279 c 0,10,11
 1133 1092 1133 1092 1133 784 c 0,12,13
 1133 587 1133 587 1079 454 c 0,14,15
 1029 323 1029 323 906 210 c 1,16,-1
 1143 210 l 1,17,-1
 1143 0 l 1,18,-1
 673 0 l 1,19,-1
 673 268 l 1,20,21
 754 346 754 346 793 463 c 128,-1,22
 832 580 832 580 832 751 c 0,23,24
 832 964 832 964 775.5 1079.5 c 128,-1,25
 719 1195 719 1195 618 1195 c 256,26,27
 515 1195 515 1195 458 1079.5 c 128,-1,28
 401 964 401 964 401 751 c 0,29,30
 401 421 401 421 563 268 c 1,31,-1
 563 0 l 1,32,-1
 91 0 l 1,33,-1
 91 210 l 1,34,-1
 330 210 l 1,0,1
EndSplineSet
EndChar
StartChar: ae
Encoding: 230 230 160
Width: 1234
VWidth: 3393
Flags: W
HStem: -30 214<267.32 457.387 811.397 1077.18> 482 214<282.344 489 736 964> 933 214<181.522 453.373 765.617 937.918>
VStem: 13 227<209.876 443.129> 489 247<267.272 360 401 479 696 884.481> 964 224<693 884.604>
Fore
489 482 m 1,0,-1
 418 482 l 2,1,2
 240 482 240 482 240 330 c 0,3,4
 240 184 240 184 366 184 c 0,5,6
 489 184 489 184 489 360 c 2,7,-1
 489 401 l 1,8,-1
 489 482 l 1,0,-1
964 713 m 2,9,10
 964 842 964 842 940 886 c 0,11,12
 913 933 913 933 852 933 c 256,13,14
 790 933 790 933 764 886 c 256,15,16
 736 838 736 838 736 713 c 2,17,-1
 736 693 l 1,18,-1
 964 693 l 1,19,-1
 964 713 l 2,9,10
736 479 m 1,20,21
 736 336 736 336 785.5 260 c 128,-1,22
 835 184 835 184 933 184 c 0,23,24
 1052 184 1052 184 1171 302 c 1,25,-1
 1171 58 l 1,26,27
 1079 -30 1079 -30 913 -30 c 0,28,29
 706 -30 706 -30 618 136 c 1,30,31
 537 -30 537 -30 350 -30 c 0,32,33
 187 -30 187 -30 100 61 c 128,-1,34
 13 152 13 152 13 326 c 0,35,36
 13 696 13 696 421 696 c 2,37,-1
 495 696 l 1,38,-1
 495 747 l 2,39,40
 495 933 495 933 343 933 c 0,41,42
 230 933 230 933 75 825 c 1,43,-1
 75 1069 l 1,44,45
 220 1147 220 1147 353 1147 c 0,46,47
 547 1147 547 1147 615 1021 c 1,48,49
 641 1082 641 1082 707.5 1114.5 c 128,-1,50
 774 1147 774 1147 865 1147 c 0,51,52
 1042 1147 1042 1147 1117 1029 c 0,53,54
 1188 913 1188 913 1188 608 c 2,55,-1
 1188 479 l 1,56,-1
 736 479 l 1,20,21
EndSplineSet
EndChar
StartChar: oslash
Encoding: 248 248 161
Width: 1234
VWidth: 3393
Flags: W
HStem: -30 240<493.93 739.07> 910 237<495.23 704.339>
VStem: 98 293<460.646 789.091> 842 295<328.758 644.594>
Fore
482 262 m 1,0,1
 550 210 550 210 618 210 c 0,2,3
 722 210 722 210 784 302 c 0,4,5
 842 401 842 401 842 560 c 0,6,7
 842 587 842 587 840 617.5 c 128,-1,8
 838 648 838 648 832 676 c 1,9,-1
 482 262 l 1,0,1
747 862 m 1,10,11
 719 886 719 886 688.5 898 c 128,-1,12
 658 910 658 910 618 910 c 0,13,14
 512 910 512 910 451.5 818 c 128,-1,15
 391 726 391 726 391 560 c 0,16,17
 391 499 391 499 401 447 c 1,18,-1
 747 862 l 1,10,11
187 200 m 1,19,20
 98 346 98 346 98 560 c 0,21,22
 98 828 98 828 237 988 c 256,23,24
 376 1147 376 1147 618 1147 c 0,25,26
 787 1147 787 1147 916 1059 c 1,27,-1
 1065 1234 l 1,28,-1
 1205 1117 l 1,29,-1
 1042 926 l 1,30,31
 1137 767 1137 767 1137 560 c 0,32,33
 1137 288 1137 288 994 129 c 0,34,35
 855 -30 855 -30 618 -30 c 0,36,37
 447 -30 447 -30 315 61 c 1,38,-1
 162 -119 l 1,39,-1
 23 3 l 1,40,-1
 187 200 l 1,19,20
EndSplineSet
EndChar
StartChar: questiondown
Encoding: 191 191 162
Width: 1234
VWidth: 3393
Flags: W
HStem: -27 241<498.171 840.321> 1211 282<534 800>
VStem: 534 266<866.36 923 930 1092 1211 1493>
Fore
534 1211 m 1,0,-1
 534 1493 l 1,1,-1
 800 1493 l 1,2,-1
 800 1211 l 1,3,-1
 534 1211 l 1,0,-1
800 1092 m 1,4,-1
 800 940 l 2,5,6
 800 838 800 838 771 771 c 0,7,8
 732 696 732 696 658 621 c 2,9,-1
 567 534 l 2,10,11
 509 476 509 476 482 431 c 0,12,13
 462 391 462 391 462 350 c 0,14,15
 462 214 462 214 645 214 c 0,16,17
 810 214 810 214 1007 353 c 1,18,-1
 1007 85 l 1,19,20
 810 -27 810 -27 608 -27 c 0,21,22
 401 -27 401 -27 292 68 c 0,23,24
 176 159 176 159 176 326 c 0,25,26
 176 404 176 404 210 469 c 0,27,28
 249 537 249 537 340 625 c 2,29,-1
 428 713 l 2,30,31
 462 744 462 744 482 770.5 c 128,-1,32
 502 797 502 797 512 819 c 256,33,34
 522 838 522 838 525.5 865.5 c 128,-1,35
 529 893 529 893 529 923 c 1,36,37
 534 930 l 1,38,-1
 534 971 l 1,39,-1
 534 1092 l 1,40,-1
 800 1092 l 1,4,-1
EndSplineSet
EndChar
StartChar: exclamdown
Encoding: 161 161 163
Width: 1234
VWidth: 3393
Flags: W
HStem: 0 21G<482 751> 1211 282<482 751>
VStem: 482 269<0 718.02 1211 1493>
Fore
482 1211 m 1,0,-1
 482 1493 l 1,1,-1
 751 1493 l 1,2,-1
 751 1211 l 1,3,-1
 482 1211 l 1,0,-1
482 0 m 1,4,-1
 482 655 l 1,5,-1
 515 1014 l 1,6,-1
 716 1014 l 1,7,-1
 751 655 l 1,8,-1
 751 0 l 1,9,-1
 482 0 l 1,4,-1
EndSplineSet
EndChar
StartChar: logicalnot
Encoding: 172 172 164
Width: 1234
VWidth: 3393
Flags: W
HStem: 661 239<88 910>
VStem: 910 237<363 661>
Fore
1147 900 m 1,0,-1
 1147 363 l 1,1,-1
 910 363 l 1,2,-1
 910 661 l 1,3,-1
 88 661 l 1,4,-1
 88 900 l 1,5,-1
 1147 900 l 1,0,-1
EndSplineSet
EndChar
StartChar: radical
Encoding: 8730 8730 165
Width: 1234
VWidth: 3393
Flags: W
Fore
48 868 m 1,0,-1
 401 991 l 1,1,-1
 570 411 l 1,2,-1
 961 1727 l 1,3,-1
 1175 1727 l 1,4,-1
 1175 1521 l 1,5,-1
 1123 1521 l 1,6,-1
 661 -41 l 1,7,-1
 476 -41 l 1,8,-1
 258 722 l 1,9,-1
 113 673 l 1,10,-1
 48 868 l 1,0,-1
EndSplineSet
EndChar
StartChar: florin
Encoding: 402 402 166
Width: 1234
VWidth: 3393
Flags: W
HStem: -428 231<29.8026 300.561> 664 222<220 472 754 1014> 1327 231<870.363 1137.24>
Fore
1153 1276 m 1,0,1
 1072 1327 1072 1327 994 1327 c 0,2,3
 815 1327 815 1327 780 1075 c 2,4,-1
 754 886 l 1,5,-1
 1014 886 l 1,6,-1
 1014 664 l 1,7,-1
 726 664 l 1,8,-1
 631 -48 l 2,9,10
 605 -230 605 -230 506.5 -329 c 128,-1,11
 408 -428 408 -428 244 -428 c 0,12,13
 123 -428 123 -428 13 -376 c 1,14,-1
 13 -143 l 1,15,16
 101 -197 101 -197 172 -197 c 0,17,18
 360 -197 360 -197 391 55 c 2,19,-1
 472 664 l 1,20,-1
 220 664 l 1,21,-1
 220 886 l 1,22,-1
 502 886 l 1,23,-1
 540 1181 l 2,24,25
 563 1360 563 1360 663.5 1459 c 128,-1,26
 764 1558 764 1558 926 1558 c 0,27,28
 1049 1558 1049 1558 1153 1506 c 1,29,-1
 1153 1276 l 1,0,1
EndSplineSet
EndChar
StartChar: approxequal
Encoding: 8776 8776 167
Width: 1234
VWidth: 3393
Flags: W
HStem: 255 224<677.416 1012.64> 376 224<220.645 462.096> 673 223<668.916 1018.49> 797 220<220.645 447.416>
Fore
1147 370 m 1,0,1
 1069 308 1069 308 997.5 281.5 c 128,-1,2
 926 255 926 255 848 255 c 0,3,4
 757 255 757 255 645 305 c 0,5,6
 635 312 635 312 628 313.5 c 128,-1,7
 621 315 621 315 615 320 c 0,8,9
 573 336 573 336 541 348 c 128,-1,10
 509 360 509 360 482 366 c 0,11,12
 431 376 431 376 379 376 c 0,13,14
 230 376 230 376 88 258 c 1,15,-1
 88 486 l 1,16,17
 166 547 166 547 239 573.5 c 128,-1,18
 312 600 312 600 398 600 c 0,19,20
 444 600 444 600 500.5 586.5 c 128,-1,21
 557 573 557 573 621 547 c 0,22,23
 628 543 628 543 636.5 540 c 128,-1,24
 645 537 645 537 655 534 c 0,25,26
 764 479 764 479 865 479 c 0,27,28
 1001 479 1001 479 1147 605 c 1,29,-1
 1147 370 l 1,0,1
1147 787 m 1,30,31
 998 673 998 673 848 673 c 0,32,33
 757 673 757 673 645 722 c 0,34,35
 618 736 618 736 615 736 c 1,36,37
 573 754 573 754 541 765.5 c 128,-1,38
 509 777 509 777 482 784 c 256,39,40
 454 790 454 790 431 793.5 c 128,-1,41
 408 797 408 797 379 797 c 0,42,43
 230 797 230 797 88 676 c 1,44,-1
 88 903 l 1,45,46
 166 964 166 964 239 990.5 c 128,-1,47
 312 1017 312 1017 398 1017 c 0,48,49
 444 1017 444 1017 500.5 1004 c 128,-1,50
 557 991 557 991 621 964 c 0,51,52
 641 958 641 958 651 949 c 0,53,54
 764 896 764 896 865 896 c 0,55,56
 936 896 936 896 1004 924.5 c 128,-1,57
 1072 953 1072 953 1147 1021 c 1,58,-1
 1147 787 l 1,30,31
EndSplineSet
EndChar
StartChar: Delta
Encoding: 8710 8710 168
Width: 1234
VWidth: 3393
Flags: W
HStem: 0 220<343 893>
Fore
618 1042 m 1,0,-1
 343 220 l 1,1,-1
 893 220 l 1,2,-1
 618 1042 l 1,0,-1
747 1425 m 1,3,-1
 1243 0 l 1,4,-1
 -7 0 l 1,5,-1
 489 1425 l 1,6,-1
 747 1425 l 1,3,-1
EndSplineSet
EndChar
StartChar: guillemotleft
Encoding: 171 171 169
Width: 1234
VWidth: 3393
Flags: W
HStem: 143 916<1042 1042>
VStem: 119 923<537 822>
Fore
1042 822 m 1,0,-1
 767 600 l 1,1,-1
 1042 379 l 1,2,-1
 1042 143 l 1,3,-1
 573 537 l 1,4,-1
 573 664 l 1,5,-1
 1042 1059 l 1,6,-1
 1042 822 l 1,0,-1
587 822 m 1,7,-1
 312 600 l 1,8,-1
 587 379 l 1,9,-1
 587 143 l 1,10,-1
 119 537 l 1,11,-1
 119 664 l 1,12,-1
 587 1059 l 1,13,-1
 587 822 l 1,7,-1
EndSplineSet
EndChar
StartChar: guillemotright
Encoding: 187 187 170
Width: 1234
VWidth: 3393
Flags: W
HStem: 143 916<194 194>
VStem: 194 923<143 664>
Fore
661 664 m 1,0,-1
 661 537 l 1,1,-1
 194 143 l 1,2,-1
 194 379 l 1,3,-1
 469 600 l 1,4,-1
 194 822 l 1,5,-1
 194 1059 l 1,6,-1
 661 664 l 1,0,-1
1117 664 m 1,7,-1
 1117 537 l 1,8,-1
 648 143 l 1,9,-1
 648 379 l 1,10,-1
 926 600 l 1,11,-1
 648 822 l 1,12,-1
 648 1059 l 1,13,-1
 1117 664 l 1,7,-1
EndSplineSet
EndChar
StartChar: ellipsis
Encoding: 8230 8230 171
Width: 1234
VWidth: 3393
Flags: W
HStem: 0 366<58 353 469 764 882 1178>
VStem: 58 295<0 366> 469 295<0 366> 882 296<0 366>
Fore
1178 366 m 1,0,-1
 1178 0 l 1,1,-1
 882 0 l 1,2,-1
 882 366 l 1,3,-1
 1178 366 l 1,0,-1
764 366 m 1,4,-1
 764 0 l 1,5,-1
 469 0 l 1,6,-1
 469 366 l 1,7,-1
 764 366 l 1,4,-1
353 366 m 1,8,-1
 353 0 l 1,9,-1
 58 0 l 1,10,-1
 58 366 l 1,11,-1
 353 366 l 1,8,-1
EndSplineSet
EndChar
StartChar: OE
Encoding: 338 338 176
Width: 1234
VWidth: 3393
Flags: W
HStem: 0 262<434.529 621 875 1218> 661 262<875 1178> 1234 259<436.807 621 875 1208>
VStem: 68 285<353.19 1134.5> 621 254<262 661 923 1234>
Fore
1218 0 m 1,0,-1
 635 0 l 2,1,2
 308 0 308 0 187 156 c 0,3,4
 68 312 68 312 68 747 c 0,5,6
 68 1185 68 1185 191 1337 c 0,7,8
 312 1493 312 1493 635 1493 c 2,9,-1
 1208 1493 l 1,10,-1
 1208 1234 l 1,11,-1
 875 1234 l 1,12,-1
 875 923 l 1,13,-1
 1178 923 l 1,14,-1
 1178 661 l 1,15,-1
 875 661 l 1,16,-1
 875 262 l 1,17,-1
 1218 262 l 1,18,-1
 1218 0 l 1,0,-1
570 1234 m 1,19,20
 447 1234 447 1234 401 1143 c 0,21,22
 353 1056 353 1056 353 747 c 0,23,24
 353 434 353 434 401 346 c 0,25,26
 444 262 444 262 570 262 c 2,27,-1
 621 262 l 1,28,-1
 621 1234 l 1,29,-1
 570 1234 l 1,19,20
EndSplineSet
EndChar
StartChar: oe
Encoding: 339 339 177
Width: 1234
VWidth: 3393
Flags: W
HStem: -30 214<291.039 476.766 835.798 1100.79> 479 214<761 988> 936 211<295.241 477.695 791.123 959.659>
VStem: 13 236<241.787 878.044> 519 242<267.272 479 693 865.741> 988 223<693 889.06>
Fore
761 479 m 1,0,1
 761 336 761 336 809.5 260 c 128,-1,2
 858 184 858 184 953 184 c 0,3,4
 1075 184 1075 184 1195 302 c 1,5,-1
 1195 58 l 1,6,7
 1104 -30 1104 -30 936 -30 c 0,8,9
 747 -30 747 -30 648 119 c 1,10,11
 570 -30 570 -30 373 -30 c 0,12,13
 187 -30 187 -30 98 109 c 0,14,15
 13 244 13 244 13 560 c 256,16,17
 13 875 13 875 98 1011 c 256,18,19
 184 1147 184 1147 373 1147 c 0,20,21
 472 1147 472 1147 534.5 1118 c 128,-1,22
 597 1089 597 1089 638 1021 c 1,23,24
 696 1147 696 1147 890 1147 c 0,25,26
 1069 1147 1069 1147 1137 1029 c 0,27,28
 1211 913 1211 913 1211 608 c 2,29,-1
 1211 479 l 1,30,-1
 761 479 l 1,0,1
988 726 m 2,31,32
 988 845 988 845 962 890.5 c 128,-1,33
 936 936 936 936 872 936 c 0,34,35
 815 936 815 936 787 886 c 0,36,37
 761 838 761 838 761 713 c 2,38,-1
 761 693 l 1,39,-1
 988 693 l 1,40,-1
 988 726 l 2,31,32
519 560 m 256,41,42
 519 797 519 797 492 868 c 0,43,44
 462 936 462 936 386 936 c 0,45,46
 308 936 308 936 278 868 c 0,47,48
 249 804 249 804 249 560 c 0,49,50
 249 320 249 320 278 252 c 256,51,52
 308 184 308 184 386 184 c 0,53,54
 462 184 462 184 492 252 c 0,55,56
 519 323 519 323 519 560 c 256,41,42
EndSplineSet
EndChar
StartChar: endash
Encoding: 8211 8211 178
Width: 1234
VWidth: 3393
Flags: W
HStem: 444 249<0 1234>
Fore
1234 693 m 1,0,-1
 1234 444 l 1,1,-1
 0 444 l 1,2,-1
 0 693 l 1,3,-1
 1234 693 l 1,0,-1
EndSplineSet
EndChar
StartChar: emdash
Encoding: 8212 8212 179
Width: 1234
VWidth: 3393
Flags: W
HStem: 444 249<0 1234>
Fore
1234 693 m 1,0,-1
 1234 444 l 1,1,-1
 0 444 l 1,2,-1
 0 693 l 1,3,-1
 1234 693 l 1,0,-1
EndSplineSet
EndChar
StartChar: quotedblleft
Encoding: 8220 8220 180
Width: 1234
VWidth: 3393
Flags: W
HStem: 1538 20G<339.661 563 857.817 1082>
VStem: 152 314<903 1175> 673 315<903 1175>
Fore
152 903 m 1,0,-1
 152 1175 l 1,1,-1
 350 1558 l 1,2,-1
 563 1558 l 1,3,-1
 466 1175 l 1,4,-1
 466 903 l 1,5,-1
 152 903 l 1,0,-1
673 903 m 1,6,-1
 673 1175 l 1,7,-1
 868 1558 l 1,8,-1
 1082 1558 l 1,9,-1
 988 1175 l 1,10,-1
 988 903 l 1,11,-1
 673 903 l 1,6,-1
EndSplineSet
EndChar
StartChar: quotedblright
Encoding: 8221 8221 181
Width: 1234
VWidth: 3393
Flags: W
HStem: 1538 20G<249 560 771 1082>
VStem: 249 311<1286 1558> 771 311<1286 1558>
Fore
1082 1558 m 1,0,-1
 1082 1286 l 1,1,-1
 886 903 l 1,2,-1
 673 903 l 1,3,-1
 771 1286 l 1,4,-1
 771 1558 l 1,5,-1
 1082 1558 l 1,0,-1
560 1558 m 1,6,-1
 560 1286 l 1,7,-1
 366 903 l 1,8,-1
 149 903 l 1,9,-1
 249 1286 l 1,10,-1
 249 1558 l 1,11,-1
 560 1558 l 1,6,-1
EndSplineSet
EndChar
StartChar: quoteleft
Encoding: 8216 8216 182
Width: 1234
VWidth: 3393
Flags: W
HStem: 1538 20G<620.556 845>
VStem: 431 316<903 1175>
Fore
431 903 m 1,0,-1
 431 1175 l 1,1,-1
 631 1558 l 1,2,-1
 845 1558 l 1,3,-1
 747 1175 l 1,4,-1
 747 903 l 1,5,-1
 431 903 l 1,0,-1
EndSplineSet
EndChar
StartChar: quoteright
Encoding: 8217 8217 183
Width: 1234
VWidth: 3393
Flags: W
HStem: 1538 20G<529 845>
VStem: 529 316<1286 1558>
Fore
845 1558 m 1,0,-1
 845 1286 l 1,1,-1
 648 903 l 1,2,-1
 431 903 l 1,3,-1
 529 1286 l 1,4,-1
 529 1558 l 1,5,-1
 845 1558 l 1,0,-1
EndSplineSet
EndChar
StartChar: divide
Encoding: 247 247 184
Width: 1234
VWidth: 3393
Flags: W
HStem: 85 313<462 771> 525 239<65 1168> 890 308<462 771>
VStem: 462 309<85 398 890 1198>
Fore
771 1198 m 1,0,-1
 771 890 l 1,1,-1
 462 890 l 1,2,-1
 462 1198 l 1,3,-1
 771 1198 l 1,0,-1
771 398 m 1,4,-1
 771 85 l 1,5,-1
 462 85 l 1,6,-1
 462 398 l 1,7,-1
 771 398 l 1,4,-1
1168 764 m 1,8,-1
 1168 525 l 1,9,-1
 65 525 l 1,10,-1
 65 764 l 1,11,-1
 1168 764 l 1,8,-1
EndSplineSet
EndChar
StartChar: lozenge
Encoding: 9674 9674 185
Width: 1234
VWidth: 3393
Flags: W
VStem: 119 998<593 593>
Fore
230 593 m 1,0,-1
 618 -234 l 1,1,-1
 1001 593 l 1,2,-1
 618 1412 l 1,3,-1
 230 593 l 1,0,-1
1117 593 m 1,4,-1
 618 -479 l 1,5,-1
 119 593 l 1,6,-1
 618 1655 l 1,7,-1
 1117 593 l 1,4,-1
EndSplineSet
EndChar
StartChar: fraction
Encoding: 8725 8725 188
Width: 1234
VWidth: 3393
Flags: W
HStem: 1473 20G<880.643 1130>
Fore
1130 1493 m 1,0,-1
 343 -187 l 1,1,-1
 104 -187 l 1,2,-1
 890 1493 l 1,3,-1
 1130 1493 l 1,0,-1
EndSplineSet
EndChar
StartChar: currency
Encoding: 164 164 189
Width: 1234
VWidth: 3393
Flags: W
HStem: 302 167<535.814 770.954> 815 169<533.046 772.977>
VStem: 312 167<525.54 760.414> 828 166<525.947 760.292>
Fore
828 645 m 0,0,1
 828 716 828 716 777 767 c 0,2,3
 722 815 722 815 655 815 c 0,4,5
 583 815 583 815 529 767 c 0,6,7
 479 716 479 716 479 645 c 0,8,9
 479 570 479 570 529 519 c 256,10,11
 580 469 580 469 655 469 c 0,12,13
 726 469 726 469 777 519 c 256,14,15
 828 570 828 570 828 645 c 0,0,1
991 1110 m 1,16,-1
 1120 981 l 1,17,-1
 949 810 l 1,18,19
 994 726 994 726 994 641 c 0,20,21
 994 547 994 547 946 479 c 1,22,-1
 1120 308 l 1,23,-1
 988 176 l 1,24,-1
 819 350 l 1,25,26
 751 302 751 302 655 302 c 0,27,28
 577 302 577 302 486 343 c 1,29,-1
 315 176 l 1,30,-1
 187 305 l 1,31,-1
 356 476 l 1,32,33
 312 560 312 560 312 641 c 0,34,35
 312 736 312 736 360 807 c 1,36,-1
 187 978 l 1,37,-1
 320 1110 l 1,38,-1
 482 936 l 1,39,40
 563 984 563 984 655 984 c 0,41,42
 732 984 732 984 822 940 c 1,43,-1
 991 1110 l 1,16,-1
EndSplineSet
EndChar
StartChar: guilsinglleft
Encoding: 8249 8249 190
Width: 1234
VWidth: 3393
Flags: W
HStem: 143 916<815 815>
VStem: 346 469<537 822>
Fore
815 822 m 1,0,-1
 540 600 l 1,1,-1
 815 379 l 1,2,-1
 815 143 l 1,3,-1
 346 537 l 1,4,-1
 346 664 l 1,5,-1
 815 1059 l 1,6,-1
 815 822 l 1,0,-1
EndSplineSet
EndChar
StartChar: guilsinglright
Encoding: 8250 8250 191
Width: 1234
VWidth: 3393
Flags: W
HStem: 143 916<421 421>
VStem: 421 469<143 664>
Fore
890 664 m 1,0,-1
 890 537 l 1,1,-1
 421 143 l 1,2,-1
 421 379 l 1,3,-1
 699 600 l 1,4,-1
 421 822 l 1,5,-1
 421 1059 l 1,6,-1
 890 664 l 1,0,-1
EndSplineSet
EndChar
StartChar: fi
Encoding: 64257 64257 192
Width: 1234
VWidth: 3393
Flags: W
HStem: 0 21G<200 495 804 1100> 896 224<13 200 495 804> 1266 292<804 1100> 1334 224<519.975 676>
VStem: 200 295<0 896 1120 1310.21> 804 296<0 896 1266 1558>
Fore
1100 1558 m 1,0,-1
 1100 1266 l 1,1,-1
 804 1266 l 1,2,-1
 804 1558 l 1,3,-1
 1100 1558 l 1,0,-1
495 1120 m 1,4,-1
 1100 1120 l 1,5,-1
 1100 0 l 1,6,-1
 804 0 l 1,7,-1
 804 896 l 1,8,-1
 495 896 l 1,9,-1
 495 0 l 1,10,-1
 200 0 l 1,11,-1
 200 896 l 1,12,-1
 13 896 l 1,13,-1
 13 1120 l 1,14,-1
 200 1120 l 1,15,-1
 200 1198 l 2,16,17
 200 1402 200 1402 285 1480 c 256,18,19
 370 1558 370 1558 597 1558 c 2,20,-1
 676 1558 l 1,21,-1
 676 1334 l 1,22,-1
 608 1334 l 2,23,24
 550 1334 550 1334 519 1311 c 0,25,26
 495 1286 495 1286 495 1221 c 2,27,-1
 495 1120 l 1,4,-1
EndSplineSet
Ligature2: "'liga' Standard Ligatures in Latin lookup 19 subtable" f i
EndChar
StartChar: fl
Encoding: 64258 64258 193
Width: 1234
VWidth: 3393
Flags: W
HStem: 0 21G<200 495 804 1100> 896 224<13 200 495 683> 1334 224<519.975 804>
VStem: 200 295<0 896 1120 1310.21> 804 296<0 1334>
Fore
495 1120 m 1,0,-1
 683 1120 l 1,1,-1
 683 896 l 1,2,-1
 495 896 l 1,3,-1
 495 0 l 1,4,-1
 200 0 l 1,5,-1
 200 896 l 1,6,-1
 13 896 l 1,7,-1
 13 1120 l 1,8,-1
 200 1120 l 1,9,-1
 200 1198 l 2,10,11
 200 1402 200 1402 285 1480 c 256,12,13
 370 1558 370 1558 597 1558 c 2,14,-1
 1100 1558 l 1,15,-1
 1100 0 l 1,16,-1
 804 0 l 1,17,-1
 804 1334 l 1,18,-1
 608 1334 l 2,19,20
 550 1334 550 1334 519 1311 c 0,21,22
 495 1286 495 1286 495 1221 c 2,23,-1
 495 1120 l 1,0,-1
EndSplineSet
Ligature2: "'liga' Standard Ligatures in Latin lookup 19 subtable" f l
EndChar
StartChar: daggerdbl
Encoding: 8225 8225 194
Width: 1234
VWidth: 3393
Flags: W
HStem: 191 223<156 489 744 1075> 882 225<156 489 744 1075> 1473 20G<489 744>
VStem: 489 255<-197 191 414 882 1107 1493>
Fore
744 1493 m 1,0,-1
 744 1107 l 1,1,-1
 1075 1107 l 1,2,-1
 1075 882 l 1,3,-1
 744 882 l 1,4,-1
 744 414 l 1,5,-1
 1075 414 l 1,6,-1
 1075 191 l 1,7,-1
 744 191 l 1,8,-1
 744 -197 l 1,9,-1
 489 -197 l 1,10,-1
 489 191 l 1,11,-1
 156 191 l 1,12,-1
 156 414 l 1,13,-1
 489 414 l 1,14,-1
 489 882 l 1,15,-1
 156 882 l 1,16,-1
 156 1107 l 1,17,-1
 489 1107 l 1,18,-1
 489 1493 l 1,19,-1
 744 1493 l 1,0,-1
EndSplineSet
EndChar
StartChar: periodcentered
Encoding: 183 183 195
Width: 1234
VWidth: 3393
Flags: W
HStem: 529 367<447 784>
VStem: 447 337<529 896>
Fore
784 896 m 1,0,-1
 784 529 l 1,1,-1
 447 529 l 1,2,-1
 447 896 l 1,3,-1
 784 896 l 1,0,-1
EndSplineSet
EndChar
StartChar: quotesinglbase
Encoding: 8218 8218 196
Width: 1234
VWidth: 3393
Flags: W
VStem: 462 312<94 366>
Fore
774 366 m 1,0,-1
 774 94 l 1,1,-1
 580 -288 l 1,2,-1
 363 -288 l 1,3,-1
 462 94 l 1,4,-1
 462 366 l 1,5,-1
 774 366 l 1,0,-1
EndSplineSet
EndChar
StartChar: quotedblbase
Encoding: 8222 8222 197
Width: 1234
VWidth: 3393
Flags: W
VStem: 249 311<94 366> 771 311<94 366>
Fore
1082 366 m 1,0,-1
 1082 94 l 1,1,-1
 886 -288 l 1,2,-1
 673 -288 l 1,3,-1
 771 94 l 1,4,-1
 771 366 l 1,5,-1
 1082 366 l 1,0,-1
560 366 m 1,6,-1
 560 94 l 1,7,-1
 366 -288 l 1,8,-1
 149 -288 l 1,9,-1
 249 94 l 1,10,-1
 249 366 l 1,11,-1
 560 366 l 1,6,-1
EndSplineSet
EndChar
StartChar: perthousand
Encoding: 8240 8240 198
Width: 1234
VWidth: 3393
Flags: W
HStem: 0 162<242.063 420.079 856.06 1037.63> 414 163<245.067 416.902 856.054 1037.74> 858 159<196.901 373.881> 1273 159<199.129 371.656>
VStem: 0 162<1055.1 1240.15> 45 162<197.492 380.981> 411 159<1056.39 1235.28> 454 164<201.161 374.872> 661 164<201.067 374.963> 1072 162<197.59 378.857>
Fore
661 288 m 1,0,1
 661 411 661 411 744 492 c 0,2,3
 835 577 835 577 946 577 c 256,4,5
 1059 577 1059 577 1150 492 c 0,6,7
 1234 408 1234 408 1234 288 c 0,8,9
 1234 176 1234 176 1150 85 c 0,10,11
 1065 0 1065 0 946 0 c 256,12,13
 828 0 828 0 747 81 c 0,14,15
 661 172 661 172 661 285 c 2,16,-1
 661 288 l 1,0,1
946 414 m 0,17,18
 903 414 903 414 858 376 c 0,19,20
 825 343 825 343 825 288 c 256,21,22
 825 234 825 234 858 200 c 0,23,24
 893 162 893 162 946 162 c 256,25,26
 1001 162 1001 162 1036 200 c 0,27,28
 1072 237 1072 237 1072 288 c 256,29,30
 1072 340 1072 340 1036 376 c 256,31,32
 998 414 998 414 946 414 c 0,17,18
0 1147 m 0,33,34
 0 1266 0 1266 81 1350 c 0,35,36
 169 1432 169 1432 288 1432 c 256,37,38
 408 1432 408 1432 489 1350 c 0,39,40
 570 1266 570 1266 570 1147 c 256,41,42
 570 1029 570 1029 489 940 c 0,43,44
 408 858 408 858 288 858 c 0,45,46
 166 858 166 858 85 940 c 0,47,48
 0 1024 0 1024 0 1147 c 0,33,34
285 1273 m 0,49,50
 234 1273 234 1273 198 1237 c 128,-1,51
 162 1201 162 1201 162 1147 c 256,52,53
 162 1092 162 1092 197 1059 c 0,54,55
 234 1017 234 1017 285 1017 c 0,56,57
 340 1017 340 1017 373 1059 c 0,58,59
 411 1097 411 1097 411 1147 c 0,60,61
 411 1191 411 1191 373 1234 c 1,62,63
 330 1273 330 1273 285 1273 c 0,49,50
45 288 m 0,64,65
 45 411 45 411 126 492 c 0,66,67
 217 577 217 577 330 577 c 0,68,69
 447 577 447 577 534 492 c 256,70,71
 618 408 618 408 618 288 c 0,72,73
 618 176 618 176 534 85 c 0,74,75
 447 0 447 0 330 0 c 256,76,77
 210 0 210 0 129 85 c 0,78,79
 45 169 45 169 45 288 c 0,64,65
330 414 m 0,80,81
 278 414 278 414 244 379 c 0,82,83
 207 336 207 336 207 292 c 0,84,85
 207 237 207 237 244 200 c 256,86,87
 282 162 282 162 330 162 c 0,88,89
 379 162 379 162 418 200 c 256,90,91
 454 237 454 237 454 292 c 0,92,93
 454 340 454 340 418 376 c 0,94,95
 383 414 383 414 330 414 c 0,80,81
1079 1079 m 1,96,-1
 1120 988 l 1,97,-1
 71 567 l 1,98,-1
 33 664 l 1,99,-1
 1079 1079 l 1,96,-1
EndSplineSet
EndChar
StartChar: dotlessi
Encoding: 305 305 214
Width: 1234
VWidth: 3393
Flags: W
HStem: 0 224<143 509 800 1168> 896 224<220 509>
VStem: 509 291<224 896>
Fore
800 1120 m 1,0,-1
 800 224 l 1,1,-1
 1168 224 l 1,2,-1
 1168 0 l 1,3,-1
 143 0 l 1,4,-1
 143 224 l 1,5,-1
 509 224 l 1,6,-1
 509 896 l 1,7,-1
 220 896 l 1,8,-1
 220 1120 l 1,9,-1
 800 1120 l 1,0,-1
EndSplineSet
EndChar
StartChar: circumflex
Encoding: 710 710 215
Width: 1234
VWidth: 3393
Flags: W
HStem: 1263 376<736 994>
VStem: 240 754<1263 1263>
Fore
736 1639 m 1,0,-1
 994 1263 l 1,1,-1
 815 1263 l 1,2,-1
 618 1490 l 1,3,-1
 418 1263 l 1,4,-1
 240 1263 l 1,5,-1
 495 1639 l 1,6,-1
 736 1639 l 1,0,-1
EndSplineSet
EndChar
StartChar: tilde
Encoding: 732 732 216
Width: 1234
VWidth: 3393
Flags: W
HStem: 1311 152<716.916 812.639> 1438 158<420.052 542.102>
VStem: 268 140<1311 1431.57> 825 143<1469.65 1592>
Fore
563 1402 m 2,0,1
 560 1405 560 1405 558.5 1405 c 128,-1,2
 557 1405 557 1405 553 1412 c 1,3,4
 505 1438 505 1438 482 1438 c 0,5,6
 408 1438 408 1438 408 1321 c 2,7,-1
 408 1311 l 1,8,-1
 268 1311 l 1,9,10
 268 1448 268 1448 319 1522 c 128,-1,11
 370 1596 370 1596 466 1596 c 0,12,13
 537 1596 537 1596 615 1538 c 2,14,-1
 676 1493 l 2,15,16
 699 1480 699 1480 715.5 1471.5 c 128,-1,17
 732 1463 732 1463 751 1463 c 0,18,19
 825 1463 825 1463 825 1584 c 2,20,-1
 825 1592 l 1,21,-1
 968 1592 l 1,22,23
 968 1457 968 1457 915 1384 c 128,-1,24
 862 1311 862 1311 771 1311 c 0,25,26
 732 1311 732 1311 698 1321 c 128,-1,27
 664 1331 664 1331 618 1364 c 2,28,-1
 563 1402 l 2,0,1
EndSplineSet
EndChar
StartChar: macron
Encoding: 175 175 217
Width: 1234
VWidth: 3393
Flags: W
HStem: 1370 188<302 933>
Fore
933 1558 m 1,0,-1
 933 1370 l 1,1,-1
 302 1370 l 1,2,-1
 302 1558 l 1,3,-1
 933 1558 l 1,0,-1
EndSplineSet
EndChar
StartChar: breve
Encoding: 728 728 218
Width: 1234
VWidth: 3393
Flags: W
HStem: 1311 152<475.23 757.94>
VStem: 282 671<1463 1609 1609 1609>
Fore
421 1609 m 1,0,1
 447 1463 447 1463 618 1463 c 0,2,3
 784 1463 784 1463 810 1609 c 1,4,-1
 953 1609 l 1,5,6
 936 1311 936 1311 618 1311 c 0,7,8
 457 1311 457 1311 372.5 1387 c 128,-1,9
 288 1463 288 1463 282 1609 c 1,10,-1
 421 1609 l 1,0,1
EndSplineSet
EndChar
StartChar: dotaccent
Encoding: 729 729 219
Width: 1234
VWidth: 3393
Flags: W
HStem: 1341 246<479 754>
VStem: 479 275<1341 1587>
Fore
754 1587 m 1,0,-1
 754 1341 l 1,1,-1
 479 1341 l 1,2,-1
 479 1587 l 1,3,-1
 754 1587 l 1,0,-1
EndSplineSet
EndChar
StartChar: ring
Encoding: 730 730 220
Width: 1234
VWidth: 3393
Flags: W
HStem: 1249 156<539.85 711.82> 1667 156<520.738 710.088>
VStem: 333 153<1439.17 1630.73> 751 152<1442.49 1629.18>
Fore
333 1538 m 0,0,1
 333 1655 333 1655 414 1738 c 0,2,3
 457 1778 457 1778 507 1800.5 c 128,-1,4
 557 1823 557 1823 618 1823 c 0,5,6
 732 1823 732 1823 819 1738 c 0,7,8
 903 1655 903 1655 903 1538 c 0,9,10
 903 1415 903 1415 819 1334 c 0,11,12
 732 1249 732 1249 618 1249 c 0,13,14
 557 1249 557 1249 507 1270.5 c 128,-1,15
 457 1292 457 1292 414 1334 c 0,16,17
 333 1415 333 1415 333 1538 c 0,0,1
486 1538 m 0,18,19
 486 1480 486 1480 522 1442 c 0,20,21
 567 1405 567 1405 618 1405 c 0,22,23
 673 1405 673 1405 709 1442 c 0,24,25
 751 1483 751 1483 751 1538 c 0,26,27
 751 1587 751 1587 709 1629 c 0,28,29
 664 1667 664 1667 618 1667 c 0,30,31
 567 1667 567 1667 522 1629 c 1,32,33
 486 1584 486 1584 486 1538 c 0,18,19
EndSplineSet
EndChar
StartChar: cedilla
Encoding: 184 184 221
Width: 1234
VWidth: 3393
Flags: W
HStem: -401 146<419.38 644.013> -20 20G<567 765.5>
VStem: 655 167<-239.261 -87.9379>
Fore
709 0 m 1,0,1
 822 -123 822 -123 822 -214 c 0,2,3
 822 -401 822 -401 570 -401 c 0,4,5
 466 -401 466 -401 366 -376 c 1,6,-1
 366 -220 l 1,7,8
 414 -237 414 -237 454.5 -246 c 128,-1,9
 495 -255 495 -255 534 -255 c 0,10,11
 655 -255 655 -255 655 -169 c 0,12,13
 655 -119 655 -119 567 0 c 1,14,-1
 709 0 l 1,0,1
EndSplineSet
EndChar
StartChar: hungarumlaut
Encoding: 733 733 222
Width: 1234
VWidth: 3393
Flags: W
HStem: 1263 376<815 1085>
VStem: 298 787<1263 1639>
Fore
1085 1639 m 1,0,-1
 815 1263 l 1,1,-1
 641 1263 l 1,2,-1
 855 1639 l 1,3,-1
 1085 1639 l 1,0,-1
709 1639 m 1,4,-1
 462 1263 l 1,5,-1
 298 1263 l 1,6,-1
 492 1639 l 1,7,-1
 709 1639 l 1,4,-1
EndSplineSet
EndChar
StartChar: ogonek
Encoding: 731 731 223
Width: 1234
VWidth: 3393
Flags: W
HStem: -401 146<631.225 825.589> -20 20G<502 699>
VStem: 447 161<-231.795 -114.102>
Fore
699 0 m 1,0,1
 645 -78 645 -78 628 -104 c 0,2,3
 608 -143 608 -143 608 -166 c 0,4,5
 608 -204 608 -204 638 -229.5 c 128,-1,6
 668 -255 668 -255 719 -255 c 0,7,8
 794 -255 794 -255 875 -224 c 1,9,-1
 875 -379 l 1,10,11
 771 -401 771 -401 686 -401 c 0,12,13
 447 -401 447 -401 447 -224 c 0,14,15
 447 -119 447 -119 557 0 c 1,16,-1
 699 0 l 1,0,1
EndSplineSet
EndChar
StartChar: caron
Encoding: 711 711 224
Width: 1234
VWidth: 3393
Flags: W
HStem: 1263 376<240 736>
VStem: 240 754<1639 1639>
Fore
240 1639 m 1,0,-1
 418 1639 l 1,1,-1
 618 1412 l 1,2,-1
 815 1639 l 1,3,-1
 994 1639 l 1,4,-1
 736 1263 l 1,5,-1
 495 1263 l 1,6,-1
 240 1639 l 1,0,-1
EndSplineSet
EndChar
StartChar: Lslash
Encoding: 321 321 225
Width: 1234
VWidth: 3393
Flags: W
HStem: 0 262<519 1153> 1473 20G<224 519>
VStem: 224 295<262 537 974 1493>
Fore
224 537 m 1,0,-1
 75 428 l 1,1,-1
 -41 580 l 1,2,-1
 224 771 l 1,3,-1
 224 1493 l 1,4,-1
 519 1493 l 1,5,-1
 519 974 l 1,6,-1
 797 1168 l 1,7,-1
 910 1014 l 1,8,-1
 519 744 l 1,9,-1
 519 262 l 1,10,-1
 1153 262 l 1,11,-1
 1153 0 l 1,12,-1
 224 0 l 1,13,-1
 224 537 l 1,0,-1
EndSplineSet
EndChar
StartChar: lslash
Encoding: 322 322 226
Width: 1234
VWidth: 3393
Flags: W
HStem: 0 224<756.106 800 800 1117> 1334 224<116 411>
VStem: 411 292<281.769 635 1072 1334>
Fore
411 635 m 1,0,-1
 136 437 l 1,1,-1
 38 600 l 1,2,-1
 411 865 l 1,3,-1
 411 1334 l 1,4,-1
 116 1334 l 1,5,-1
 116 1558 l 1,6,-1
 703 1558 l 1,7,-1
 703 1072 l 1,8,-1
 998 1283 l 1,9,-1
 1104 1120 l 1,10,-1
 703 842 l 1,11,-1
 703 469 l 2,12,13
 703 336 703 336 743.5 280 c 128,-1,14
 784 224 784 224 882 224 c 2,15,-1
 1117 224 l 1,16,-1
 1117 0 l 1,17,-1
 800 0 l 2,18,19
 593 0 593 0 502 109 c 256,20,21
 411 217 411 217 411 469 c 2,22,-1
 411 635 l 1,0,-1
EndSplineSet
EndChar
StartChar: brokenbar
Encoding: 166 166 231
Width: 1234
VWidth: 3393
Flags: W
VStem: 502 227<-350 408 676 1432>
Fore
729 -350 m 1,0,-1
 502 -350 l 1,1,-1
 502 408 l 1,2,-1
 729 408 l 1,3,-1
 729 -350 l 1,0,-1
729 676 m 1,4,-1
 502 676 l 1,5,-1
 502 1432 l 1,6,-1
 729 1432 l 1,7,-1
 729 676 l 1,4,-1
EndSplineSet
EndChar
StartChar: Eth
Encoding: 208 208 232
Width: 1234
VWidth: 3393
Flags: W
HStem: 0 265<431 692.234> 664 239<0 136 431 645> 1228 265<431 692.889>
VStem: 136 295<265 664 903 1228> 835 308<434.641 1060.61>
Fore
431 903 m 1,0,-1
 645 903 l 1,1,-1
 645 664 l 1,2,-1
 431 664 l 1,3,-1
 431 265 l 1,4,-1
 512 265 l 2,5,6
 689 265 689 265 761 376 c 0,7,8
 835 482 835 482 835 751 c 0,9,10
 835 1011 835 1011 761 1120 c 0,11,12
 689 1228 689 1228 512 1228 c 2,13,-1
 431 1228 l 1,14,-1
 431 903 l 1,0,-1
454 1493 m 2,15,16
 825 1493 825 1493 981 1321 c 0,17,18
 1143 1147 1143 1147 1143 751 c 0,19,20
 1143 350 1143 350 981 176 c 0,21,22
 825 0 825 0 454 0 c 2,23,-1
 136 0 l 1,24,-1
 136 664 l 1,25,-1
 0 664 l 1,26,-1
 0 903 l 1,27,-1
 136 903 l 1,28,-1
 136 1493 l 1,29,-1
 454 1493 l 2,15,16
EndSplineSet
EndChar
StartChar: eth
Encoding: 240 240 233
Width: 1234
VWidth: 3393
Flags: W
HStem: -30 240<493.917 740.561> 815 241<479.868 705.042> 1130 21G<224.862 286.605> 1538 20G<302 612.862>
VStem: 98 293<323.479 721.235> 838 289<325.29 711.108>
Fore
810 761 m 1,0,1
 716 815 716 815 618 815 c 0,2,3
 512 815 512 815 451 744 c 256,4,5
 391 673 391 673 391 547 c 0,6,7
 391 386 391 386 450 298 c 128,-1,8
 509 210 509 210 615 210 c 0,9,10
 722 210 722 210 780 300.5 c 128,-1,11
 838 391 838 391 838 563 c 0,12,13
 838 611 838 611 831.5 658.5 c 128,-1,14
 825 706 825 706 810 761 c 1,0,1
940 1104 m 1,15,16
 1042 968 1042 968 1082 838 c 0,17,18
 1127 716 1127 716 1127 560 c 0,19,20
 1127 282 1127 282 991 126 c 0,21,22
 852 -30 852 -30 615 -30 c 0,23,24
 373 -30 373 -30 237 126 c 0,25,26
 98 275 98 275 98 537 c 0,27,28
 98 774 98 774 227 913 c 0,29,30
 360 1056 360 1056 577 1056 c 0,31,32
 645 1056 645 1056 706 1029 c 1,33,-1
 547 1249 l 1,34,-1
 234 1130 l 1,35,-1
 181 1246 l 1,36,-1
 462 1354 l 1,37,-1
 302 1558 l 1,38,-1
 597 1558 l 1,39,-1
 689 1442 l 1,40,-1
 988 1568 l 1,41,-1
 1052 1445 l 1,42,-1
 774 1327 l 1,43,-1
 940 1104 l 1,15,16
EndSplineSet
EndChar
StartChar: Thorn
Encoding: 222 222 236
Width: 1234
VWidth: 3393
Flags: W
HStem: 0 21G<162 457> 333 244<457 779.952> 1014 242<457 772.891> 1473 20G<162 457>
VStem: 162 295<0 333 577 1014 1256 1493> 842 305<641.362 948.197>
Fore
457 577 m 1,0,-1
 580 577 l 2,1,2
 726 577 726 577 784 625 c 0,3,4
 842 676 842 676 842 794 c 0,5,6
 842 920 842 920 780 964 c 0,7,8
 726 1014 726 1014 580 1014 c 2,9,-1
 457 1014 l 1,10,-1
 457 577 l 1,0,-1
457 1493 m 1,11,-1
 457 1256 l 1,12,-1
 567 1256 l 2,13,14
 875 1256 875 1256 1011 1147 c 0,15,16
 1147 1036 1147 1036 1147 787 c 0,17,18
 1147 547 1147 547 1011 441 c 0,19,20
 872 333 872 333 567 333 c 2,21,-1
 457 333 l 1,22,-1
 457 0 l 1,23,-1
 162 0 l 1,24,-1
 162 1493 l 1,25,-1
 457 1493 l 1,11,-1
EndSplineSet
EndChar
StartChar: thorn
Encoding: 254 254 237
Width: 1234
VWidth: 3393
Flags: W
HStem: -428 21G<149 441> -30 244<574.104 759.987> 910 237<569.504 758.571> 1538 20G<149 441>
VStem: 149 292<-428 159 332.938 790.016 953 1558> 852 291<327.54 797.305>
Fore
441 -428 m 1,0,-1
 149 -428 l 1,1,-1
 149 1558 l 1,2,-1
 441 1558 l 1,3,-1
 441 953 l 1,4,5
 534 1147 534 1147 739 1147 c 0,6,7
 933 1147 933 1147 1039 994 c 0,8,9
 1143 845 1143 845 1143 560 c 0,10,11
 1143 272 1143 272 1036 123 c 0,12,13
 930 -30 930 -30 729 -30 c 0,14,15
 553 -30 553 -30 441 159 c 1,16,-1
 441 -428 l 1,0,-1
852 560 m 256,17,18
 852 722 852 722 798 816 c 128,-1,19
 744 910 744 910 648 910 c 0,20,21
 557 910 557 910 499 815 c 256,22,23
 441 719 441 719 441 560 c 0,24,25
 441 404 441 404 499 308 c 256,26,27
 557 214 557 214 648 214 c 0,28,29
 744 214 744 214 798 306 c 128,-1,30
 852 398 852 398 852 560 c 256,17,18
EndSplineSet
EndChar
StartChar: minus
Encoding: 8722 8722 238
Width: 1234
VWidth: 3393
Flags: W
HStem: 525 239<65 1168>
Fore
1168 764 m 1,0,-1
 1168 525 l 1,1,-1
 65 525 l 1,2,-1
 65 764 l 1,3,-1
 1168 764 l 1,0,-1
EndSplineSet
EndChar
StartChar: multiply
Encoding: 215 215 239
Width: 1234
VWidth: 3393
Flags: W
HStem: 146 994<288 943>
VStem: 119 995<312 312>
Fore
784 645 m 1,0,-1
 1114 312 l 1,1,-1
 943 146 l 1,2,-1
 615 476 l 1,3,-1
 288 146 l 1,4,-1
 119 312 l 1,5,-1
 447 645 l 1,6,-1
 119 971 l 1,7,-1
 288 1140 l 1,8,-1
 615 810 l 1,9,-1
 943 1140 l 1,10,-1
 1114 971 l 1,11,-1
 784 645 l 1,0,-1
EndSplineSet
EndChar
StartChar: onesuperior
Encoding: 185 185 240
Width: 1234
VWidth: 3393
Flags: W
HStem: 668 147<312 540 736 961> 1314 21G<320 422.326> 1483 20G<431.5 736>
VStem: 540 196<815 1357>
Fore
540 815 m 1,0,-1
 540 1357 l 1,1,-1
 320 1314 l 1,2,-1
 320 1463 l 1,3,-1
 543 1503 l 1,4,-1
 736 1503 l 1,5,-1
 736 815 l 1,6,-1
 961 815 l 1,7,-1
 961 668 l 1,8,-1
 312 668 l 1,9,-1
 312 815 l 1,10,-1
 540 815 l 1,0,-1
EndSplineSet
EndChar
StartChar: twosuperior
Encoding: 178 178 241
Width: 1234
VWidth: 3393
Flags: W
HStem: 668 147<502 940> 1314 21G<298 380> 1382 139<357.225 692.98>
VStem: 729 211<1185.36 1351.56>
Fore
940 815 m 1,0,-1
 940 668 l 1,1,-1
 275 668 l 1,2,-1
 275 810 l 1,3,4
 302 832 302 832 336 861 c 128,-1,5
 370 890 370 890 414 926 c 0,6,7
 729 1191 729 1191 729 1269 c 0,8,9
 729 1321 729 1321 687 1351.5 c 128,-1,10
 645 1382 645 1382 567 1382 c 0,11,12
 462 1382 462 1382 298 1314 c 1,13,-1
 298 1476 l 1,14,15
 444 1521 444 1521 583 1521 c 0,16,17
 754 1521 754 1521 847 1458 c 128,-1,18
 940 1395 940 1395 940 1286 c 0,19,20
 940 1160 940 1160 583 878 c 0,21,22
 557 858 557 858 536 841.5 c 128,-1,23
 515 825 515 825 502 815 c 1,24,-1
 940 815 l 1,0,-1
EndSplineSet
EndChar
StartChar: threesuperior
Encoding: 179 179 242
Width: 1234
VWidth: 3393
Flags: W
HStem: 655 139<399.276 727.153> 1042 146<472 699.648> 1334 21G<320 387> 1382 139<330.343 711.497>
VStem: 744 196<1213.32 1356.64> 767 197<827.614 1005.63>
Fore
472 1042 m 1,0,-1
 472 1188 l 1,1,-1
 583 1188 l 2,2,3
 658 1188 658 1188 701 1213.5 c 128,-1,4
 744 1239 744 1239 744 1283 c 0,5,6
 744 1331 744 1331 702.5 1356.5 c 128,-1,7
 661 1382 661 1382 593 1382 c 0,8,9
 454 1382 454 1382 320 1334 c 1,10,-1
 320 1486 l 1,11,12
 451 1521 451 1521 593 1521 c 0,13,14
 764 1521 764 1521 848 1463 c 0,15,16
 940 1408 940 1408 940 1302 c 0,17,18
 940 1231 940 1231 887.5 1184 c 128,-1,19
 835 1137 835 1137 736 1120 c 1,20,21
 964 1092 964 1092 964 903 c 0,22,23
 964 780 964 780 867.5 717.5 c 128,-1,24
 771 655 771 655 587 655 c 0,25,26
 437 655 437 655 288 696 c 1,27,-1
 288 848 l 1,28,29
 356 822 356 822 430.5 808 c 128,-1,30
 505 794 505 794 587 794 c 0,31,32
 673 794 673 794 720 824.5 c 128,-1,33
 767 855 767 855 767 913 c 0,34,35
 767 974 767 974 720 1008 c 128,-1,36
 673 1042 673 1042 583 1042 c 2,37,-1
 472 1042 l 1,0,-1
EndSplineSet
EndChar
StartChar: dcroat
Encoding: 273 273 255
Width: 1234
VWidth: 3393
Flags: W
HStem: -30 240<475.31 662.095> 903 244<474.312 662.278> 1253 189<486 790 1082 1231> 1538 20G<790 1082>
VStem: 91 292<319.752 794.432> 790 292<0 166 319.364 792.823 961 1253 1442 1558>
Fore
790 1253 m 1,0,-1
 486 1253 l 1,1,-1
 486 1442 l 1,2,-1
 790 1442 l 1,3,-1
 790 1558 l 1,4,-1
 1082 1558 l 1,5,-1
 1082 1442 l 1,6,-1
 1231 1442 l 1,7,-1
 1231 1253 l 1,8,-1
 1082 1253 l 1,9,-1
 1082 0 l 1,10,-1
 790 0 l 1,11,-1
 790 166 l 1,12,13
 699 -30 699 -30 495 -30 c 0,14,15
 302 -30 302 -30 197 126 c 0,16,17
 91 275 91 275 91 560 c 0,18,19
 91 848 91 848 197 998 c 0,20,21
 305 1147 305 1147 505 1147 c 0,22,23
 686 1147 686 1147 790 961 c 1,24,-1
 790 1253 l 1,0,-1
383 557 m 256,25,26
 383 394 383 394 436 302 c 128,-1,27
 489 210 489 210 587 210 c 0,28,29
 683 210 683 210 736 302 c 0,30,31
 790 391 790 391 790 557 c 256,32,33
 790 722 790 722 736 810 c 0,34,35
 683 903 683 903 587 903 c 0,36,37
 489 903 489 903 436 811 c 128,-1,38
 383 719 383 719 383 557 c 256,25,26
EndSplineSet
EndChar
StartChar: sfthyphen
Encoding: 173 173 256
Width: 1234
VWidth: 3393
Flags: W
HStem: 444 292<302 933>
Fore
933 736 m 1,0,-1
 933 444 l 1,1,-1
 302 444 l 1,2,-1
 302 736 l 1,3,-1
 933 736 l 1,0,-1
EndSplineSet
EndChar
StartChar: periodcentered
Encoding: 8729 8729 257
Width: 1234
VWidth: 3393
Flags: W
HStem: 522 381<441 790>
VStem: 441 349<522 903>
Fore
790 903 m 1,0,-1
 790 522 l 1,1,-1
 441 522 l 1,2,-1
 441 903 l 1,3,-1
 790 903 l 1,0,-1
EndSplineSet
EndChar
StartChar: Euro
Encoding: 8364 8364 258
Width: 1234
VWidth: 3393
Flags: W
HStem: -30 250<634.693 945.072> 482 191<91 187 509 716> 822 189<91 187 509 865> 1120 21G<1007.5 1079> 1273 248<636.447 944.593>
Fore
210 1011 m 1,0,1
 255 1263 255 1263 401 1392 c 128,-1,2
 547 1521 547 1521 780 1521 c 0,3,4
 943 1521 943 1521 1079 1448 c 1,5,-1
 1079 1120 l 1,6,7
 936 1273 936 1273 787 1273 c 0,8,9
 570 1273 570 1273 509 1011 c 1,10,-1
 949 1011 l 1,11,-1
 865 822 l 1,12,-1
 486 822 l 1,13,14
 482 804 482 804 482 787.5 c 128,-1,15
 482 771 482 771 482 732 c 2,16,-1
 482 673 l 1,17,-1
 800 673 l 1,18,-1
 716 482 l 1,19,-1
 509 482 l 1,20,21
 534 356 534 356 605 288 c 128,-1,22
 676 220 676 220 784 220 c 0,23,24
 933 220 933 220 1079 370 c 1,25,-1
 1079 45 l 1,26,27
 940 -30 940 -30 780 -30 c 0,28,29
 547 -30 547 -30 401 100 c 128,-1,30
 255 230 255 230 210 482 c 1,31,-1
 7 482 l 1,32,-1
 91 673 l 1,33,-1
 187 673 l 1,34,35
 187 686 187 686 185.5 701 c 128,-1,36
 184 716 184 716 184 747 c 0,37,38
 184 774 184 774 185.5 789 c 128,-1,39
 187 804 187 804 187 822 c 1,40,-1
 7 822 l 1,41,-1
 91 1011 l 1,42,-1
 210 1011 l 1,0,1
EndSplineSet
EndChar
StartChar: c6459
Encoding: 65539 -1 259
Width: 1234
VWidth: 3393
Flags: W
HStem: 1283 245<302 537 696 933>
VStem: 302 235<1283 1528> 696 237<1283 1528>
Fore
933 1528 m 1,0,-1
 933 1283 l 1,1,-1
 696 1283 l 1,2,-1
 696 1528 l 1,3,-1
 933 1528 l 1,0,-1
537 1528 m 1,4,-1
 537 1283 l 1,5,-1
 302 1283 l 1,6,-1
 302 1528 l 1,7,-1
 537 1528 l 1,4,-1
EndSplineSet
EndChar
StartChar: c6460
Encoding: 65540 -1 260
Width: 1234
VWidth: 3393
Flags: W
HStem: 1263 265<664 953>
VStem: 469 484<1263 1528>
Fore
953 1528 m 1,0,-1
 664 1263 l 1,1,-1
 469 1263 l 1,2,-1
 668 1528 l 1,3,-1
 953 1528 l 1,0,-1
EndSplineSet
EndChar
StartChar: c6461
Encoding: 65541 -1 261
Width: 1234
VWidth: 3393
Flags: W
HStem: 1263 149<696.997 813.01> 1382 149<425.04 542.321>
VStem: 268 140<1263 1350.54> 825 143<1419.35 1514.72 1515.28 1531>
Fore
563 1347 m 1,0,1
 560 1347 560 1347 553 1354 c 1,2,3
 505 1382 505 1382 479 1382 c 0,4,5
 447 1382 447 1382 427.5 1351.5 c 128,-1,6
 408 1321 408 1321 408 1269 c 2,7,-1
 408 1263 l 1,8,-1
 268 1263 l 1,9,-1
 268 1292 l 2,10,11
 268 1402 268 1402 323 1466 c 0,12,13
 379 1531 379 1531 466 1531 c 0,14,15
 540 1531 540 1531 615 1480 c 2,16,-1
 676 1442 l 2,17,18
 716 1412 716 1412 751 1412 c 0,19,20
 825 1412 825 1412 825 1531 c 1,21,-1
 968 1531 l 1,22,23
 968 1524 968 1524 966 1515 c 128,-1,24
 964 1506 964 1506 964 1500 c 0,25,26
 964 1392 964 1392 910 1327 c 0,27,28
 858 1263 858 1263 771 1263 c 0,29,30
 732 1263 732 1263 696.5 1274.5 c 128,-1,31
 661 1286 661 1286 618 1314 c 2,32,-1
 563 1347 l 1,0,1
EndSplineSet
EndChar
StartChar: c6468
Encoding: 65542 -1 262
Width: 1234
VWidth: 3393
Flags: W
HStem: 1263 265<282 767>
VStem: 282 485<1263 1528>
Fore
767 1263 m 1,0,-1
 570 1263 l 1,1,-1
 282 1528 l 1,2,-1
 567 1528 l 1,3,-1
 767 1263 l 1,0,-1
EndSplineSet
EndChar
StartChar: c6470
Encoding: 65543 -1 263
Width: 1234
VWidth: 3393
Flags: W
HStem: 1263 265<771 994>
VStem: 240 754<1263 1263>
Fore
771 1528 m 1,0,-1
 994 1263 l 1,1,-1
 815 1263 l 1,2,-1
 618 1425 l 1,3,-1
 418 1263 l 1,4,-1
 240 1263 l 1,5,-1
 462 1528 l 1,6,-1
 771 1528 l 1,0,-1
EndSplineSet
EndChar
StartChar: c6472
Encoding: 65544 -1 264
Width: 1234
VWidth: 3393
Flags: W
HStem: 1263 265<240 771>
VStem: 240 754<1528 1528>
Fore
240 1528 m 1,0,-1
 418 1528 l 1,1,-1
 618 1364 l 1,2,-1
 815 1528 l 1,3,-1
 994 1528 l 1,4,-1
 771 1263 l 1,5,-1
 462 1263 l 1,6,-1
 240 1528 l 1,0,-1
EndSplineSet
EndChar
StartChar: c6477
Encoding: 65545 -1 265
Width: 1234
VWidth: 3393
Flags: W
HStem: 502 380<85 1107>
Fore
48 618 m 1,0,-1
 1107 882 l 1,1,-1
 1143 764 l 1,2,-1
 85 502 l 1,3,-1
 48 618 l 1,0,-1
EndSplineSet
EndChar
StartChar: c6478
Encoding: 65546 -1 266
Width: 1234
VWidth: 3393
Flags: W
HStem: 848 143<391 641 825 936> 1483 20G<605.878 825>
VStem: 641 184<668 848 991 1324>
Fore
391 991 m 1,0,-1
 641 991 l 1,1,-1
 641 1324 l 1,2,-1
 391 991 l 1,0,-1
825 1503 m 1,3,-1
 825 991 l 1,4,-1
 936 991 l 1,5,-1
 936 848 l 1,6,-1
 825 848 l 1,7,-1
 825 668 l 1,8,-1
 641 668 l 1,9,-1
 641 848 l 1,10,-1
 249 848 l 1,11,-1
 249 1011 l 1,12,-1
 621 1503 l 1,13,-1
 825 1503 l 1,3,-1
EndSplineSet
EndChar
StartChar: c6475
Encoding: 65547 -1 267
Width: 1234
VWidth: 3393
Flags: W
HStem: 1263 142<474.622 758.803>
VStem: 282 671<1399 1405 1528 1528>
Fore
421 1528 m 1,0,1
 466 1405 466 1405 618 1405 c 256,2,3
 771 1405 771 1405 810 1528 c 1,4,-1
 953 1528 l 1,5,6
 936 1399 936 1399 851.5 1331 c 128,-1,7
 767 1263 767 1263 618 1263 c 256,8,9
 469 1263 469 1263 383.5 1331 c 128,-1,10
 298 1399 298 1399 282 1528 c 1,11,-1
 421 1528 l 1,0,1
EndSplineSet
EndChar
StartChar: c6476
Encoding: 65548 -1 268
Width: 1234
VWidth: 3393
Flags: W
HStem: 1283 245<479 754>
VStem: 479 275<1283 1528>
Fore
754 1528 m 1,0,-1
 754 1283 l 1,1,-1
 479 1283 l 1,2,-1
 479 1528 l 1,3,-1
 754 1528 l 1,0,-1
EndSplineSet
EndChar
StartChar: uni0E01
Encoding: 3585 3585 270
Width: 1234
VWidth: 3393
Flags: W
HStem: 0 21G<200 411 923 1133> 1156 178<451.165 771.727>
VStem: 200 211<0 762.767> 923 210<0 1062.5>
Fore
615 1156 m 0,0,1
 529 1156 529 1156 449.5 1112.5 c 128,-1,2
 370 1069 370 1069 308 1007 c 1,3,-1
 519 1007 l 1,4,-1
 519 858 l 1,5,6
 462 838 462 838 436.5 787 c 128,-1,7
 411 736 411 736 411 684 c 2,8,-1
 411 0 l 1,9,-1
 200 0 l 1,10,-1
 200 658 l 2,11,12
 200 709 200 709 244 764.5 c 128,-1,13
 288 820 288 820 320 851 c 1,14,-1
 104 851 l 1,15,-1
 104 1069 l 1,16,17
 224 1186 224 1186 339 1260 c 128,-1,18
 454 1334 454 1334 625 1334 c 0,19,20
 716 1334 716 1334 808 1311.5 c 128,-1,21
 900 1289 900 1289 973 1240 c 128,-1,22
 1046 1191 1046 1191 1089.5 1115.5 c 128,-1,23
 1133 1040 1133 1040 1133 933 c 2,24,-1
 1133 0 l 1,25,-1
 923 0 l 1,26,-1
 923 878 l 2,27,28
 923 1040 923 1040 845 1098 c 128,-1,29
 767 1156 767 1156 615 1156 c 0,0,1
EndSplineSet
EndChar
StartChar: uni0E02
Encoding: 3586 3586 271
Width: 1234
VWidth: 3393
Flags: W
HStem: 0 181<645 882> 741 129<326.773 442.778> 1158 171<443.403 617.617>
VStem: 152 160<894.869 1008.5> 434 211<181 436 449 558.328> 457 140<893.205 999.825> 668 180<849.946 1108.93> 882 210<181 1314>
Fore
434 436 m 1,0,1
 434 514 434 514 471.5 583.5 c 128,-1,2
 509 653 509 653 551 719.5 c 128,-1,3
 593 786 593 786 630.5 855.5 c 128,-1,4
 668 925 668 925 668 999 c 0,5,6
 668 1067 668 1067 620.5 1112.5 c 128,-1,7
 573 1158 573 1158 505 1158 c 0,8,9
 457 1158 457 1158 431 1142 c 1,10,11
 519 1138 519 1138 558 1082 c 128,-1,12
 597 1026 597 1026 597 948 c 0,13,14
 597 847 597 847 536.5 794 c 128,-1,15
 476 741 476 741 376 741 c 0,16,17
 288 741 288 741 220 787.5 c 128,-1,18
 152 834 152 834 152 931 c 0,19,20
 152 1009 152 1009 176 1082 c 128,-1,21
 200 1155 200 1155 244 1209.5 c 128,-1,22
 288 1264 288 1264 353 1296.5 c 128,-1,23
 418 1329 418 1329 502 1329 c 0,24,25
 661 1329 661 1329 754.5 1237 c 128,-1,26
 848 1145 848 1145 848 986 c 0,27,28
 848 911 848 911 816 840 c 128,-1,29
 784 769 784 769 746.5 699.5 c 128,-1,30
 709 630 709 630 677 560.5 c 128,-1,31
 645 491 645 491 645 419 c 2,32,-1
 645 181 l 1,33,-1
 882 181 l 1,34,-1
 882 1314 l 1,35,-1
 1092 1314 l 1,36,-1
 1092 0 l 1,37,-1
 434 0 l 1,38,-1
 434 449 l 1,39,-1
 434 436 l 1,0,1
312 945 m 0,40,41
 312 915 312 915 332.5 892.5 c 128,-1,42
 353 870 353 870 383 870 c 256,43,44
 414 870 414 870 435.5 892.5 c 128,-1,45
 457 915 457 915 457 945 c 0,46,47
 457 979 457 979 435.5 1000.5 c 128,-1,48
 414 1022 414 1022 383 1022 c 256,49,50
 353 1022 353 1022 332.5 1000.5 c 128,-1,51
 312 979 312 979 312 945 c 0,40,41
EndSplineSet
EndChar
StartChar: uni0E03
Encoding: 3587 3587 272
Width: 1234
VWidth: 3393
Flags: W
HStem: 0 181<628 893> 693 117<338.388 438.337> 953 116<348.559 421.587> 1294 20G<314 356.5 636.5 704.5 893 1104>
VStem: 143 183<856.829 1050.64> 418 210<181 438.466> 462 131<851.879 932.372> 679 183<905.332 1121.95> 893 211<181 1314>
Fore
418 391 m 2,0,1
 418 421 418 421 432.5 473 c 128,-1,2
 447 525 447 525 471 580 c 128,-1,3
 495 635 495 635 519 683.5 c 128,-1,4
 543 732 543 732 563 757 c 1,5,6
 525 722 525 722 478 707.5 c 128,-1,7
 431 693 431 693 386 693 c 0,8,9
 320 693 320 693 272 723.5 c 128,-1,10
 224 754 224 754 195 801 c 128,-1,11
 166 848 166 848 154.5 904.5 c 128,-1,12
 143 961 143 961 143 1014 c 0,13,14
 143 1056 143 1056 152.5 1108 c 128,-1,15
 162 1160 162 1160 184.5 1206.5 c 128,-1,16
 207 1253 207 1253 246 1283.5 c 128,-1,17
 285 1314 285 1314 343 1314 c 0,18,19
 370 1314 370 1314 392 1301.5 c 128,-1,20
 414 1289 414 1289 435.5 1274 c 128,-1,21
 457 1259 457 1259 476 1245 c 128,-1,22
 495 1231 495 1231 515 1231 c 0,23,24
 529 1231 529 1231 541 1245 c 128,-1,25
 553 1259 553 1259 568 1275.5 c 128,-1,26
 583 1292 583 1292 604 1306.5 c 128,-1,27
 625 1321 625 1321 648 1321 c 0,28,29
 761 1321 761 1321 811.5 1242 c 128,-1,30
 862 1163 862 1163 862 1065 c 0,31,32
 862 984 862 984 824.5 899.5 c 128,-1,33
 787 815 787 815 745 730 c 128,-1,34
 703 645 703 645 665.5 563.5 c 128,-1,35
 628 482 628 482 628 408 c 2,36,-1
 628 181 l 1,37,-1
 893 181 l 1,38,-1
 893 1314 l 1,39,-1
 1104 1314 l 1,40,-1
 1104 0 l 1,41,-1
 418 0 l 1,42,-1
 418 391 l 2,0,1
593 848 m 2,43,44
 593 845 593 845 586.5 816 c 128,-1,45
 580 787 580 787 580 784 c 1,46,47
 615 842 615 842 645.5 906.5 c 128,-1,48
 676 971 676 971 679 1072 c 0,49,50
 679 1089 679 1089 670 1114.5 c 128,-1,51
 661 1140 661 1140 648 1140 c 0,52,53
 625 1140 625 1140 611 1125 c 128,-1,54
 597 1110 597 1110 583.5 1092.5 c 128,-1,55
 570 1075 570 1075 553.5 1058.5 c 128,-1,56
 537 1042 537 1042 509 1042 c 1,57,58
 543 1014 543 1014 568 981.5 c 128,-1,59
 593 949 593 949 593 903 c 2,60,-1
 593 848 l 2,43,44
462 1059 m 1,61,62
 455 1065 l 2,63,64
 447 1072 447 1072 440.5 1080.5 c 128,-1,65
 434 1089 434 1089 431 1093 c 2,66,-1
 421 1104 l 2,67,68
 411 1110 411 1110 397 1123.5 c 128,-1,69
 383 1137 383 1137 366 1137 c 256,70,71
 350 1137 350 1137 331 1104.5 c 128,-1,72
 312 1072 312 1072 312 1056 c 1,73,74
 320 1059 320 1059 340 1064 c 128,-1,75
 360 1069 360 1069 376 1069 c 0,76,77
 398 1069 398 1069 424.5 1065.5 c 128,-1,78
 451 1062 451 1062 462 1059 c 1,61,62
326 882 m 256,79,80
 326 852 326 852 344.5 831 c 128,-1,81
 363 810 363 810 394 810 c 0,82,83
 421 810 421 810 441.5 831 c 128,-1,84
 462 852 462 852 462 882 c 256,85,86
 462 913 462 913 441.5 933 c 128,-1,87
 421 953 421 953 394 953 c 0,88,89
 363 953 363 953 344.5 933 c 128,-1,90
 326 913 326 913 326 882 c 256,79,80
EndSplineSet
EndChar
StartChar: uni0E04
Encoding: 3588 3588 273
Width: 1234
VWidth: 3393
Flags: W
HStem: 0 21G<222 447 903 1114> 476 169<573.564 688.514> 797 156<580.628 681.342> 1160 174<428.075 800.658>
VStem: 91 197<491.928 1024.77> 224.219 216.781<-0.13818 150.829> 703 152<667.69 774.825> 903 211<0 1065.31>
Fore
903 905 m 2,0,1
 903 1160 903 1160 611 1160 c 0,2,3
 469 1160 469 1160 378.5 1082 c 128,-1,4
 288 1004 288 1004 288 825 c 0,5,6
 288 688.5 288 688.5 333 486 c 1,7,8
 353 560 353 560 366 643 c 128,-1,9
 379 726 379 726 403.5 794 c 128,-1,10
 428 862 428 862 475 907.5 c 128,-1,11
 522 953 522 953 620.5 953 c 128,-1,12
 719 953 719 953 787 892.5 c 128,-1,13
 855 832 855 832 855 728.5 c 128,-1,14
 855 625 855 625 792 550.5 c 128,-1,15
 729 476 729 476 628 476 c 0,16,17
 563 476 563 476 512 502 c 1,18,-1
 485.5 393.5 l 2,19,20
 429.213 163.044 429.213 163.044 441 55 c 2,21,-1
 447 0 l 1,22,-1
 227 0 l 1,23,24
 217 109 217 109 193 210.5 c 128,-1,25
 169 312 169 312 147.5 412 c 0,26,27
 91 674.791 91 674.791 91 832 c 0,28,29
 91 1108 91 1108 233.5 1221 c 128,-1,30
 376 1334 376 1334 611 1334 c 0,31,32
 818.264 1334 818.264 1334 957.5 1241.5 c 0,33,34
 1114 1137.53 1114 1137.53 1114 929 c 2,35,-1
 1114 0 l 1,36,-1
 903 0 l 1,37,-1
 903 905 l 2,0,1
580 775.5 m 128,-1,39
 560 754 560 754 560 721.5 c 128,-1,40
 560 689 560 689 580 667 c 128,-1,41
 600 645 600 645 631 645 c 256,42,43
 661 645 661 645 682 667 c 128,-1,44
 703 689 703 689 703 721.5 c 128,-1,45
 703 754 703 754 682 775.5 c 128,-1,46
 661 797 661 797 631 797 c 256,47,38
 600 797 600 797 580 775.5 c 128,-1,39
EndSplineSet
EndChar
StartChar: uni0E05
Encoding: 3589 3589 274
Width: 1234
VWidth: 3393
Flags: W
HStem: 0 21G<250.5 451.5 943 1153> 469 169<604.868 720.84> 787 156<613.205 713.826> 1120 201<377.583 499.502 855 903.919>
VStem: 91 201<687.023 918.085> 736 154<661.205 764.826> 941.5 211.5<0 1010.53>
Fore
664 1042 m 1,0,1
 628 1042 628 1042 602.5 1053.5 c 128,-1,2
 577 1065 577 1065 555.5 1081 c 128,-1,3
 534 1097 534 1097 511.5 1108.5 c 128,-1,4
 489 1120 489 1120 454 1120 c 0,5,6
 414 1120 414 1120 383.5 1091 c 128,-1,7
 353 1062 353 1062 332.5 1020 c 128,-1,8
 312 978 312 978 302 930 c 128,-1,9
 292 882 292 882 292 848 c 0,10,11
 292 757 292 757 311 665 c 128,-1,12
 330 573 330 573 356 482 c 1,13,14
 366 550 366 550 376 629.5 c 128,-1,15
 386 709 386 709 411.5 778.5 c 128,-1,16
 437 848 437 848 490 895.5 c 128,-1,17
 543 943 543 943 638 943 c 0,18,19
 739 943 739 943 814.5 885.5 c 128,-1,20
 890 828 890 828 890 719 c 0,21,22
 890 621 890 621 822 545 c 128,-1,23
 754 469 754 469 648 469 c 0,24,25
 600 469 600 469 560 492 c 1,26,27
 525 373 525 373 493.5 249.5 c 128,-1,28
 462 126 462 126 441 0 c 1,29,-1
 252 0 l 1,30,31
 249 116 249 116 221.5 219.5 c 128,-1,32
 194 323 194 323 166.5 422.5 c 128,-1,33
 139 522 139 522 115 625.5 c 128,-1,34
 91 729 91 729 91 845 c 0,35,36
 91 926 91 926 115 1009 c 128,-1,37
 139 1092 139 1092 184.5 1161.5 c 128,-1,38
 230 1231 230 1231 301.5 1276 c 128,-1,39
 373 1321 373 1321 466 1321 c 0,40,41
 499 1321 499 1321 523 1303.5 c 128,-1,42
 547 1286 547 1286 568.5 1267.5 c 128,-1,43
 590 1249 590 1249 612.5 1232 c 128,-1,44
 635 1215 635 1215 664 1215 c 256,45,46
 696 1215 696 1215 720 1232 c 128,-1,47
 744 1249 744 1249 767 1269 c 128,-1,48
 790 1289 790 1289 814 1306.5 c 128,-1,49
 838 1324 838 1324 865 1324 c 0,50,51
 933 1324 933 1324 986 1291.5 c 128,-1,52
 1039 1259 1039 1259 1076.5 1211 c 128,-1,53
 1114 1163 1114 1163 1133.5 1104.5 c 128,-1,54
 1153 1046 1153 1046 1153 988 c 2,55,-1
 1153 0 l 1,56,-1
 943 0 l 1,57,-1
 943 893 l 2,58,59
 943 920 943 920 941.5 957 c 128,-1,60
 940 994 940 994 931.5 1029.5 c 128,-1,61
 923 1065 923 1065 904.5 1092.5 c 128,-1,62
 886 1120 886 1120 855 1120 c 1,63,-1
 664 1042 l 1,0,1
590 713 m 256,64,65
 590 683 590 683 612.5 660.5 c 128,-1,66
 635 638 635 638 664 638 c 256,67,68
 693 638 693 638 714.5 660.5 c 128,-1,69
 736 683 736 683 736 713 c 256,70,71
 736 744 736 744 714.5 765.5 c 128,-1,72
 693 787 693 787 664 787 c 256,73,74
 635 787 635 787 612.5 765.5 c 128,-1,75
 590 744 590 744 590 713 c 256,64,65
EndSplineSet
EndChar
StartChar: uni0E06
Encoding: 3590 3590 275
Width: 1234
VWidth: 3393
Flags: W
HStem: -30 21<367 416 941.737 1150> 703 122<262.178 376.926> 971 118<281.56 353.139> 1304 20G<231 273.5 620 664 940 1150>
VStem: 85 173<863.818 1011.5> 146 194<219.479 327.66> 391 143<844.411 949.277> 431 190<169.293 353> 648 194<931.648 1106.63> 940 210<282 1314>
Fore
621 353 m 1,0,-1
 621 133 l 2,1,2
 621 85 621 85 600.5 54 c 128,-1,3
 580 23 580 23 546 5 c 128,-1,4
 512 -13 512 -13 473 -21.5 c 128,-1,5
 434 -30 434 -30 398 -30 c 0,6,7
 336 -30 336 -30 288 -1.5 c 128,-1,8
 240 27 240 27 208 73 c 128,-1,9
 176 119 176 119 161 174.5 c 128,-1,10
 146 230 146 230 146 285 c 256,11,12
 146 340 146 340 168.5 395.5 c 128,-1,13
 191 451 191 451 228 495.5 c 128,-1,14
 265 540 265 540 315.5 568.5 c 128,-1,15
 366 597 366 597 424 600 c 1,16,17
 424 638 424 638 440.5 683.5 c 128,-1,18
 457 729 457 729 476 761 c 1,19,20
 437 732 437 732 396.5 717.5 c 128,-1,21
 356 703 356 703 308 703 c 0,22,23
 249 703 249 703 205.5 730 c 128,-1,24
 162 757 162 757 135.5 801 c 128,-1,25
 109 845 109 845 97 895.5 c 128,-1,26
 85 946 85 946 85 994 c 0,27,28
 85 1029 85 1029 93 1084.5 c 128,-1,29
 101 1140 101 1140 122 1193 c 128,-1,30
 143 1246 143 1246 175 1285 c 128,-1,31
 207 1324 207 1324 255 1324 c 0,32,33
 292 1324 292 1324 321 1306.5 c 128,-1,34
 350 1289 350 1289 375.5 1271 c 128,-1,35
 401 1253 401 1253 424 1235.5 c 128,-1,36
 447 1218 447 1218 476 1218 c 0,37,38
 499 1218 499 1218 516.5 1235.5 c 128,-1,39
 534 1253 534 1253 550.5 1272.5 c 128,-1,40
 567 1292 567 1292 586 1309.5 c 128,-1,41
 605 1327 605 1327 635 1327 c 0,42,43
 693 1327 693 1327 732 1301.5 c 128,-1,44
 771 1276 771 1276 796.5 1238.5 c 128,-1,45
 822 1201 822 1201 832 1154 c 128,-1,46
 842 1107 842 1107 842 1059 c 0,47,48
 842 991 842 991 808 928 c 128,-1,49
 774 865 774 865 733.5 808 c 128,-1,50
 693 751 693 751 659 698 c 128,-1,51
 625 645 625 645 625 593 c 0,52,53
 625 583 625 583 626.5 578 c 128,-1,54
 628 573 628 573 628 570 c 0,55,56
 628 563 628 563 652 542.5 c 128,-1,57
 676 522 676 522 679 522 c 1,58,59
 719 486 719 486 749.5 458.5 c 128,-1,60
 780 431 780 431 807.5 405 c 128,-1,61
 835 379 835 379 865.5 351 c 128,-1,62
 896 323 896 323 940 282 c 1,63,-1
 940 1314 l 1,64,-1
 1150 1314 l 1,65,-1
 1150 0 l 1,66,-1
 961 0 l 1,67,-1
 621 353 l 1,0,-1
534 923 m 0,68,69
 534 896 534 896 528 860.5 c 128,-1,70
 522 825 522 825 512 804 c 1,71,72
 519 810 519 810 533 821 c 128,-1,73
 547 832 547 832 557 842 c 0,74,75
 600 890 600 890 624 932 c 128,-1,76
 648 974 648 974 648 1069 c 0,77,78
 648 1085 648 1085 636.5 1109 c 128,-1,79
 625 1133 625 1133 608 1133 c 0,80,81
 593 1133 593 1133 581.5 1121.5 c 128,-1,82
 570 1110 570 1110 563 1104 c 0,83,-1
 536 1076 l 0,84,85
 515 1056 515 1056 495 1056 c 2,86,-1
 482 1056 l 2,87,88
 476 1056 476 1056 469 1052 c 1,89,90
 495 1024 495 1024 514.5 994 c 128,-1,91
 534 964 534 964 534 923 c 0,68,69
418 143 m 0,92,93
 424 143 424 143 427.5 168.5 c 128,-1,94
 431 194 431 194 431 204 c 2,95,-1
 431 418 l 1,96,97
 379 394 379 394 359.5 351 c 128,-1,98
 340 308 340 308 340 272 c 256,99,100
 340 234 340 234 356.5 188.5 c 128,-1,101
 373 143 373 143 418 143 c 0,92,93
255 1075 m 1,102,103
 288 1089 288 1089 343 1089 c 0,104,-1
 363 1089 l 0,105,106
 383 1089 383 1089 398 1085 c 1,107,108
 394 1092 394 1092 378.5 1101 c 128,-1,109
 363 1110 363 1110 348 1120 c 128,-1,110
 333 1130 333 1130 319 1136.5 c 128,-1,111
 305 1143 305 1143 302 1143 c 0,112,113
 295 1143 295 1143 276.5 1116 c 128,-1,114
 258 1089 258 1089 255 1075 c 1,102,103
258 900 m 0,115,116
 258 825 258 825 326 825 c 0,117,118
 391 825 391 825 391 900 c 0,119,120
 391 930 391 930 372 950.5 c 128,-1,121
 353 971 353 971 326 971 c 0,122,123
 295 971 295 971 276.5 950.5 c 128,-1,124
 258 930 258 930 258 900 c 0,115,116
EndSplineSet
EndChar
StartChar: uni0E07
Encoding: 3591 3591 276
Width: 1234
VWidth: 3393
Flags: W
HStem: 0 21G<744.449 1059> 835 169<740.548 845.521> 1157 177<747.143 849.31>
VStem: 525 201<1029.69 1142.47> 848 211<169 839> 872 187<1027.2 1134.82>
Fore
848 169 m 1,0,-1
 848 839 l 1,1,2
 832 835 832 835 797 835 c 0,3,4
 693 835 693 835 609 901.5 c 128,-1,5
 525 968 525 968 525 1079 c 0,6,7
 525 1195 525 1195 607 1264.5 c 128,-1,8
 689 1334 689 1334 797 1334 c 0,9,10
 910 1334 910 1334 984.5 1266 c 128,-1,11
 1059 1198 1059 1198 1059 1082 c 2,12,-1
 1059 0 l 1,13,-1
 761 0 l 1,14,-1
 214 661 l 1,15,-1
 424 661 l 1,16,-1
 848 169 l 1,0,-1
726 1079 m 0,17,18
 726 1049 726 1049 746.5 1026.5 c 128,-1,19
 767 1004 767 1004 797 1004 c 256,20,21
 828 1004 828 1004 850 1026.5 c 128,-1,22
 872 1049 872 1049 872 1079 c 0,23,24
 872 1114 872 1114 850 1135.5 c 128,-1,25
 828 1157 828 1157 797 1157 c 256,26,27
 767 1157 767 1157 746.5 1135.5 c 128,-1,28
 726 1114 726 1114 726 1079 c 0,17,18
EndSplineSet
EndChar
StartChar: uni0E08
Encoding: 3592 3592 277
Width: 1234
VWidth: 3393
Flags: W
HStem: 0 21G<657.958 1068.5> 428 169<439.725 543.755> 747 169<447.204 546.795> 1130 197<481.333 806.648>
VStem: 244 180<612.258 731.905> 896 204.5<550.781 785.842> 896 214<640.478 1034.48>
Fore
1110 838 m 0,0,1
 1104 754 1104 754 1100.5 673.5 c 128,-1,2
 1097 593 1097 593 1092 509 c 0,3,4
 1082 316 l 0,5,6
 1072 123 1072 123 1065 0 c 1,7,-1
 661 0 l 1,8,-1
 593 447 l 1,9,10
 570 434 570 434 546 431 c 128,-1,11
 522 428 522 428 495 428 c 0,12,13
 383 428 383 428 313.5 504 c 128,-1,14
 244 580 244 580 244 686 c 0,15,16
 244 800 244 800 326 858 c 128,-1,17
 408 916 408 916 509 916 c 0,18,19
 583 916 583 916 631 889 c 128,-1,20
 679 862 679 862 707.5 818 c 128,-1,21
 736 774 736 774 750 717.5 c 128,-1,22
 764 661 764 661 774 605 c 2,23,-1
 835 181 l 1,24,-1
 878 181 l 1,25,26
 886 343 886 343 891 508 c 128,-1,27
 896 673 896 673 896 835 c 0,28,29
 896 978 896 978 840 1054 c 128,-1,30
 784 1130 784 1130 631 1130 c 0,31,32
 502 1130 502 1130 368 1057 c 128,-1,33
 234 984 234 984 126 855 c 1,34,-1
 126 1117 l 1,35,36
 169 1178 169 1178 230.5 1218.5 c 128,-1,37
 292 1259 292 1259 360 1282.5 c 128,-1,38
 428 1306 428 1306 500.5 1316.5 c 128,-1,39
 573 1327 573 1327 638 1327 c 0,40,41
 886 1327 886 1327 998 1203 c 128,-1,42
 1110 1079 1110 1079 1110 838 c 0,0,1
424 673 m 256,43,44
 424 641 424 641 446.5 619 c 128,-1,45
 469 597 469 597 495 597 c 0,46,47
 525 597 525 597 547.5 619 c 128,-1,48
 570 641 570 641 570 673 c 256,49,50
 570 703 570 703 547.5 725 c 128,-1,51
 525 747 525 747 495 747 c 0,52,53
 469 747 469 747 446.5 725 c 128,-1,54
 424 703 424 703 424 673 c 256,43,44
EndSplineSet
EndChar
StartChar: uni0E09
Encoding: 3593 3593 278
Width: 1234
VWidth: 3393
Flags: W
HStem: -30 149<933.575 1017.5> 383 154<276.743 355.474> 689 159<284.174 384.796> 1147 187<512.749 723.734>
VStem: 88 174<551.219 673.648> 408 175<559.175 666.311> 893 211<502.22 537 537 1023.68> 1029 172<145.505 265.244>
Fore
767 428 m 2,0,1
 810 462 810 462 851.5 501 c 128,-1,2
 893 540 893 540 893 583 c 2,3,-1
 893 858 l 2,4,5
 893 991 893 991 812.5 1069 c 128,-1,6
 732 1147 732 1147 587 1147 c 0,7,8
 522 1147 522 1147 447.5 1122 c 128,-1,9
 373 1097 373 1097 300 1054 c 128,-1,10
 227 1011 227 1011 156 960.5 c 128,-1,11
 85 910 85 910 27 858 c 1,12,-1
 27 1127 l 1,13,14
 78 1175 78 1175 147.5 1212 c 128,-1,15
 217 1249 217 1249 293.5 1275.5 c 128,-1,16
 370 1302 370 1302 446 1318 c 128,-1,17
 522 1334 522 1334 587 1334 c 0,18,19
 679 1334 679 1334 772 1310 c 128,-1,20
 865 1286 865 1286 938 1235.5 c 128,-1,21
 1011 1185 1011 1185 1057.5 1104.5 c 128,-1,22
 1104 1024 1104 1024 1104 910 c 2,23,-1
 1104 537 l 2,24,25
 1104 472 1104 472 1069 428 c 1,26,27
 1133 401 1133 401 1167 344.5 c 128,-1,28
 1201 288 1201 288 1201 217 c 0,29,30
 1201 116 1201 116 1138 43 c 128,-1,31
 1075 -30 1075 -30 971 -30 c 0,32,33
 872 -30 872 -30 809.5 34 c 128,-1,34
 747 98 747 98 747 197 c 2,35,-1
 747 227 l 1,36,37
 693 184 693 184 652 126 c 128,-1,38
 611 68 611 68 573 0 c 1,39,-1
 379 0 l 1,40,-1
 379 391 l 1,41,42
 363 386 363 386 348 384.5 c 128,-1,43
 333 383 333 383 315 383 c 0,44,45
 220 383 220 383 154 439 c 128,-1,46
 88 495 88 495 88 597 c 0,47,48
 88 709 88 709 157.5 778.5 c 128,-1,49
 227 848 227 848 343 848 c 0,50,51
 479 848 479 848 531 765.5 c 128,-1,52
 583 683 583 683 583 560 c 2,53,-1
 583 292 l 1,54,-1
 767 428 l 2,0,1
1029 207 m 256,55,56
 1029 234 1029 234 1016.5 261 c 128,-1,57
 1004 288 1004 288 981 288 c 0,58,59
 949 288 949 288 936 262.5 c 128,-1,60
 923 237 923 237 923 207 c 0,61,62
 923 181 923 181 934.5 150 c 128,-1,63
 946 119 946 119 974 119 c 256,64,65
 1001 119 1001 119 1015 150 c 128,-1,66
 1029 181 1029 181 1029 207 c 256,55,56
262 615 m 0,67,68
 262 580 262 580 283.5 558.5 c 128,-1,69
 305 537 305 537 336 537 c 0,70,71
 363 537 363 537 385.5 558.5 c 128,-1,72
 408 580 408 580 408 615 c 0,73,74
 408 645 408 645 385.5 667 c 128,-1,75
 363 689 363 689 336 689 c 0,76,77
 305 689 305 689 283.5 667 c 128,-1,78
 262 645 262 645 262 615 c 0,67,68
EndSplineSet
EndChar
StartChar: uni0E0A
Encoding: 3594 3594 279
Width: 1234
VWidth: 3393
Flags: W
HStem: 0 181<553 868> 722 126<266.817 382.841> 1100 20G<-17 417> 1171 156<354.593 554.255>
VStem: 91 161<863.144 986.467> 343 210<181 522.878> 398 127<871.206 978.826> 868 211<181 820.387>
Fore
343 379 m 2,0,1
 343 469 343 469 382 545 c 128,-1,2
 421 621 421 621 470 697.5 c 128,-1,3
 519 774 519 774 558 850 c 128,-1,4
 597 926 597 926 597 1014 c 0,5,6
 597 1082 597 1082 558 1126.5 c 128,-1,7
 519 1171 519 1171 454 1171 c 0,8,9
 398 1171 398 1171 370.5 1150.5 c 128,-1,10
 343 1130 343 1130 323 1117 c 1,11,-1
 383 1120 l 2,12,13
 451 1120 451 1120 488 1062 c 128,-1,14
 525 1004 525 1004 525 933 c 0,15,16
 525 838 525 838 471.5 780 c 128,-1,17
 418 722 418 722 323 722 c 0,18,19
 204 722 204 722 147.5 793.5 c 128,-1,20
 91 865 91 865 91 974 c 0,21,22
 91 1137 91 1137 189.5 1232 c 128,-1,23
 288 1327 288 1327 451 1327 c 0,24,25
 744 1327 744 1327 777 1072 c 1,26,27
 865 1120 865 1120 913 1191.5 c 128,-1,28
 961 1263 961 1263 961 1374 c 1,29,-1
 1171 1374 l 1,30,31
 1171 1324 1171 1324 1154 1269.5 c 128,-1,32
 1137 1215 1137 1215 1109.5 1164.5 c 128,-1,33
 1082 1114 1082 1114 1043 1067.5 c 128,-1,34
 1004 1021 1004 1021 961 991 c 1,35,36
 1011 946 1011 946 1045 889 c 128,-1,37
 1079 832 1079 832 1079 771 c 2,38,-1
 1079 0 l 1,39,-1
 343 0 l 1,40,-1
 343 379 l 2,0,1
868 739 m 1,41,42
 868 794 868 794 856.5 853.5 c 128,-1,43
 845 913 845 913 777 930 c 1,44,45
 771 875 771 875 735 805.5 c 128,-1,46
 699 736 699 736 658.5 664.5 c 128,-1,47
 618 593 618 593 585.5 525 c 128,-1,48
 553 457 553 457 553 401 c 2,49,-1
 553 181 l 1,50,-1
 868 181 l 1,51,-1
 868 739 l 1,41,42
252 926 m 0,52,53
 252 893 252 893 272 870.5 c 128,-1,54
 292 848 292 848 323 848 c 256,55,56
 353 848 353 848 375.5 870.5 c 128,-1,57
 398 893 398 893 398 926 c 0,58,59
 398 958 398 958 375.5 979.5 c 128,-1,60
 353 1001 353 1001 323 1001 c 256,61,62
 292 1001 292 1001 272 979.5 c 128,-1,63
 252 958 252 958 252 926 c 0,52,53
EndSplineSet
EndChar
StartChar: uni0E0B
Encoding: 3595 3595 280
Width: 1234
VWidth: 3393
Flags: W
HStem: 0 181<553 868> 706 126<258.65 373.527> 971 121<258.313 369.62> 1147 177<259.299 319.791 523.19 569.838>
VStem: 78 177<868.748 1036.5> 343 210<181 468.307> 386 136<833.733 969.22> 868 211<181 781.877> 946 211<1194.4 1370>
Fore
237 1075 m 1,0,1
 268 1092 268 1092 308 1092 c 0,2,3
 346 1092 346 1092 379 1085 c 1,4,5
 370 1094 l 2,6,7
 360 1104 360 1104 348 1115.5 c 128,-1,8
 336 1127 336 1127 322 1137 c 128,-1,9
 308 1147 308 1147 302 1147 c 0,10,11
 285 1147 285 1147 264.5 1119.5 c 128,-1,12
 244 1092 244 1092 237 1075 c 1,0,1
522 923 m 0,13,14
 522 910 522 910 522 869 c 128,-1,15
 522 828 522 828 515 819 c 1,16,17
 519 822 519 822 528 835 c 128,-1,18
 537 848 537 848 537 852 c 1,19,20
 563 896 563 896 576.5 928.5 c 128,-1,21
 590 961 590 961 590 1024 c 0,22,23
 590 1039 590 1039 588.5 1059 c 128,-1,24
 587 1079 587 1079 582 1098 c 128,-1,25
 577 1117 577 1117 567 1130 c 128,-1,26
 557 1143 557 1143 540 1143 c 0,27,28
 534 1143 534 1143 526.5 1126.5 c 128,-1,29
 519 1110 519 1110 515 1104 c 0,30,31
 499 1069 499 1069 457 1059 c 1,32,33
 486 1032 486 1032 504 998 c 128,-1,34
 522 964 522 964 522 923 c 0,13,14
868 719 m 2,35,36
 868 747 868 747 863 783 c 128,-1,37
 858 819 858 819 846.5 850.5 c 128,-1,38
 835 882 835 882 814.5 907.5 c 128,-1,39
 794 933 794 933 761 936 c 1,40,41
 747 872 747 872 713 800.5 c 128,-1,42
 679 729 679 729 643.5 658 c 128,-1,43
 608 587 608 587 580.5 515.5 c 128,-1,44
 553 444 553 444 553 376 c 2,45,-1
 553 181 l 1,46,-1
 868 181 l 1,47,-1
 868 719 l 2,35,36
560 1324 m 0,48,49
 615 1324 615 1324 652 1301.5 c 128,-1,50
 689 1279 689 1279 712.5 1243.5 c 128,-1,51
 736 1208 736 1208 748.5 1164 c 128,-1,52
 761 1120 761 1120 764 1075 c 1,53,54
 852 1120 852 1120 899 1189.5 c 128,-1,55
 946 1259 946 1259 946 1370 c 1,56,-1
 1157 1370 l 1,57,58
 1157 1276 1157 1276 1108 1167.5 c 128,-1,59
 1059 1059 1059 1059 968 998 c 1,60,61
 1017 949 1017 949 1048 876.5 c 128,-1,62
 1079 804 1079 804 1079 744 c 2,63,-1
 1079 0 l 1,64,-1
 343 0 l 1,65,-1
 343 421 l 2,66,67
 343 457 343 457 361 510 c 128,-1,68
 379 563 379 563 403.5 613.5 c 128,-1,69
 428 664 428 664 453.5 710.5 c 128,-1,70
 479 757 479 757 492 777 c 1,71,72
 457 739 457 739 403.5 722.5 c 128,-1,73
 350 706 350 706 312 706 c 0,74,75
 252 706 252 706 207 735 c 128,-1,76
 162 764 162 764 133 809.5 c 128,-1,77
 104 855 104 855 91 909.5 c 128,-1,78
 78 964 78 964 78 1014 c 0,79,80
 78 1059 78 1059 88 1113.5 c 128,-1,81
 98 1168 98 1168 123.5 1213.5 c 128,-1,82
 149 1259 149 1259 189.5 1291.5 c 128,-1,83
 230 1324 230 1324 288 1324 c 0,84,85
 320 1324 320 1324 336.5 1310 c 128,-1,86
 353 1296 353 1296 368 1277.5 c 128,-1,87
 383 1259 383 1259 398.5 1245 c 128,-1,88
 414 1231 414 1231 434 1231 c 0,89,90
 451 1231 451 1231 458.5 1245 c 128,-1,91
 466 1259 466 1259 476 1277.5 c 128,-1,92
 486 1296 486 1296 504 1310 c 128,-1,93
 522 1324 522 1324 560 1324 c 0,48,49
255 903 m 0,94,95
 255 832 255 832 323 832 c 0,96,97
 386 832 386 832 386 903 c 0,98,99
 386 971 386 971 323 971 c 0,100,101
 255 971 255 971 255 903 c 0,94,95
EndSplineSet
EndChar
StartChar: uni0E0C
Encoding: 3596 3596 281
Width: 1234
VWidth: 3393
Flags: W
HStem: -30 21<682 768 1001 1201> -30 159<270.178 370.469> 305 136<283.087 373.159> 1163 161<326.281 580.969>
VStem: 65 210<431 788.576> 683 192<466 1098.54> 699 176<96.7457 272> 991 210<370 1314> 1001 200<0 120.624>
Fore
1001 94 m 2,0,1
 1001 109 1001 109 996 121 c 128,-1,2
 991 133 991 133 979.5 151 c 128,-1,3
 968 169 968 169 942 198 c 128,-1,4
 916 227 916 227 875 272 c 1,5,-1
 875 166 l 2,6,7
 875 91 875 91 841 30.5 c 128,-1,8
 807 -30 807 -30 729 -30 c 0,9,10
 635 -30 635 -30 582 17.5 c 128,-1,11
 529 65 529 65 512 136 c 1,12,13
 489 68 489 68 443.5 19 c 128,-1,14
 398 -30 398 -30 320 -30 c 0,15,16
 258 -30 258 -30 210 -5 c 128,-1,17
 162 20 162 20 130 60.5 c 128,-1,18
 98 101 98 101 81.5 154 c 128,-1,19
 65 207 65 207 65 258 c 2,20,-1
 65 658 l 2,21,22
 65 729 65 729 105.5 790.5 c 128,-1,23
 146 852 146 852 184 893 c 1,24,-1
 33 893 l 1,25,-1
 33 1056 l 1,26,27
 78 1107 78 1107 118.5 1154 c 128,-1,28
 159 1201 159 1201 207 1238.5 c 128,-1,29
 255 1276 255 1276 314 1300 c 128,-1,30
 373 1324 373 1324 454 1324 c 0,31,32
 534 1324 534 1324 608.5 1305 c 128,-1,33
 683 1286 683 1286 741.5 1245.5 c 128,-1,34
 800 1205 800 1205 837.5 1140 c 128,-1,35
 875 1075 875 1075 875 984 c 2,36,-1
 875 447 l 1,37,38
 913 421 913 421 938.5 406 c 128,-1,39
 964 391 964 391 991 370 c 1,40,-1
 991 1314 l 1,41,-1
 1201 1314 l 1,42,-1
 1201 0 l 1,43,-1
 1001 0 l 1,44,-1
 1001 94 l 2,0,1
340 441 m 0,45,46
 418 441 418 441 458.5 407 c 128,-1,47
 499 373 499 373 515 312 c 1,48,49
 534 373 534 373 574.5 407 c 128,-1,50
 615 441 615 441 683 466 c 1,51,-1
 683 949 l 2,52,53
 683 1052 683 1052 631.5 1107.5 c 128,-1,54
 580 1163 580 1163 482 1163 c 256,55,56
 383 1163 383 1163 325.5 1119 c 128,-1,57
 268 1075 268 1075 214 1017 c 1,58,-1
 356 1017 l 1,59,-1
 356 903 l 1,60,61
 308 890 308 890 291.5 842 c 128,-1,62
 275 794 275 794 275 747 c 2,63,-1
 275 431 l 1,64,65
 312 441 312 441 340 441 c 0,45,46
383 227 m 0,66,67
 383 262 383 262 368 283.5 c 128,-1,68
 353 305 353 305 315 305 c 0,69,70
 288 305 288 305 273 280 c 128,-1,71
 258 255 258 255 258 227 c 0,72,73
 258 194 258 194 271.5 161.5 c 128,-1,74
 285 129 285 129 320 129 c 0,75,76
 356 129 356 129 369.5 163 c 128,-1,77
 383 197 383 197 383 227 c 0,66,67
699 315 m 1,78,79
 668 302 668 302 648 271 c 128,-1,80
 628 240 628 240 628 200 c 0,81,82
 628 162 628 162 641.5 131.5 c 128,-1,83
 655 101 655 101 703 94 c 1,84,85
 699 101 699 101 699 130 c 128,-1,86
 699 159 699 159 699 162 c 2,87,-1
 699 315 l 1,78,79
EndSplineSet
EndChar
StartChar: uni0E0D
Encoding: 3597 3597 282
Width: 1234
VWidth: 3393
Flags: W
HStem: -476 164<705.166 868.372> -181 113<673.002 783.742> -30 143<295.526 399.054> 0 181<819 978> 312 139<311.655 405.095> 1182 152<368.67 482>
VStem: 88 210<437 804.856> 418 155<153.711 283.973> 522 129<-299.96 -192.978> 618 201<181 1060.94> 787 123<-278.554 -185.203> 978 210<-182.026 -101 181 1314>
Fore
486 1182 m 1,0,1
 386 1182 386 1182 330.5 1149.5 c 128,-1,2
 275 1117 275 1117 230 1039 c 1,3,-1
 394 1039 l 1,4,-1
 394 907 l 1,5,6
 343 897 343 897 320.5 850.5 c 128,-1,7
 298 804 298 804 298 761 c 2,8,-1
 298 437 l 1,9,10
 336 451 336 451 370 451 c 0,11,12
 479 451 479 451 526 397 c 128,-1,13
 573 343 573 343 573 240 c 256,14,15
 573 139 573 139 517.5 54.5 c 128,-1,16
 462 -30 462 -30 346 -30 c 0,17,18
 278 -30 278 -30 229.5 -1.5 c 128,-1,19
 181 27 181 27 150 73 c 128,-1,20
 119 119 119 119 103.5 176.5 c 128,-1,21
 88 234 88 234 88 292 c 2,22,-1
 88 686 l 2,23,24
 88 754 88 754 128.5 806.5 c 128,-1,25
 169 859 169 859 200 897 c 1,26,-1
 51 897 l 1,27,-1
 51 1069 l 1,28,29
 98 1137 98 1137 132 1188.5 c 128,-1,30
 166 1240 166 1240 209 1271.5 c 128,-1,31
 252 1303 252 1303 312.5 1318.5 c 128,-1,32
 373 1334 373 1334 476 1334 c 0,33,34
 679 1334 679 1334 749 1239 c 128,-1,35
 819 1144 819 1144 819 943 c 2,36,-1
 819 181 l 1,37,-1
 978 181 l 1,38,-1
 978 1314 l 1,39,-1
 1188 1314 l 1,40,-1
 1188 0 l 1,41,-1
 618 0 l 1,42,-1
 618 920 l 2,43,44
 618 965 618 965 616.5 1010.5 c 128,-1,45
 615 1056 615 1056 601 1095 c 128,-1,46
 587 1134 587 1134 560.5 1158 c 128,-1,47
 534 1182 534 1182 482 1182 c 1,48,-1
 486 1182 l 1,0,1
1185 -152 m 2,49,50
 1185 -187 1185 -187 1174 -231 c 128,-1,51
 1163 -275 1163 -275 1147 -305 c 0,52,53
 1089 -401 1089 -401 992.5 -438.5 c 128,-1,54
 896 -476 896 -476 790 -476 c 0,55,56
 747 -476 747 -476 699 -463.5 c 128,-1,57
 651 -451 651 -451 612 -426 c 128,-1,58
 573 -401 573 -401 547.5 -362 c 128,-1,59
 522 -323 522 -323 522 -268 c 0,60,61
 522 -181 522 -181 571.5 -124.5 c 128,-1,62
 621 -68 621 -68 709 -68 c 0,63,64
 787 -68 787 -68 848.5 -107 c 128,-1,65
 910 -146 910 -146 910 -237 c 0,66,67
 910 -278 910 -278 890 -308 c 1,68,69
 943 -288 943 -288 964 -237 c 0,70,71
 974 -214 974 -214 979 -183 c 128,-1,72
 984 -152 984 -152 984 -101 c 1,73,-1
 1185 -101 l 1,74,-1
 1185 -152 l 2,49,50
418 220 m 0,75,76
 418 255 418 255 402 283.5 c 128,-1,77
 386 312 386 312 350 312 c 0,78,79
 320 312 320 312 299 283.5 c 128,-1,80
 278 255 278 255 278 224 c 0,81,82
 278 187 278 187 296.5 150 c 128,-1,83
 315 113 315 113 353 113 c 0,84,85
 379 113 379 113 398.5 153.5 c 128,-1,86
 418 194 418 194 418 220 c 0,75,76
651 -249 m 0,87,88
 651 -275 651 -275 672 -293.5 c 128,-1,89
 693 -312 693 -312 719 -312 c 0,90,91
 787 -312 787 -312 787 -249 c 0,92,93
 787 -181 787 -181 719 -181 c 0,94,95
 693 -181 693 -181 672 -199 c 128,-1,96
 651 -217 651 -217 651 -249 c 0,87,88
EndSplineSet
Substitution2: "Single Substitution lookup 22 subtable" uni0E0D.alt1
Substitution2: "Single Substitution lookup 22 subtable" uni0E0D.alt1
EndChar
StartChar: uni0E0E
Encoding: 3598 3598 283
Width: 1234
VWidth: 3393
Flags: W
HStem: -547 161<481.502 615.629> -244 159<451.18 559.092> -30 156<264.39 361.601> 1153 174<564.83 865.947>
VStem: 68 181<157.774 272.419> 255 182<-369.924 -271.021> 353 210<441 804.374> 370 193<227 360> 961 207<-285 948.793>
Fore
1168 -540 m 1,0,-1
 984 -540 l 1,1,2
 940 -512 940 -512 889 -463 c 128,-1,3
 838 -414 838 -414 790 -379 c 1,4,5
 757 -466 757 -466 687.5 -506.5 c 128,-1,6
 618 -547 618 -547 519 -547 c 0,7,8
 472 -547 472 -547 424 -533 c 128,-1,9
 376 -519 376 -519 339 -492.5 c 128,-1,10
 302 -466 302 -466 278.5 -424.5 c 128,-1,11
 255 -383 255 -383 255 -326 c 0,12,13
 255 -210 255 -210 333 -147.5 c 128,-1,14
 411 -85 411 -85 519 -85 c 0,15,16
 547 -85 547 -85 572 -91.5 c 128,-1,17
 597 -98 597 -98 621 -104 c 1,18,-1
 621 23 l 1,19,-1
 832 23 l 1,20,-1
 819 -176 l 1,21,22
 855 -204 855 -204 890.5 -231 c 128,-1,23
 926 -258 926 -258 961 -285 c 1,24,-1
 961 842 l 2,25,26
 961 913 961 913 952 971 c 128,-1,27
 943 1029 943 1029 919.5 1069.5 c 128,-1,28
 896 1110 896 1110 851.5 1131.5 c 128,-1,29
 807 1153 807 1153 736 1153 c 0,30,31
 648 1153 648 1153 576.5 1121 c 128,-1,32
 505 1089 505 1089 444 1032 c 1,33,-1
 664 1032 l 1,34,-1
 664 906 l 1,35,36
 608 878 608 878 585.5 834 c 128,-1,37
 563 790 563 790 563 739 c 2,38,-1
 563 360 l 2,39,40
 563 295 563 295 558 225.5 c 128,-1,41
 553 156 553 156 527.5 100.5 c 128,-1,42
 502 45 502 45 451.5 7.5 c 128,-1,43
 401 -30 401 -30 308 -30 c 0,44,45
 200 -30 200 -30 134 51.5 c 128,-1,46
 68 133 68 133 68 234 c 0,47,48
 68 333 68 333 134 392 c 128,-1,49
 200 451 200 451 298 451 c 0,50,51
 330 451 330 451 353 441 c 1,52,-1
 353 696 l 2,53,54
 353 754 353 754 392 806 c 128,-1,55
 431 858 431 858 457 896 c 1,56,-1
 237 896 l 1,57,-1
 237 1069 l 1,58,59
 326 1198 326 1198 453 1262.5 c 128,-1,60
 580 1327 580 1327 726 1327 c 0,61,62
 968 1327 968 1327 1069.5 1218.5 c 128,-1,63
 1171 1110 1171 1110 1171 858 c 2,64,-1
 1168 -540 l 1,0,-1
519 -386 m 0,65,66
 621 -386 621 -386 621 -312 c 2,67,-1
 621 -282 l 1,68,69
 590 -265 590 -265 562 -254.5 c 128,-1,70
 534 -244 534 -244 502 -244 c 0,71,72
 476 -244 476 -244 456.5 -269.5 c 128,-1,73
 437 -295 437 -295 437 -320 c 0,74,75
 437 -346 437 -346 466 -366 c 128,-1,76
 495 -386 495 -386 519 -386 c 0,65,66
370 227 m 0,77,78
 370 255 370 255 350 273.5 c 128,-1,79
 330 292 330 292 302 292 c 256,80,81
 275 292 275 292 262 270.5 c 128,-1,82
 249 249 249 249 249 220 c 256,83,84
 249 191 249 191 265.5 158.5 c 128,-1,85
 282 126 282 126 315 126 c 0,86,87
 353 126 353 126 361.5 158.5 c 128,-1,88
 370 191 370 191 370 227 c 0,77,78
EndSplineSet
Substitution2: "Single Substitution lookup 22 subtable" uni0E0E.alt1
Substitution2: "Single Substitution lookup 22 subtable" uni0E0E.alt1
EndChar
StartChar: uni0E0F
Encoding: 3599 3599 284
Width: 1234
VWidth: 3393
Flags: W
HStem: -547 156<307.748 442.558> -258 149<284.576 470.441> -30 153<269.598 360.186> 295 149<271.924 348.797> 1165 169<553.512 868.712>
VStem: 81 177<149.328 269.755> 88 187<-375.849 -277.222> 353 210<441 788.798> 370 193<210 333> 958 210<-275 931.798>
Fore
1168 -540 m 1,0,-1
 971 -540 l 1,1,-1
 865 -391 l 1,2,3
 828 -437 828 -437 807.5 -471 c 128,-1,4
 787 -505 787 -505 771 -534 c 1,5,-1
 693 -534 l 1,6,-1
 611 -428 l 1,7,8
 553 -486 553 -486 497 -516.5 c 128,-1,9
 441 -547 441 -547 346 -547 c 256,10,11
 252 -547 252 -547 170 -485.5 c 128,-1,12
 88 -424 88 -424 88 -323 c 0,13,14
 88 -224 88 -224 166 -166.5 c 128,-1,15
 244 -109 244 -109 336 -109 c 0,16,17
 441 -109 441 -109 525 -162 c 1,18,-1
 525 -7 l 1,19,-1
 736 -7 l 1,20,21
 736 -68 736 -68 732.5 -108.5 c 128,-1,22
 729 -149 729 -149 724 -174.5 c 128,-1,23
 719 -200 719 -200 714 -217 c 128,-1,24
 709 -234 709 -234 703 -252 c 1,25,26
 706 -258 706 -258 726.5 -276.5 c 128,-1,27
 747 -295 747 -295 761 -305 c 1,28,29
 777 -268 777 -268 804.5 -227.5 c 128,-1,30
 832 -187 832 -187 855 -146 c 1,31,-1
 958 -275 l 1,32,-1
 958 893 l 2,33,34
 958 1165 958 1165 709 1165 c 0,35,36
 621 1165 621 1165 556.5 1127 c 128,-1,37
 492 1089 492 1089 441 1036 c 1,38,-1
 655 1036 l 1,39,-1
 655 900 l 1,40,41
 608 872 608 872 585.5 818 c 128,-1,42
 563 764 563 764 563 716 c 2,43,-1
 563 333 l 2,44,45
 563 268 563 268 555 202 c 128,-1,46
 547 136 547 136 519.5 84.5 c 128,-1,47
 492 33 492 33 443 1.5 c 128,-1,48
 394 -30 394 -30 308 -30 c 0,49,50
 194 -30 194 -30 137.5 44.5 c 128,-1,51
 81 119 81 119 81 220 c 0,52,53
 81 320 81 320 137.5 382 c 128,-1,54
 194 444 194 444 292 444 c 0,55,56
 308 444 308 444 322 444 c 128,-1,57
 336 444 336 444 353 441 c 1,58,-1
 353 686 l 2,59,60
 353 736 353 736 385.5 790.5 c 128,-1,61
 418 845 418 845 454 890 c 1,62,-1
 240 890 l 1,63,-1
 240 1082 l 1,64,65
 326 1202 326 1202 449.5 1268 c 128,-1,66
 573 1334 573 1334 713 1334 c 0,67,68
 838 1334 838 1334 948.5 1287 c 0,69,70
 1056.64 1241 1056.64 1241 1123 1120 c 0,71,72
 1140 1089 1140 1089 1148.5 1038.5 c 128,-1,73
 1157 988 1157 988 1160 933.5 c 128,-1,74
 1163 879 1163 879 1165.5 828 c 128,-1,75
 1168 777 1168 777 1168 744 c 2,76,-1
 1168 -540 l 1,0,-1
370 -391 m 0,77,78
 401 -391 401 -391 440 -373.5 c 128,-1,79
 479 -356 479 -356 492 -320 c 1,80,81
 424 -258 424 -258 343 -258 c 0,82,83
 308 -258 308 -258 291.5 -276.5 c 128,-1,84
 275 -295 275 -295 275 -320 c 0,85,86
 275 -360 275 -360 310.5 -375.5 c 128,-1,87
 346 -391 346 -391 370 -391 c 0,77,78
370 210 m 256,88,89
 370 240 370 240 356.5 267.5 c 128,-1,90
 343 295 343 295 308 295 c 0,91,92
 285 295 285 295 271.5 266 c 128,-1,93
 258 237 258 237 258 210 c 256,94,95
 258 184 258 184 271.5 153.5 c 128,-1,96
 285 123 285 123 312 123 c 0,97,98
 346 123 346 123 358 152 c 128,-1,99
 370 181 370 181 370 210 c 256,88,89
EndSplineSet
Substitution2: "Single Substitution lookup 22 subtable" uni0E0F.alt1
Substitution2: "Single Substitution lookup 22 subtable" uni0E0F.alt1
EndChar
StartChar: uni0E10
Encoding: 3600 3600 285
Width: 1234
VWidth: 3393
Flags: W
HStem: -543 152<189.21 296.731> -540 139<730.185 841.997> -275 146<178.587 278.133> -156 111<817.113 900.725> 0 21G<699.236 997.5> 305 152<397.087 514.202> 611 150<404.143 506.826> 865 177<363.173 712.958> 1024 252<900.419 1071.89> 1143 184<422.047 661.871>
VStem: 17 152<-372.164 -294.346> 230 153<471.644 585.424> 679 136<-239.778 -156.189> 893 207<555.006 765.859> 903 133<-239.99 -156.72>
Fore
1120 1039 m 2,0,1
 1079 1024 1079 1024 1014 1024 c 256,2,3
 949 1024 949 1024 887 1043 c 128,-1,4
 825 1062 825 1062 765.5 1084.5 c 128,-1,5
 706 1107 706 1107 646.5 1125 c 128,-1,6
 587 1143 587 1143 525 1143 c 0,7,8
 469 1143 469 1143 431.5 1116 c 128,-1,9
 394 1089 394 1089 363 1042 c 1,10,-1
 492 1042 l 2,11,12
 553 1042 553 1042 637.5 1039 c 128,-1,13
 722 1036 722 1036 806 1017 c 128,-1,14
 890 998 890 998 961 962 c 128,-1,15
 1032 926 1032 926 1065 858 c 0,16,17
 1085 822 1085 822 1092.5 777 c 128,-1,18
 1100 732 1100 732 1100 689 c 0,19,20
 1100 605 1100 605 1086 518 c 128,-1,21
 1072 431 1072 431 1055.5 344.5 c 128,-1,22
 1039 258 1039 258 1020 171.5 c 128,-1,23
 1001 85 1001 85 994 0 c 1,24,-1
 706 0 l 1,25,-1
 590 343 l 1,26,27
 543 305 543 305 466 305 c 0,28,29
 366 305 366 305 298 368 c 128,-1,30
 230 431 230 431 230 529 c 0,31,32
 230 648 230 648 304.5 704.5 c 128,-1,33
 379 761 379 761 492 761 c 0,34,35
 590 761 590 761 661 630 c 128,-1,36
 732 499 732 499 838 214 c 1,37,38
 848 320 848 320 870.5 428.5 c 128,-1,39
 893 537 893 537 893 641 c 0,40,41
 893 739 893 739 856 785.5 c 128,-1,42
 819 832 819 832 752.5 847 c 128,-1,43
 686 862 686 862 592.5 860 c 128,-1,44
 499 858 499 858 386 865 c 0,45,46
 360 865 360 865 329 863.5 c 128,-1,47
 298 862 298 862 268 848 c 1,48,-1
 81 848 l 1,49,50
 101 949 101 949 141 1036 c 128,-1,51
 181 1123 181 1123 239.5 1188 c 128,-1,52
 298 1253 298 1253 380 1290 c 128,-1,53
 462 1327 462 1327 563 1327 c 0,54,55
 648 1327 648 1327 750 1301.5 c 128,-1,56
 852 1276 852 1276 930 1276 c 0,57,58
 981 1276 981 1276 1028 1282.5 c 128,-1,59
 1075 1289 1075 1289 1153 1321 c 1,60,-1
 1153 1049 l 1,61,-1
 1120 1039 l 2,0,1
1036 -376 m 1,62,63
 1036 -466 1036 -466 988 -503 c 128,-1,64
 940 -540 940 -540 852 -540 c 2,65,-1
 664 -540 l 1,66,-1
 587 -457 l 1,67,68
 567 -479 567 -479 546 -506.5 c 128,-1,69
 525 -534 525 -534 499 -550 c 1,70,71
 454 -495 454 -495 441 -478.5 c 128,-1,72
 428 -462 428 -462 421 -451 c 1,73,74
 383 -486 383 -486 340.5 -514.5 c 128,-1,75
 298 -543 298 -543 240 -543 c 0,76,77
 17 -543 17 -543 17 -323 c 0,78,79
 17 -244 17 -244 78 -186.5 c 128,-1,80
 139 -129 139 -129 217 -129 c 0,81,82
 252 -129 252 -129 283.5 -140.5 c 128,-1,83
 315 -152 315 -152 343 -169 c 1,84,85
 343 -146 343 -146 343 -125 c 128,-1,86
 343 -104 343 -104 340 -81 c 1,87,-1
 340 -48 l 1,88,-1
 547 -48 l 1,89,90
 553 -71 553 -71 555 -79.5 c 128,-1,91
 557 -88 557 -88 557 -94 c 2,92,-1
 557 -98 l 2,93,94
 557 -146 557 -146 547 -195 c 128,-1,95
 537 -244 537 -244 522 -288 c 1,96,97
 534 -295 534 -295 543 -305 c 0,98,99
 563 -326 563 -326 563 -330 c 1,100,101
 583 -302 583 -302 595.5 -288.5 c 128,-1,102
 608 -275 608 -275 621 -262 c 1,103,-1
 729 -394 l 2,104,105
 736 -401 736 -401 758 -401 c 128,-1,106
 780 -401 780 -401 794 -401 c 2,107,-1
 828 -401 l 2,108,109
 842 -401 842 -401 842 -356 c 1,110,111
 774 -346 774 -346 726.5 -310.5 c 128,-1,112
 679 -275 679 -275 679 -197 c 256,113,114
 679 -119 679 -119 726.5 -82 c 128,-1,115
 774 -45 774 -45 852 -45 c 0,116,117
 940 -45 940 -45 988 -84 c 128,-1,118
 1036 -123 1036 -123 1036 -207 c 2,119,-1
 1036 -376 l 1,62,63
240 -391 m 0,120,121
 268 -391 268 -391 294 -372 c 128,-1,122
 320 -353 320 -353 330 -336 c 1,123,124
 315 -315 315 -315 291.5 -295 c 128,-1,125
 268 -275 268 -275 230 -275 c 0,126,127
 200 -275 200 -275 184.5 -295 c 128,-1,128
 169 -315 169 -315 169 -340 c 0,129,130
 169 -356 169 -356 189.5 -373.5 c 128,-1,131
 210 -391 210 -391 240 -391 c 0,120,121
815 -197 m 0,132,133
 815 -240 815 -240 858 -240 c 256,134,135
 903 -240 903 -240 903 -197 c 0,136,137
 903 -156 903 -156 858 -156 c 256,138,139
 815 -156 815 -156 815 -197 c 0,132,133
383 537 m 0,140,141
 383 502 383 502 403.5 479.5 c 128,-1,142
 424 457 424 457 454 457 c 256,143,144
 486 457 486 457 507.5 479.5 c 128,-1,145
 529 502 529 502 529 537 c 0,146,147
 529 567 529 567 507.5 589 c 128,-1,148
 486 611 486 611 454 611 c 256,149,150
 424 611 424 611 403.5 589 c 128,-1,151
 383 567 383 567 383 537 c 0,140,141
EndSplineSet
Substitution2: "Single Substitution lookup 22 subtable" uni0E10.alt1
Substitution2: "Single Substitution lookup 22 subtable" uni0E10.alt1
EndChar
StartChar: uni0E11
Encoding: 3601 3601 286
Width: 1234
VWidth: 3393
Flags: W
HStem: 0 21G<360 570 949 1160> 706 113<229.338 340.647> 949 116<255.05 332.234> 1133 173<203.131 261.925 465.484 520.249>
VStem: 61 166<851.431 1091.49> 360 210<0 262> 529 160<1013.34 1116.23> 949 211<0 1088.25>
Fore
360 0 m 1,0,-1
 360 529 l 2,1,2
 360 547 360 547 369.5 581 c 128,-1,3
 379 615 379 615 388 634 c 0,4,-1
 418 712 l 0,5,6
 441 771 441 771 454 797 c 1,7,8
 421 751 421 751 370.5 728.5 c 128,-1,9
 320 706 320 706 292 706 c 0,10,11
 217 706 217 706 171.5 740 c 128,-1,12
 126 774 126 774 100.5 826 c 128,-1,13
 75 878 75 878 68 941 c 128,-1,14
 61 1004 61 1004 61 1059 c 0,15,16
 61 1100 61 1100 71 1142.5 c 128,-1,17
 81 1185 81 1185 102 1222 c 128,-1,18
 123 1259 123 1259 153.5 1282.5 c 128,-1,19
 184 1306 184 1306 220 1306 c 0,20,21
 255 1306 255 1306 276.5 1291 c 128,-1,22
 298 1276 298 1276 315.5 1257.5 c 128,-1,23
 333 1239 333 1239 344.5 1222 c 128,-1,24
 356 1205 356 1205 370 1198 c 1,25,-1
 373 1198 l 1,26,27
 401 1225 401 1225 424 1265.5 c 128,-1,28
 447 1306 447 1306 502 1306 c 0,29,30
 583 1306 583 1306 636 1255.5 c 128,-1,31
 689 1205 689 1205 689 1104 c 0,32,33
 689 1036 689 1036 665 966 c 128,-1,34
 641 896 641 896 615 838 c 0,35,36
 593 790 593 790 573 704 c 128,-1,37
 553 618 553 618 553 540 c 1,38,39
 580 600 580 600 612.5 675.5 c 128,-1,40
 645 751 645 751 677 823.5 c 128,-1,41
 709 896 709 896 738 964 c 128,-1,42
 767 1032 767 1032 787 1075 c 0,43,44
 828 1175 828 1175 874 1246 c 128,-1,45
 920 1317 920 1317 991 1317 c 0,46,47
 1107 1317 1107 1317 1133.5 1272.5 c 128,-1,48
 1160 1228 1160 1228 1160 1130 c 2,49,-1
 1160 0 l 1,50,-1
 949 0 l 1,51,-1
 949 961 l 2,52,53
 949 991 949 991 947.5 1028 c 128,-1,54
 946 1065 946 1065 943 1089 c 1,55,56
 913 1024 913 1024 858.5 902 c 128,-1,57
 804 780 804 780 748.5 652.5 c 128,-1,58
 693 525 693 525 643 415 c 128,-1,59
 593 305 593 305 570 262 c 1,60,-1
 570 0 l 1,61,-1
 360 0 l 1,0,-1
482 890 m 2,62,63
 509 936 509 936 519 968.5 c 128,-1,64
 529 1001 529 1001 529 1046 c 0,65,66
 529 1069 529 1069 519 1099.5 c 128,-1,67
 509 1130 509 1130 492 1130 c 0,68,69
 482 1130 482 1130 475.5 1122 c 128,-1,70
 469 1114 469 1114 462 1104 c 0,71,72
 451 1082 451 1082 439.5 1065.5 c 128,-1,73
 428 1049 428 1049 408 1042 c 1,74,75
 441 1017 441 1017 458.5 971.5 c 128,-1,76
 476 926 476 926 476 878 c 1,77,-1
 482 890 l 2,62,63
224 1049 m 2,78,79
 237 1056 237 1056 254.5 1060.5 c 128,-1,80
 272 1065 272 1065 302 1065 c 2,81,-1
 333 1062 l 1,82,83
 333 1065 333 1065 320.5 1077 c 128,-1,84
 308 1089 308 1089 295 1101.5 c 128,-1,85
 282 1114 282 1114 270 1123.5 c 128,-1,86
 258 1133 258 1133 252 1133 c 0,87,88
 227 1133 227 1133 214 1046 c 1,89,-1
 224 1049 l 2,78,79
227 882 m 0,90,91
 227 819 227 819 292 819 c 256,92,93
 356 819 356 819 356 882 c 0,94,95
 356 949 356 949 292 949 c 256,96,97
 227 949 227 949 227 882 c 0,90,91
EndSplineSet
EndChar
StartChar: uni0E12
Encoding: 3602 3602 287
Width: 1234
VWidth: 3393
Flags: W
HStem: 0 21<205 422.5 691 798 1068.72 1211> 828 130<444.204 543.795> 1042 163<474.047 557.179> 1137 184<262.779 354.426 653.727 683>
VStem: 38 176<698.784 939.179> 275 146<690.312 812.833> 534 139<128.33 250.073> 567 132<698.174 805.31> 744 179<469 1068.42> 754 166<87.125 244> 1001 210<343 1314>
Fore
1001 343 m 1,0,-1
 1001 1314 l 1,1,-1
 1211 1314 l 1,2,-1
 1211 0 l 1,3,-1
 1082 0 l 1,4,-1
 920 244 l 1,5,-1
 920 176 l 2,6,7
 920 75 920 75 886 22.5 c 128,-1,8
 852 -30 852 -30 744 -30 c 0,9,10
 638 -30 638 -30 586 48 c 128,-1,11
 534 126 534 126 534 220 c 0,12,13
 534 227 534 227 535.5 252.5 c 128,-1,14
 537 278 537 278 537 285 c 1,15,16
 505 210 505 210 469.5 134 c 128,-1,17
 434 58 434 58 411 0 c 1,18,-1
 210 0 l 1,19,20
 200 113 200 113 173 216.5 c 128,-1,21
 146 320 146 320 115.5 421 c 128,-1,22
 85 522 85 522 61.5 625.5 c 128,-1,23
 38 729 38 729 38 842 c 0,24,25
 38 913 38 913 51.5 996 c 128,-1,26
 65 1079 65 1079 97 1150 c 128,-1,27
 129 1221 129 1221 184.5 1271 c 128,-1,28
 240 1321 240 1321 326 1321 c 0,29,30
 356 1321 356 1321 380 1302 c 128,-1,31
 404 1283 404 1283 422.5 1263 c 128,-1,32
 441 1243 441 1243 460 1224 c 128,-1,33
 479 1205 479 1205 502 1205 c 0,34,35
 543 1205 543 1205 575.5 1252 c 128,-1,36
 608 1299 608 1299 645 1324 c 1,37,38
 716 1324 716 1324 769 1296.5 c 128,-1,39
 822 1269 822 1269 856 1223.5 c 128,-1,40
 890 1178 890 1178 906.5 1117 c 128,-1,41
 923 1056 923 1056 923 991 c 2,42,-1
 923 431 l 1,43,-1
 1001 343 l 1,0,-1
573 363 m 1,44,45
 600 401 600 401 643 429 c 128,-1,46
 686 457 686 457 744 469 c 1,47,-1
 744 1021 l 2,48,49
 744 1056 744 1056 731.5 1089.5 c 128,-1,50
 719 1123 719 1123 683 1137 c 1,51,-1
 679 1137 l 2,52,53
 658 1137 658 1137 639.5 1122 c 128,-1,54
 621 1107 621 1107 600.5 1089.5 c 128,-1,55
 580 1072 580 1072 558.5 1057 c 128,-1,56
 537 1042 537 1042 505 1042 c 256,57,58
 476 1042 476 1042 452 1057 c 128,-1,59
 428 1072 428 1072 407 1089.5 c 128,-1,60
 386 1107 386 1107 366 1122 c 128,-1,61
 346 1137 346 1137 326 1137 c 0,62,63
 288 1137 288 1137 266 1104.5 c 128,-1,64
 244 1072 244 1072 232 1028 c 128,-1,65
 220 984 220 984 217 937 c 128,-1,66
 214 890 214 890 214 855 c 0,67,68
 214 777 214 777 233 704 c 128,-1,69
 252 631 252 631 277 561.5 c 128,-1,70
 302 492 302 492 326 422.5 c 128,-1,71
 350 353 350 353 360 275 c 1,72,73
 379 333 379 333 391.5 362 c 128,-1,74
 404 391 404 391 414 411 c 128,-1,75
 424 431 424 431 435.5 456.5 c 128,-1,76
 447 482 447 482 469 534 c 1,77,78
 401 550 401 550 338 599 c 128,-1,79
 275 648 275 648 275 736 c 0,80,81
 275 848 275 848 338 903 c 128,-1,82
 401 958 401 958 505 958 c 0,83,84
 699 958 699 958 699 754 c 0,85,86
 699 683 699 683 680 616.5 c 128,-1,87
 661 550 661 550 635 489 c 2,88,-1
 573 363 l 1,44,45
673 210 m 0,89,90
 673 172 673 172 688 130 c 128,-1,91
 703 88 703 88 754 85 c 1,92,-1
 754 340 l 1,93,94
 703 315 703 315 688 276 c 128,-1,95
 673 237 673 237 673 210 c 0,89,90
421 751 m 0,96,97
 421 719 421 719 443.5 697.5 c 128,-1,98
 466 676 466 676 492 676 c 0,99,100
 522 676 522 676 544.5 697.5 c 128,-1,101
 567 719 567 719 567 751 c 0,102,103
 567 784 567 784 544.5 806 c 128,-1,104
 522 828 522 828 492 828 c 0,105,106
 466 828 466 828 443.5 806 c 128,-1,107
 421 784 421 784 421 751 c 0,96,97
EndSplineSet
EndChar
StartChar: uni0E13
Encoding: 3603 3603 288
Width: 1234
VWidth: 3393
Flags: W
HStem: -30 149<276.952 372.273> -30 131<985.29 1070.25> 285 143<291.245 372.069> 1160 161<307.852 511.026>
VStem: 58 210<221.498 239.349 414 812.825> 540 199<268 1076.13> 933 210<425.806 1314> 1082 139<131.344 262.926>
Fore
822 336 m 2,0,1
 878 383 878 383 905.5 424.5 c 128,-1,2
 933 466 933 466 933 543 c 2,3,-1
 933 1314 l 1,4,-1
 1143 1314 l 1,5,-1
 1143 489 l 2,6,7
 1143 434 1143 434 1107 398 c 1,8,9
 1163 366 1163 366 1192 325.5 c 128,-1,10
 1221 285 1221 285 1221 214 c 0,11,12
 1221 116 1221 116 1175.5 43 c 128,-1,13
 1130 -30 1130 -30 1024 -30 c 0,14,15
 936 -30 936 -30 889 22.5 c 128,-1,16
 842 75 842 75 835 159 c 1,17,18
 807 133 807 133 755 89 c 128,-1,19
 703 45 703 45 686 0 c 1,20,-1
 540 0 l 1,21,-1
 540 187 l 1,22,23
 522 109 522 109 466.5 39.5 c 128,-1,24
 411 -30 411 -30 320 -30 c 0,25,26
 255 -30 255 -30 205.5 -1.5 c 128,-1,27
 156 27 156 27 123.5 73 c 128,-1,28
 91 119 91 119 74.5 176.5 c 128,-1,29
 58 234 58 234 58 292 c 2,30,-1
 58 693 l 2,31,32
 58 761 58 761 95.5 814.5 c 128,-1,33
 133 868 133 868 159 903 c 1,34,-1
 23 903 l 1,35,-1
 23 1079 l 1,36,37
 75 1140 75 1140 109 1185.5 c 128,-1,38
 143 1231 143 1231 183.5 1260 c 128,-1,39
 224 1289 224 1289 282 1305 c 128,-1,40
 340 1321 340 1321 434 1321 c 256,41,42
 529 1321 529 1321 588.5 1297 c 128,-1,43
 648 1273 648 1273 682 1227 c 128,-1,44
 716 1181 716 1181 727.5 1115 c 128,-1,45
 739 1049 739 1049 739 961 c 2,46,-1
 739 268 l 1,47,-1
 822 336 l 2,0,1
340 428 m 0,48,49
 428 428 428 428 476.5 377 c 128,-1,50
 525 326 525 326 540 255 c 1,51,-1
 540 961 l 2,52,53
 540 1049 540 1049 517.5 1104.5 c 128,-1,54
 495 1160 495 1160 401 1160 c 0,55,56
 326 1160 326 1160 281.5 1119.5 c 128,-1,57
 237 1079 237 1079 204 1024 c 1,58,-1
 360 1024 l 1,59,-1
 360 913 l 1,60,61
 308 903 308 903 288 855 c 128,-1,62
 268 807 268 807 268 764 c 2,63,-1
 268 414 l 1,64,65
 285 421 285 421 300 424.5 c 128,-1,66
 315 428 315 428 340 428 c 0,48,49
383 214 m 0,67,68
 383 237 383 237 368 261 c 128,-1,69
 353 285 353 285 326 285 c 256,70,71
 298 285 298 285 281.5 259.5 c 128,-1,72
 265 234 265 234 265 207 c 0,73,74
 265 172 265 172 280 145.5 c 128,-1,75
 295 119 295 119 333 119 c 0,76,77
 360 119 360 119 371.5 153 c 128,-1,78
 383 187 383 187 383 214 c 0,67,68
1082 204 m 0,79,80
 1082 227 1082 227 1069 257.5 c 128,-1,81
 1056 288 1056 288 1032 288 c 0,82,83
 1004 288 1004 288 987.5 257.5 c 128,-1,84
 971 227 971 227 971 197 c 0,85,86
 971 169 971 169 987.5 135 c 128,-1,87
 1004 101 1004 101 1032 101 c 256,88,89
 1059 101 1059 101 1070.5 138.5 c 128,-1,90
 1082 176 1082 176 1082 204 c 0,79,80
EndSplineSet
EndChar
StartChar: uni0E14
Encoding: 3604 3604 289
Width: 1234
VWidth: 3393
Flags: W
HStem: 0 21G<242 529.5 923 1133> 800 158<575.69 655.276> 1150 174<442.807 818.838>
VStem: 94 201<574.026 1005.94> 373 180<663.329 784.8> 699 169<671.206 777.826> 923 210<0 1052.74>
Fore
631 1150 m 0,0,1
 479 1150 479 1150 387 1065.5 c 128,-1,2
 295 981 295 981 295 822 c 0,3,4
 295 676 295 676 334 535 c 128,-1,5
 373 394 373 394 411 258 c 1,6,7
 454 323 454 323 488 375.5 c 128,-1,8
 522 428 522 428 567 495 c 1,9,10
 479 505 479 505 426 558 c 128,-1,11
 373 611 373 611 373 716 c 0,12,13
 373 825 373 825 444 891.5 c 128,-1,14
 515 958 515 958 621 958 c 0,15,16
 729 958 729 958 798.5 900 c 128,-1,17
 868 842 868 842 868 722 c 0,18,19
 868 648 868 648 839 585 c 128,-1,20
 810 522 810 522 774 466 c 0,21,22
 771 462 771 462 764 451.5 c 128,-1,23
 757 441 757 441 728 397 c 128,-1,24
 699 353 699 353 641 261 c 128,-1,25
 583 169 583 169 476 0 c 1,26,-1
 244 0 l 1,27,28
 240 116 240 116 215.5 215.5 c 128,-1,29
 191 315 191 315 165 410 c 128,-1,30
 139 505 139 505 116.5 605.5 c 128,-1,31
 94 706 94 706 94 822 c 0,32,33
 94 946 94 946 135 1039.5 c 128,-1,34
 176 1133 176 1133 248 1196 c 128,-1,35
 320 1259 320 1259 417.5 1291.5 c 128,-1,36
 515 1324 515 1324 628 1324 c 256,37,38
 739 1324 739 1324 831 1301.5 c 128,-1,39
 923 1279 923 1279 991 1227 c 128,-1,40
 1059 1175 1059 1175 1096 1088 c 128,-1,41
 1133 1001 1133 1001 1133 872 c 2,42,-1
 1133 0 l 1,43,-1
 923 0 l 1,44,-1
 923 875 l 2,45,46
 923 1032 923 1032 842 1091 c 128,-1,47
 761 1150 761 1150 631 1150 c 0,0,1
553 726 m 0,48,49
 553 693 553 693 575 670.5 c 128,-1,50
 597 648 597 648 628 648 c 0,51,52
 655 648 655 648 677 670.5 c 128,-1,53
 699 693 699 693 699 726 c 0,54,55
 699 757 699 757 677 778.5 c 128,-1,56
 655 800 655 800 628 800 c 0,57,58
 597 800 597 800 575 778.5 c 128,-1,59
 553 757 553 757 553 726 c 0,48,49
EndSplineSet
EndChar
StartChar: uni0E15
Encoding: 3605 3605 290
Width: 1234
VWidth: 3393
Flags: W
HStem: 0 21G<252 505.5 906 1117> 815 143<567.628 669.795> 1301 20G<380.5 464.097 791 884>
VStem: 98 200<594.384 931.394> 370 177<685.864 801.003> 693 155<684.205 792.309> 904.5 212.5<0 1013.95>
Fore
807 1110 m 1,0,1
 757 1097 757 1097 718 1060.5 c 128,-1,2
 679 1024 679 1024 621 1024 c 0,3,4
 583 1024 583 1024 556 1040 c 128,-1,5
 529 1056 529 1056 507.5 1072.5 c 128,-1,6
 486 1089 486 1089 461.5 1104.5 c 128,-1,7
 437 1120 437 1120 408 1120 c 0,8,9
 370 1120 370 1120 348 1089.5 c 128,-1,10
 326 1059 326 1059 315.5 1013.5 c 128,-1,11
 305 968 305 968 301.5 918 c 128,-1,12
 298 868 298 868 298 832 c 0,13,14
 298 686 298 686 344.5 553.5 c 128,-1,15
 391 421 391 421 421 278 c 1,16,17
 454 336 454 336 486.5 385 c 128,-1,18
 519 434 519 434 550 492 c 1,19,20
 472 512 472 512 421 573.5 c 128,-1,21
 370 635 370 635 370 719 c 0,22,23
 370 825 370 825 434.5 891.5 c 128,-1,24
 499 958 499 958 605 958 c 256,25,26
 709 958 709 958 778.5 906.5 c 128,-1,27
 848 855 848 855 848 744 c 0,28,29
 848 648 848 648 802.5 547.5 c 128,-1,30
 757 447 757 447 697.5 351 c 128,-1,31
 638 255 638 255 578.5 165 c 128,-1,32
 519 75 519 75 492 0 c 1,33,-1
 252 0 l 1,34,-1
 252 55 l 2,35,36
 252 162 252 162 228 256 c 128,-1,37
 204 350 204 350 175 439.5 c 128,-1,38
 146 529 146 529 122 624 c 128,-1,39
 98 719 98 719 98 835 c 0,40,41
 98 920 98 920 112 1004.5 c 128,-1,42
 126 1089 126 1089 163 1157 c 128,-1,43
 200 1225 200 1225 265 1271 c 128,-1,44
 330 1317 330 1317 431 1321 c 1,45,-1
 618 1208 l 1,46,47
 676 1215 676 1215 721.5 1253.5 c 128,-1,48
 767 1292 767 1292 815 1324 c 1,49,50
 953 1286 953 1286 1035 1206.5 c 128,-1,51
 1117 1127 1117 1127 1117 988 c 2,52,-1
 1117 0 l 1,53,-1
 906 0 l 1,54,-1
 906 903 l 2,55,56
 906 933 906 933 904.5 968.5 c 128,-1,57
 903 1004 903 1004 892.5 1034.5 c 128,-1,58
 882 1065 882 1065 862 1087.5 c 128,-1,59
 842 1110 842 1110 807 1110 c 1,0,1
547 736 m 0,60,61
 547 706 547 706 567 683.5 c 128,-1,62
 587 661 587 661 618 661 c 256,63,64
 648 661 648 661 670.5 683.5 c 128,-1,65
 693 706 693 706 693 736 c 0,66,67
 693 771 693 771 670.5 793 c 128,-1,68
 648 815 648 815 618 815 c 256,69,70
 587 815 587 815 567 793 c 128,-1,71
 547 771 547 771 547 736 c 0,60,61
EndSplineSet
EndChar
StartChar: uni0E16
Encoding: 3606 3606 291
Width: 1234
VWidth: 3393
Flags: W
HStem: -30 173<424.964 538.892> 295 159<446.885 538.253> 1153 181<479.691 658>
VStem: 207 211<437 776.734> 553 169<186.58 272.825> 896 211<0 1070.86>
Fore
664 1153 m 1,0,1
 563 1153 563 1153 477 1116 c 128,-1,2
 391 1079 391 1079 326 1021 c 1,3,-1
 522 1021 l 1,4,-1
 522 893 l 1,5,6
 472 868 472 868 445 817.5 c 128,-1,7
 418 767 418 767 418 716 c 2,8,-1
 418 437 l 1,9,10
 441 444 441 444 461.5 449 c 128,-1,11
 482 454 482 454 509 454 c 0,12,13
 608 454 608 454 665 390 c 128,-1,14
 722 326 722 326 722 237 c 0,15,16
 722 116 722 116 657.5 43 c 128,-1,17
 593 -30 593 -30 466 -30 c 0,18,19
 343 -30 343 -30 275 61 c 128,-1,20
 207 152 207 152 207 265 c 2,21,-1
 207 664 l 2,22,23
 207 722 207 722 246 778.5 c 128,-1,24
 285 835 285 835 323 875 c 1,25,-1
 109 875 l 1,26,-1
 109 1075 l 1,27,28
 224 1181 224 1181 356.5 1257.5 c 128,-1,29
 489 1334 489 1334 645 1334 c 0,30,31
 732 1334 732 1334 814 1311.5 c 128,-1,32
 896 1289 896 1289 962.5 1242 c 128,-1,33
 1029 1195 1029 1195 1068 1120.5 c 128,-1,34
 1107 1046 1107 1046 1107 940 c 2,35,-1
 1107 0 l 1,36,-1
 896 0 l 1,37,-1
 896 906 l 2,38,39
 896 1032 896 1032 833.5 1092.5 c 128,-1,40
 771 1153 771 1153 658 1153 c 1,41,-1
 664 1153 l 1,0,1
411 217 m 0,42,43
 411 187 411 187 431 165 c 128,-1,44
 451 143 451 143 482 143 c 256,45,46
 512 143 512 143 532.5 165 c 128,-1,47
 553 187 553 187 553 217 c 0,48,49
 553 252 553 252 532.5 273.5 c 128,-1,50
 512 295 512 295 482 295 c 256,51,52
 451 295 451 295 431 273.5 c 128,-1,53
 411 252 411 252 411 217 c 0,42,43
EndSplineSet
EndChar
StartChar: uni0E17
Encoding: 3607 3607 292
Width: 1234
VWidth: 3393
Flags: W
HStem: 0 21G<330 540 946 1157> 842 165<223.215 326.769> 1160 157<230.205 320>
VStem: 41 166<1022.59 1144.41> 330 210<0 626.6> 353 184<971 1087.61> 946 211<0 1104>
Fore
583 1001 m 2,0,1
 605 1032 605 1032 636.5 1086 c 128,-1,2
 668 1140 668 1140 711 1194.5 c 128,-1,3
 754 1249 754 1249 806 1288 c 128,-1,4
 858 1327 858 1327 920 1327 c 0,5,6
 1059 1327 1059 1327 1108 1257.5 c 128,-1,7
 1157 1188 1157 1188 1157 1052 c 2,8,-1
 1157 0 l 1,9,-1
 946 0 l 1,10,-1
 946 1104 l 1,11,12
 930 1150 930 1150 910 1150 c 256,13,14
 890 1150 890 1150 871 1132 c 128,-1,15
 852 1114 852 1114 831 1086.5 c 128,-1,16
 810 1059 810 1059 790.5 1026.5 c 128,-1,17
 771 994 771 994 754 964 c 0,18,19
 739 940 739 940 703.5 884 c 128,-1,20
 668 828 668 828 632.5 768.5 c 128,-1,21
 597 709 597 709 570 665 c 128,-1,22
 543 621 543 621 540 618 c 1,23,-1
 540 0 l 1,24,-1
 330 0 l 1,25,-1
 330 848 l 1,26,27
 315 842 315 842 282 842 c 0,28,29
 181 842 181 842 111 903 c 128,-1,30
 41 964 41 964 41 1072 c 0,31,32
 41 1205 41 1205 117.5 1261 c 128,-1,33
 194 1317 194 1317 320 1317 c 0,34,35
 401 1317 401 1317 445 1285 c 128,-1,36
 489 1253 489 1253 509 1201.5 c 128,-1,37
 529 1150 529 1150 533 1089.5 c 128,-1,38
 537 1029 537 1029 537 971 c 2,39,-1
 537 926 l 1,40,-1
 583 1001 l 2,0,1
207 1082 m 0,41,42
 207 1052 207 1052 229.5 1029.5 c 128,-1,43
 252 1007 252 1007 282 1007 c 0,44,45
 308 1007 308 1007 330.5 1029.5 c 128,-1,46
 353 1052 353 1052 353 1082 c 0,47,48
 353 1117 353 1117 330.5 1138.5 c 128,-1,49
 308 1160 308 1160 282 1160 c 0,50,51
 252 1160 252 1160 229.5 1138.5 c 128,-1,52
 207 1117 207 1117 207 1082 c 0,41,42
EndSplineSet
EndChar
StartChar: uni0E18
Encoding: 3608 3608 293
Width: 1234
VWidth: 3393
Flags: W
HStem: 0 181<421 848> 842 179<336 621.867> 1021 252<799.937 1111.44> 1143 180<395.372 571.685>
VStem: 210 211<181 790> 848 211<181 762.326>
Fore
600 1312 m 2,0,1
 648 1307 648 1307 760 1290 c 128,-1,2
 872 1273 872 1273 973.5 1273 c 128,-1,3
 1075 1273 1075 1273 1130 1296 c 1,4,-1
 1130 1027 l 1,5,6
 1092 1021 1092 1021 1077 1021 c 2,7,-1
 1049 1021 l 2,8,9
 905 1021 905 1021 789 1069 c 128,-1,10
 673 1117 673 1117 636.5 1130 c 128,-1,11
 600 1143 600 1143 534 1143 c 256,12,13
 393 1143 393 1143 336 1021 c 1,14,-1
 457 1021 l 2,15,16
 697 1021 697 1021 842 959 c 0,17,18
 933 920 933 920 996 850.5 c 128,-1,19
 1059 781 1059 781 1059 661 c 2,20,-1
 1059 0 l 1,21,-1
 210 0 l 1,22,-1
 210 790 l 1,23,-1
 421 790 l 1,24,-1
 421 181 l 1,25,-1
 848 181 l 1,26,-1
 848 631 l 2,27,28
 848 723 848 723 801 765 c 128,-1,29
 754 807 754 807 679.5 822.5 c 128,-1,30
 605 838 605 838 518 838 c 128,-1,31
 431 838 431 838 353 842 c 2,32,-1
 81 842 l 1,33,34
 85 910 85 910 90 950 c 0,35,36
 111 1147 111 1147 269 1247 c 0,37,38
 389 1323 389 1323 490 1323 c 0,39,40
 505 1323 505 1323 519 1321 c 2,41,-1
 600 1312 l 2,0,1
EndSplineSet
EndChar
StartChar: uni0E19
Encoding: 3609 3609 294
Width: 1234
VWidth: 3393
Flags: W
HStem: -30 159<921.355 1027.1> 859 159<229.991 322.676> 1170 151<257.724 336.795>
VStem: 55 159<1033.68 1155.98> 330 210<315 869> 360 180<998 1123.64> 913 210<648.501 1314> 1042 163<197.62 314.748>
Fore
1205 255 m 0,0,1
 1205 204 1205 204 1190 152.5 c 128,-1,2
 1175 101 1175 101 1147.5 60.5 c 128,-1,3
 1120 20 1120 20 1078 -5 c 128,-1,4
 1036 -30 1036 -30 981 -30 c 0,5,6
 726 -30 726 -30 726 220 c 2,7,-1
 726 249 l 1,8,9
 668 210 668 210 610.5 140.5 c 128,-1,10
 553 71 553 71 525 0 c 1,11,-1
 330 0 l 1,12,-1
 330 869 l 1,13,14
 298 859 298 859 262 859 c 0,15,16
 162 859 162 859 108.5 927 c 128,-1,17
 55 995 55 995 55 1086 c 0,18,19
 55 1195 55 1195 123 1258 c 128,-1,20
 191 1321 191 1321 295 1321 c 0,21,22
 383 1321 383 1321 432.5 1297 c 128,-1,23
 482 1273 482 1273 505.5 1229 c 128,-1,24
 529 1185 529 1185 534.5 1125.5 c 128,-1,25
 540 1066 540 1066 540 998 c 2,26,-1
 540 315 l 1,27,28
 577 356 577 356 633 388.5 c 128,-1,29
 689 421 689 421 746.5 456.5 c 128,-1,30
 804 492 804 492 850 537.5 c 0,31,32
 898.118 585.095 898.118 585.095 910 648 c 0,33,34
 913 663.882 913 663.882 913 697.5 c 0,35,36
 913 722 913 722 913 744 c 2,37,-1
 913 1314 l 1,38,-1
 1123 1314 l 1,39,-1
 1123 658 l 2,40,41
 1123 611 1123 611 1107.5 570 c 128,-1,42
 1092 529 1092 529 1069 492 c 1,43,44
 1205 428 1205 428 1205 255 c 0,0,1
1042 252 m 256,45,46
 1042 282 1042 282 1026.5 314 c 128,-1,47
 1011 346 1011 346 978 346 c 0,48,49
 940 346 940 346 923 310.5 c 128,-1,50
 906 275 906 275 906 240 c 256,51,52
 906 207 906 207 921 168 c 128,-1,53
 936 129 936 129 978 129 c 0,54,55
 1014 129 1014 129 1028 174.5 c 128,-1,56
 1042 220 1042 220 1042 252 c 256,45,46
214 1096 m 0,57,58
 214 1063 214 1063 236 1040.5 c 128,-1,59
 258 1018 258 1018 285 1018 c 0,60,61
 315 1018 315 1018 337.5 1040.5 c 128,-1,62
 360 1063 360 1063 360 1096 c 0,63,64
 360 1127 360 1127 337.5 1148.5 c 128,-1,65
 315 1170 315 1170 285 1170 c 0,66,67
 258 1170 258 1170 236 1148.5 c 128,-1,68
 214 1127 214 1127 214 1096 c 0,57,58
EndSplineSet
EndChar
StartChar: uni0E1A
Encoding: 3610 3610 295
Width: 1234
VWidth: 3393
Flags: W
HStem: 0 181<550 968> 845 166<240.205 334.724> 1160 161<240.205 340.827>
VStem: 48 169<1026.72 1144.84> 340 210<181 852> 363 187<1031 1137.83> 968 210<181 1314>
Fore
340 0 m 1,0,-1
 340 852 l 1,1,2
 323 845 323 845 307.5 845 c 128,-1,3
 292 845 292 845 278 845 c 0,4,5
 172 845 172 845 110 911.5 c 128,-1,6
 48 978 48 978 48 1079 c 0,7,8
 48 1188 48 1188 116 1254.5 c 128,-1,9
 184 1321 184 1321 292 1321 c 0,10,11
 434 1321 434 1321 492 1240.5 c 128,-1,12
 550 1160 550 1160 550 1031 c 2,13,-1
 550 181 l 1,14,-1
 968 181 l 1,15,-1
 968 1314 l 1,16,-1
 1178 1314 l 1,17,-1
 1178 0 l 1,18,-1
 340 0 l 1,0,-1
217 1086 m 256,19,20
 217 1056 217 1056 239.5 1033.5 c 128,-1,21
 262 1011 262 1011 292 1011 c 0,22,23
 320 1011 320 1011 341.5 1033.5 c 128,-1,24
 363 1056 363 1056 363 1086 c 256,25,26
 363 1117 363 1117 341.5 1138.5 c 128,-1,27
 320 1160 320 1160 292 1160 c 0,28,29
 262 1160 262 1160 239.5 1138.5 c 128,-1,30
 217 1117 217 1117 217 1086 c 256,19,20
EndSplineSet
EndChar
StartChar: uni0E1B
Encoding: 3611 3611 296
Width: 1234
VWidth: 3393
Flags: W
HStem: 0 181<550 964> 845 166<246.689 337.353> 1301 20G<238 363>
VStem: 48 176<1026.72 1144.84> 340 210<181 852> 370 180<1031 1137.83> 964 211<181 1775>
Fore
340 0 m 1,0,-1
 340 852 l 1,1,2
 323 845 323 845 307.5 845 c 128,-1,3
 292 845 292 845 278 845 c 0,4,5
 172 845 172 845 110 911.5 c 128,-1,6
 48 978 48 978 48 1079 c 0,7,8
 48 1188 48 1188 116 1254.5 c 128,-1,9
 184 1321 184 1321 292 1321 c 0,10,11
 434 1321 434 1321 492 1240.5 c 128,-1,12
 550 1160 550 1160 550 1031 c 2,13,-1
 550 181 l 1,14,-1
 964 181 l 1,15,-1
 964 1775 l 1,16,-1
 1175 1775 l 1,17,-1
 1175 0 l 1,18,-1
 340 0 l 1,0,-1
224 1086 m 256,19,20
 224 1056 224 1056 246 1033.5 c 128,-1,21
 268 1011 268 1011 298 1011 c 0,22,23
 326 1011 326 1011 348 1033.5 c 128,-1,24
 370 1056 370 1056 370 1086 c 256,25,26
 370 1117 370 1117 348 1138.5 c 128,-1,27
 326 1160 326 1160 298 1160 c 0,28,29
 268 1160 268 1160 246 1138.5 c 128,-1,30
 224 1117 224 1117 224 1086 c 256,19,20
EndSplineSet
EndChar
StartChar: uni0E1C
Encoding: 3612 3612 297
Width: 1234
VWidth: 3393
Flags: W
HStem: 0 21G<119 396.793 854.692 1133> 826 176<356.548 464.221> 1154 167<353.628 455.795>
VStem: 119 207<275 836> 479 172<1024.69 1131.82> 923 210<295 1314>
Fore
386 0 m 1,0,-1
 119 0 l 1,1,-1
 119 1076 l 2,2,3
 119 1127 119 1127 142.5 1171 c 128,-1,4
 166 1215 166 1215 205 1249 c 128,-1,5
 244 1283 244 1283 292 1302 c 128,-1,6
 340 1321 340 1321 391 1321 c 0,7,8
 502 1321 502 1321 576.5 1255 c 128,-1,9
 651 1189 651 1189 651 1069 c 256,10,11
 651 950 651 950 583 888 c 128,-1,12
 515 826 515 826 398 826 c 0,13,14
 366 826 366 826 326 836 c 1,15,-1
 326 275 l 1,16,17
 391 379 391 379 450 488 c 128,-1,18
 509 597 509 597 573 703 c 1,19,-1
 709 703 l 1,20,-1
 923 295 l 1,21,-1
 923 1314 l 1,22,-1
 1133 1314 l 1,23,-1
 1133 0 l 1,24,-1
 865 0 l 1,25,-1
 631 454 l 1,26,-1
 386 0 l 1,0,-1
333 1076 m 0,27,28
 333 1046 333 1046 353 1024 c 128,-1,29
 373 1002 373 1002 404 1002 c 256,30,31
 434 1002 434 1002 456.5 1024 c 128,-1,32
 479 1046 479 1046 479 1076 c 0,33,34
 479 1111 479 1111 456.5 1132.5 c 128,-1,35
 434 1154 434 1154 404 1154 c 256,36,37
 373 1154 373 1154 353 1132.5 c 128,-1,38
 333 1111 333 1111 333 1076 c 0,27,28
EndSplineSet
EndChar
StartChar: uni0E1D
Encoding: 3613 3613 298
Width: 1234
VWidth: 3393
Flags: W
HStem: 0 21G<143 424.749 882.648 1160> 826 166<389.28 494.885> 1124 20G<421 450> 1301 20G<392 473.5>
VStem: 143 210<262 836> 509 170<1014.69 1121.82> 949 211<298 1806>
Fore
414 0 m 1,0,-1
 143 0 l 1,1,-1
 143 1076 l 2,2,3
 143 1127 143 1127 167 1171 c 128,-1,4
 191 1215 191 1215 229.5 1249 c 128,-1,5
 268 1283 268 1283 317 1302 c 128,-1,6
 366 1321 366 1321 418 1321 c 0,7,8
 529 1321 529 1321 604 1255 c 128,-1,9
 679 1189 679 1189 679 1069 c 256,10,11
 679 950 679 950 611 888 c 128,-1,12
 543 826 543 826 424 826 c 0,13,14
 394 826 394 826 353 836 c 1,15,-1
 353 262 l 1,16,17
 418 366 418 366 476 479.5 c 128,-1,18
 534 593 534 593 597 703 c 1,19,-1
 732 703 l 1,20,-1
 949 298 l 1,21,-1
 949 1806 l 1,22,-1
 1160 1806 l 1,23,-1
 1160 0 l 1,24,-1
 893 0 l 1,25,-1
 658 454 l 1,26,-1
 414 0 l 1,0,-1
363 1066 m 0,27,28
 363 1036 363 1036 385.5 1014 c 128,-1,29
 408 992 408 992 434 992 c 0,30,31
 466 992 466 992 487.5 1014 c 128,-1,32
 509 1036 509 1036 509 1066 c 0,33,34
 509 1101 509 1101 487.5 1122.5 c 128,-1,35
 466 1144 466 1144 434 1144 c 0,36,37
 408 1144 408 1144 385.5 1122.5 c 128,-1,38
 363 1101 363 1101 363 1066 c 0,27,28
EndSplineSet
EndChar
StartChar: uni0E1E
Encoding: 3614 3614 299
Width: 1234
VWidth: 3393
Flags: W
HStem: 0 21G<320 585.38 927.65 1185> 841 163<214.868 318.469> 1156 168<220.628 323.311>
VStem: 23 177<1019.89 1131.75> 320 205<414 845> 346 179<1027.21 1133.83> 974 211<414 1314>
Fore
580 0 m 1,0,-1
 320 0 l 1,1,-1
 320 845 l 1,2,3
 302 841 302 841 275 841 c 0,4,5
 23 841 23 841 23 1082 c 0,6,7
 23 1194 23 1194 97.5 1259 c 128,-1,8
 172 1324 172 1324 282 1324 c 0,9,10
 414 1324 414 1324 469.5 1249 c 128,-1,11
 525 1174 525 1174 525 1052 c 2,12,-1
 525 414 l 1,13,14
 547 492 547 492 567 560 c 128,-1,15
 587 628 587 628 606 692.5 c 128,-1,16
 625 757 625 757 644.5 823.5 c 128,-1,17
 664 890 664 890 686 968 c 1,18,-1
 822 968 l 1,19,-1
 974 414 l 1,20,-1
 974 1314 l 1,21,-1
 1185 1314 l 1,22,-1
 1185 0 l 1,23,-1
 933 0 l 1,24,-1
 757 658 l 1,25,-1
 580 0 l 1,0,-1
200 1082 m 0,26,27
 200 1049 200 1049 220 1026.5 c 128,-1,28
 240 1004 240 1004 272 1004 c 256,29,30
 302 1004 302 1004 324 1026.5 c 128,-1,31
 346 1049 346 1049 346 1082 c 0,32,33
 346 1113 346 1113 324 1134.5 c 128,-1,34
 302 1156 302 1156 272 1156 c 256,35,36
 240 1156 240 1156 220 1134.5 c 128,-1,37
 200 1113 200 1113 200 1082 c 0,26,27
EndSplineSet
EndChar
StartChar: uni0E1F
Encoding: 3615 3615 300
Width: 1234
VWidth: 3393
Flags: W
HStem: 0 21G<320 585.38 927.65 1185> 841 163<214.868 318.469> 1156 168<220.628 323.311>
VStem: 23 177<1019.89 1131.75> 320 205<414 845> 346 179<1027.21 1133.83> 974 211<414 1775>
Fore
580 0 m 1,0,-1
 320 0 l 1,1,-1
 320 845 l 1,2,3
 302 841 302 841 275 841 c 0,4,5
 23 841 23 841 23 1082 c 0,6,7
 23 1194 23 1194 97.5 1259 c 128,-1,8
 172 1324 172 1324 282 1324 c 0,9,10
 414 1324 414 1324 469.5 1249 c 128,-1,11
 525 1174 525 1174 525 1052 c 2,12,-1
 525 414 l 1,13,14
 547 492 547 492 567 560 c 128,-1,15
 587 628 587 628 606 692.5 c 128,-1,16
 625 757 625 757 644.5 823.5 c 128,-1,17
 664 890 664 890 686 968 c 1,18,-1
 825 968 l 1,19,-1
 974 414 l 1,20,-1
 974 1775 l 1,21,-1
 1185 1775 l 1,22,-1
 1185 0 l 1,23,-1
 933 0 l 1,24,-1
 757 658 l 1,25,-1
 580 0 l 1,0,-1
200 1082 m 0,26,27
 200 1049 200 1049 220 1026.5 c 128,-1,28
 240 1004 240 1004 272 1004 c 256,29,30
 302 1004 302 1004 324 1026.5 c 128,-1,31
 346 1049 346 1049 346 1082 c 0,32,33
 346 1113 346 1113 324 1134.5 c 128,-1,34
 302 1156 302 1156 272 1156 c 256,35,36
 240 1156 240 1156 220 1134.5 c 128,-1,37
 200 1113 200 1113 200 1082 c 0,26,27
EndSplineSet
EndChar
StartChar: uni0E20
Encoding: 3616 3616 301
Width: 1234
VWidth: 3393
Flags: W
HStem: -30 156<248.507 364.174> 278 156<256.689 342.472> 1165 169<609.709 862.759>
VStem: 71 163<140.477 263.552> 343 210<428 721.5> 379 174<148.174 255.31> 940 210<0 1080.25>
Fore
940 897 m 2,0,1
 940 1014 940 1014 891 1089.5 c 128,-1,2
 842 1165 842 1165 716 1165 c 0,3,4
 683 1165 683 1165 640 1152.5 c 128,-1,5
 597 1140 597 1140 556 1122 c 128,-1,6
 515 1104 515 1104 483 1080 c 128,-1,7
 451 1056 451 1056 434 1029 c 1,8,-1
 648 1029 l 1,9,-1
 648 900 l 1,10,11
 593 862 593 862 573 819.5 c 128,-1,12
 553 777 553 777 553 719 c 2,13,-1
 553 237 l 2,14,15
 553 119 553 119 495 44.5 c 128,-1,16
 437 -30 437 -30 308 -30 c 0,17,18
 197 -30 197 -30 134 37 c 128,-1,19
 71 104 71 104 71 217 c 0,20,21
 71 315 71 315 132.5 374.5 c 128,-1,22
 194 434 194 434 298 434 c 0,23,24
 315 434 315 434 320.5 434 c 128,-1,25
 326 434 326 434 343 428 c 1,26,-1
 343 661 l 2,27,28
 343 719 343 719 367 787 c 128,-1,29
 391 855 391 855 447 893 c 1,30,-1
 230 893 l 1,31,-1
 230 1086 l 1,32,33
 315 1202 315 1202 454 1268 c 128,-1,34
 593 1334 593 1334 729 1334 c 0,35,36
 930 1334 930 1334 1040 1224 c 128,-1,37
 1150 1114 1150 1114 1150 890 c 2,38,-1
 1150 0 l 1,39,-1
 940 0 l 1,40,-1
 940 897 l 2,0,1
234 200 m 0,41,42
 234 169 234 169 256 147.5 c 128,-1,43
 278 126 278 126 308 126 c 0,44,45
 336 126 336 126 357.5 147.5 c 128,-1,46
 379 169 379 169 379 200 c 0,47,48
 379 234 379 234 357.5 256 c 128,-1,49
 336 278 336 278 308 278 c 0,50,51
 278 278 278 278 256 256 c 128,-1,52
 234 234 234 234 234 200 c 0,41,42
EndSplineSet
EndChar
